<svg width="25" height="20" viewBox="0 0 25 20" fill="none" xmlns="http://www.w3.org/2000/svg">
<path d="M4.89 3.84425C4.89 3.70025 5.00675 3.5835 5.15075 3.5835C5.29475 3.5835 5.41125 3.70025 5.41125 3.84425C5.41125 3.98825 5.29475 4.105 5.15075 4.105C5.00675 4.105 4.89 3.98825 4.89 3.84425ZM2.08325 2.96975C1.93925 2.96975 1.82275 3.0865 1.82275 3.23025C1.82275 3.37425 1.9395 3.491 2.08325 3.491C2.227 3.491 2.34375 3.37425 2.34375 3.23025C2.344 3.0865 2.22725 2.96975 2.08325 2.96975ZM2.08325 4.1975C1.93925 4.1975 1.82275 4.31425 1.82275 4.458C1.82275 4.60175 1.9395 4.7185 2.08325 4.7185C2.227 4.7185 2.34375 4.60175 2.34375 4.458C2.34375 4.31425 2.22725 4.1975 2.08325 4.1975ZM3.31125 4.71875C3.45525 4.71875 3.57175 4.602 3.57175 4.45825C3.57175 4.3145 3.455 4.19775 3.31125 4.19775C3.1675 4.19775 3.05075 4.3145 3.05075 4.45825C3.05075 4.602 3.16725 4.71875 3.31125 4.71875ZM4.53825 3.491C4.68225 3.491 4.79875 3.37425 4.79875 3.23025C4.79875 3.0865 4.682 2.96975 4.53825 2.96975C4.39425 2.96975 4.2775 3.0865 4.2775 3.23025C4.2775 3.37425 4.39425 3.491 4.53825 3.491ZM4.53825 4.71875C4.68225 4.71875 4.79875 4.602 4.79875 4.45825C4.79875 4.3145 4.682 4.19775 4.53825 4.19775C4.39425 4.19775 4.2775 4.3145 4.2775 4.45825C4.2775 4.602 4.39425 4.71875 4.53825 4.71875ZM8.83325 4.105C8.97725 4.105 9.09375 3.98825 9.09375 3.84425C9.09375 3.70025 8.977 3.5835 8.83325 3.5835C8.6895 3.5835 8.57275 3.70025 8.57275 3.84425C8.5725 3.98825 8.68925 4.105 8.83325 4.105ZM5.766 4.71875C5.90975 4.71875 6.0265 4.602 6.0265 4.45825C6.0265 4.3145 5.90975 4.19775 5.766 4.19775C5.62175 4.19775 5.5055 4.3145 5.5055 4.45825C5.5055 4.602 5.62175 4.71875 5.766 4.71875ZM6.99375 4.71875C7.13775 4.71875 7.2545 4.602 7.2545 4.45825C7.2545 4.3145 7.13775 4.19775 6.99375 4.19775C6.84975 4.19775 6.733 4.3145 6.733 4.45825C6.733 4.602 6.84975 4.71875 6.99375 4.71875ZM8.2205 3.491C8.36475 3.491 8.481 3.37425 8.481 3.23025C8.481 3.0865 8.3645 2.96975 8.2205 2.96975C8.0765 2.96975 7.96 3.0865 7.96 3.23025C7.96 3.37425 8.07675 3.491 8.2205 3.491ZM8.2205 4.71875C8.36475 4.71875 8.481 4.602 8.481 4.45825C8.481 4.3145 8.3645 4.19775 8.2205 4.19775C8.0765 4.19775 7.96 4.3145 7.96 4.45825C7.96 4.602 8.07675 4.71875 8.2205 4.71875ZM9.44775 3.491C9.5915 3.491 9.70825 3.37425 9.70825 3.23025C9.70825 3.0865 9.5915 2.96975 9.44775 2.96975C9.30375 2.96975 9.18725 3.0865 9.18725 3.23025C9.187 3.37425 9.3035 3.491 9.44775 3.491ZM9.44775 4.71875C9.5915 4.71875 9.70825 4.602 9.70825 4.45825C9.70825 4.3145 9.5915 4.19775 9.44775 4.19775C9.30375 4.19775 9.18725 4.3145 9.18725 4.45825C9.18725 4.602 9.3035 4.71875 9.44775 4.71875ZM10.6755 4.71875C10.8195 4.71875 10.936 4.602 10.936 4.45825C10.936 4.3145 10.8193 4.19775 10.6755 4.19775C10.5317 4.19775 10.415 4.3145 10.415 4.45825C10.415 4.602 10.5315 4.71875 10.6755 4.71875ZM11.9023 3.491C12.0463 3.491 12.1628 3.37425 12.1628 3.23025C12.1628 3.0865 12.046 2.96975 11.9023 2.96975C11.7585 2.96975 11.6418 3.0865 11.6418 3.23025C11.6418 3.37425 11.7585 3.491 11.9023 3.491ZM11.9023 4.71875C12.0463 4.71875 12.1628 4.602 12.1628 4.45825C12.1628 4.3145 12.046 4.19775 11.9023 4.19775C11.7585 4.19775 11.6418 4.3145 11.6418 4.45825C11.6418 4.602 11.7585 4.71875 11.9023 4.71875ZM3.92275 5.33125C4.06675 5.33125 4.1835 5.2145 4.1835 5.07075C4.1835 4.92675 4.06675 4.81 3.92275 4.81C3.77875 4.81 3.66225 4.92675 3.66225 5.07075C3.66225 5.21425 3.77875 5.33125 3.92275 5.33125ZM5.15075 5.33125C5.29475 5.33125 5.41125 5.2145 5.41125 5.07075C5.41125 4.92675 5.29475 4.81 5.15075 4.81C5.00675 4.81 4.89 4.92675 4.89 5.07075C4.89 5.21425 5.00675 5.33125 5.15075 5.33125ZM2.08325 5.42375C1.93925 5.42375 1.82275 5.5405 1.82275 5.68425C1.82275 5.82825 1.9395 5.945 2.08325 5.945C2.227 5.945 2.34375 5.82825 2.34375 5.68425C2.344 5.5405 2.22725 5.42375 2.08325 5.42375ZM3.31125 5.945C3.45525 5.945 3.57175 5.82825 3.57175 5.68425C3.57175 5.5405 3.455 5.42375 3.31125 5.42375C3.1675 5.42375 3.05075 5.5405 3.05075 5.68425C3.0505 5.82825 3.16725 5.945 3.31125 5.945ZM4.53825 5.945C4.68225 5.945 4.79875 5.82825 4.79875 5.68425C4.79875 5.5405 4.682 5.42375 4.53825 5.42375C4.39425 5.42375 4.2775 5.5405 4.2775 5.68425C4.2775 5.82825 4.39425 5.945 4.53825 5.945ZM7.6055 5.33125C7.7495 5.33125 7.866 5.2145 7.866 5.07075C7.866 4.92675 7.7495 4.81 7.6055 4.81C7.4615 4.81 7.34475 4.92675 7.34475 5.07075C7.34475 5.21425 7.4615 5.33125 7.6055 5.33125ZM8.83325 5.33125C8.97725 5.33125 9.09375 5.2145 9.09375 5.07075C9.09375 4.92675 8.977 4.81 8.83325 4.81C8.6895 4.81 8.57275 4.92675 8.57275 5.07075C8.5725 5.21425 8.68925 5.33125 8.83325 5.33125ZM6.38 5.33125C6.524 5.33125 6.6405 5.2145 6.6405 5.07075C6.6405 4.92675 6.524 4.81 6.38 4.81C6.23575 4.81 6.1195 4.92675 6.1195 5.07075C6.11925 5.21425 6.23575 5.33125 6.38 5.33125ZM5.766 5.945C5.90975 5.945 6.0265 5.82825 6.0265 5.68425C6.0265 5.5405 5.90975 5.42375 5.766 5.42375C5.62175 5.42375 5.5055 5.5405 5.5055 5.68425C5.50525 5.82825 5.62175 5.945 5.766 5.945ZM6.99375 5.945C7.13775 5.945 7.2545 5.82825 7.2545 5.68425C7.2545 5.5405 7.13775 5.42375 6.99375 5.42375C6.84975 5.42375 6.733 5.5405 6.733 5.68425C6.733 5.82825 6.84975 5.945 6.99375 5.945ZM8.2205 5.945C8.36475 5.945 8.481 5.82825 8.481 5.68425C8.481 5.5405 8.3645 5.42375 8.2205 5.42375C8.0765 5.42375 7.96 5.5405 7.96 5.68425C7.96 5.82825 8.07675 5.945 8.2205 5.945ZM11.287 5.33125C11.431 5.33125 11.5475 5.2145 11.5475 5.07075C11.5475 4.92675 11.4307 4.81 11.287 4.81C11.1432 4.81 11.0265 4.92675 11.0265 5.07075C11.0265 5.21425 11.1432 5.33125 11.287 5.33125ZM10.0615 5.33125C10.2055 5.33125 10.322 5.2145 10.322 5.07075C10.322 4.92675 10.2052 4.81 10.0615 4.81C9.91775 4.81 9.801 4.92675 9.801 5.07075C9.801 5.21425 9.9175 5.33125 10.0615 5.33125ZM9.44775 5.945C9.5915 5.945 9.70825 5.82825 9.70825 5.68425C9.70825 5.5405 9.5915 5.42375 9.44775 5.42375C9.30375 5.42375 9.18725 5.5405 9.18725 5.68425C9.187 5.82825 9.3035 5.945 9.44775 5.945ZM10.6755 5.945C10.8195 5.945 10.936 5.82825 10.936 5.68425C10.936 5.5405 10.8193 5.42375 10.6755 5.42375C10.5317 5.42375 10.415 5.5405 10.415 5.68425C10.4148 5.82825 10.5315 5.945 10.6755 5.945ZM11.9023 5.945C12.0463 5.945 12.1628 5.82825 12.1628 5.68425C12.1628 5.5405 12.046 5.42375 11.9023 5.42375C11.7585 5.42375 11.6418 5.5405 11.6418 5.68425C11.6418 5.82825 11.7585 5.945 11.9023 5.945ZM3.92275 6.559C4.06675 6.559 4.1835 6.44225 4.1835 6.29825C4.1835 6.1545 4.06675 6.03775 3.92275 6.03775C3.77875 6.03775 3.66225 6.1545 3.66225 6.29825C3.66225 6.44225 3.77875 6.559 3.92275 6.559ZM5.15075 6.559C5.29475 6.559 5.41125 6.44225 5.41125 6.29825C5.41125 6.1545 5.29475 6.03775 5.15075 6.03775C5.00675 6.03775 4.89 6.1545 4.89 6.29825C4.89 6.44225 5.00675 6.559 5.15075 6.559ZM6.38 6.559C6.524 6.559 6.6405 6.44225 6.6405 6.29825C6.6405 6.1545 6.524 6.03775 6.38 6.03775C6.23575 6.03775 6.1195 6.1545 6.1195 6.29825C6.11925 6.4425 6.23575 6.559 6.38 6.559ZM7.6055 6.559C7.7495 6.559 7.866 6.44225 7.866 6.29825C7.866 6.1545 7.7495 6.03775 7.6055 6.03775C7.4615 6.03775 7.34475 6.1545 7.34475 6.29825C7.34475 6.44225 7.4615 6.559 7.6055 6.559ZM8.83325 6.559C8.97725 6.559 9.09375 6.44225 9.09375 6.29825C9.09375 6.1545 8.977 6.03775 8.83325 6.03775C8.6895 6.03775 8.57275 6.1545 8.57275 6.29825C8.5725 6.44225 8.68925 6.559 8.83325 6.559ZM10.0615 6.559C10.2055 6.559 10.322 6.44225 10.322 6.29825C10.322 6.1545 10.2052 6.03775 10.0615 6.03775C9.91775 6.03775 9.801 6.1545 9.801 6.29825C9.801 6.4425 9.9175 6.559 10.0615 6.559ZM11.287 6.559C11.431 6.559 11.5475 6.44225 11.5475 6.29825C11.5475 6.1545 11.4307 6.03775 11.287 6.03775C11.1432 6.03775 11.0265 6.1545 11.0265 6.29825C11.0265 6.44225 11.1432 6.559 11.287 6.559ZM3.92275 7.78875C4.06675 7.78875 4.1835 7.67225 4.1835 7.528C4.1835 7.384 4.06675 7.2675 3.92275 7.2675C3.77875 7.2675 3.66225 7.38425 3.66225 7.528C3.66225 7.672 3.77875 7.78875 3.92275 7.78875ZM5.15075 7.78875C5.29475 7.78875 5.41125 7.67225 5.41125 7.528C5.41125 7.384 5.29475 7.2675 5.15075 7.2675C5.00675 7.2675 4.89 7.38425 4.89 7.528C4.89 7.672 5.00675 7.78875 5.15075 7.78875ZM2.08325 6.6535C1.93925 6.6535 1.82275 6.77025 1.82275 6.914C1.82275 7.058 1.9395 7.17475 2.08325 7.17475C2.227 7.17475 2.34375 7.058 2.34375 6.914C2.344 6.77025 2.22725 6.6535 2.08325 6.6535ZM3.31125 7.17475C3.45525 7.17475 3.57175 7.058 3.57175 6.914C3.57175 6.77025 3.455 6.6535 3.31125 6.6535C3.1675 6.6535 3.05075 6.77025 3.05075 6.914C3.0505 7.058 3.16725 7.17475 3.31125 7.17475ZM2.08325 7.88125C1.93925 7.88125 1.82275 7.99775 1.82275 8.14175C1.82275 8.28575 1.9395 8.4025 2.08325 8.4025C2.227 8.4025 2.34375 8.28575 2.34375 8.14175C2.344 7.998 2.22725 7.88125 2.08325 7.88125ZM3.31125 8.4025C3.45525 8.4025 3.57175 8.28575 3.57175 8.14175C3.57175 7.99775 3.455 7.88125 3.31125 7.88125C3.1675 7.88125 3.05075 7.99775 3.05075 8.14175C3.0505 8.286 3.16725 8.4025 3.31125 8.4025ZM4.53825 7.17475C4.68225 7.17475 4.79875 7.058 4.79875 6.914C4.79875 6.77025 4.682 6.6535 4.53825 6.6535C4.39425 6.6535 4.2775 6.77025 4.2775 6.914C4.2775 7.058 4.39425 7.17475 4.53825 7.17475ZM4.53825 8.4025C4.68225 8.4025 4.79875 8.28575 4.79875 8.14175C4.79875 7.99775 4.682 7.88125 4.53825 7.88125C4.39425 7.88125 4.2775 7.99775 4.2775 8.14175C4.2775 8.286 4.39425 8.4025 4.53825 8.4025ZM7.6055 7.78875C7.7495 7.78875 7.866 7.67225 7.866 7.528C7.866 7.384 7.7495 7.2675 7.6055 7.2675C7.4615 7.2675 7.34475 7.38425 7.34475 7.528C7.34475 7.672 7.4615 7.78875 7.6055 7.78875ZM8.83325 7.78875C8.97725 7.78875 9.09375 7.67225 9.09375 7.528C9.09375 7.384 8.977 7.2675 8.83325 7.2675C8.6895 7.2675 8.57275 7.38425 8.57275 7.528C8.5725 7.672 8.68925 7.78875 8.83325 7.78875ZM6.38 7.78875C6.524 7.78875 6.6405 7.67225 6.6405 7.528C6.6405 7.384 6.524 7.2675 6.38 7.2675C6.23575 7.2675 6.1195 7.38425 6.1195 7.528C6.11925 7.672 6.23575 7.78875 6.38 7.78875ZM5.766 7.17475C5.90975 7.17475 6.0265 7.058 6.0265 6.914C6.0265 6.77025 5.90975 6.6535 5.766 6.6535C5.62175 6.6535 5.5055 6.77025 5.5055 6.914C5.50525 7.058 5.62175 7.17475 5.766 7.17475ZM6.99375 7.17475C7.13775 7.17475 7.2545 7.058 7.2545 6.914C7.2545 6.77025 7.13775 6.6535 6.99375 6.6535C6.84975 6.6535 6.733 6.77025 6.733 6.914C6.733 7.058 6.84975 7.17475 6.99375 7.17475ZM5.766 8.4025C5.90975 8.4025 6.0265 8.28575 6.0265 8.14175C6.0265 7.99775 5.90975 7.88125 5.766 7.88125C5.62175 7.88125 5.5055 7.99775 5.5055 8.14175C5.50525 8.286 5.62175 8.4025 5.766 8.4025ZM6.99375 8.4025C7.13775 8.4025 7.2545 8.28575 7.2545 8.14175C7.2545 7.99775 7.13775 7.88125 6.99375 7.88125C6.84975 7.88125 6.733 7.99775 6.733 8.14175C6.733 8.286 6.84975 8.4025 6.99375 8.4025ZM8.2205 7.17475C8.36475 7.17475 8.481 7.058 8.481 6.914C8.481 6.77025 8.3645 6.6535 8.2205 6.6535C8.0765 6.6535 7.96 6.77025 7.96 6.914C7.96 7.058 8.07675 7.17475 8.2205 7.17475ZM8.2205 8.4025C8.36475 8.4025 8.481 8.28575 8.481 8.14175C8.481 7.99775 8.3645 7.88125 8.2205 7.88125C8.0765 7.88125 7.96 7.99775 7.96 8.14175C7.96 8.286 8.07675 8.4025 8.2205 8.4025ZM11.287 7.78875C11.431 7.78875 11.5475 7.67225 11.5475 7.528C11.5475 7.384 11.4307 7.2675 11.287 7.2675C11.1432 7.2675 11.0265 7.38425 11.0265 7.528C11.0265 7.672 11.1432 7.78875 11.287 7.78875ZM10.0615 7.78875C10.2055 7.78875 10.322 7.67225 10.322 7.528C10.322 7.384 10.2052 7.2675 10.0615 7.2675C9.91775 7.2675 9.801 7.38425 9.801 7.528C9.801 7.672 9.9175 7.78875 10.0615 7.78875ZM9.44775 7.17475C9.5915 7.17475 9.70825 7.058 9.70825 6.914C9.70825 6.77025 9.5915 6.6535 9.44775 6.6535C9.30375 6.6535 9.18725 6.77025 9.18725 6.914C9.187 7.058 9.3035 7.17475 9.44775 7.17475ZM10.6755 7.17475C10.8195 7.17475 10.936 7.058 10.936 6.914C10.936 6.77025 10.8193 6.6535 10.6755 6.6535C10.5317 6.6535 10.415 6.77025 10.415 6.914C10.4148 7.058 10.5315 7.17475 10.6755 7.17475ZM9.44775 8.4025C9.5915 8.4025 9.70825 8.28575 9.70825 8.14175C9.70825 7.99775 9.5915 7.88125 9.44775 7.88125C9.30375 7.88125 9.18725 7.99775 9.18725 8.14175C9.187 8.286 9.3035 8.4025 9.44775 8.4025ZM10.6755 8.4025C10.8195 8.4025 10.936 8.28575 10.936 8.14175C10.936 7.99775 10.8193 7.88125 10.6755 7.88125C10.5317 7.88125 10.415 7.99775 10.415 8.14175C10.4148 8.286 10.5315 8.4025 10.6755 8.4025ZM11.9023 7.17475C12.0463 7.17475 12.1628 7.058 12.1628 6.914C12.1628 6.77025 12.046 6.6535 11.9023 6.6535C11.7585 6.6535 11.6418 6.77025 11.6418 6.914C11.6418 7.058 11.7585 7.17475 11.9023 7.17475ZM11.9023 8.4025C12.0463 8.4025 12.1628 8.28575 12.1628 8.14175C12.1628 7.99775 12.046 7.88125 11.9023 7.88125C11.7585 7.88125 11.6418 7.99775 11.6418 8.14175C11.6418 8.286 11.7585 8.4025 11.9023 8.4025ZM3.92275 9.015C4.06675 9.015 4.1835 8.89825 4.1835 8.7545C4.1835 8.6105 4.06675 8.49375 3.92275 8.49375C3.77875 8.49375 3.66225 8.6105 3.66225 8.7545C3.66225 8.89825 3.77875 9.015 3.92275 9.015ZM5.15075 9.015C5.29475 9.015 5.41125 8.89825 5.41125 8.7545C5.41125 8.6105 5.29475 8.49375 5.15075 8.49375C5.00675 8.49375 4.89 8.6105 4.89 8.7545C4.89 8.89825 5.00675 9.015 5.15075 9.015ZM2.08325 9.1075C1.93925 9.1075 1.82275 9.22425 1.82275 9.368C1.82275 9.512 1.9395 9.6285 2.08325 9.6285C2.227 9.6285 2.34375 9.512 2.34375 9.368C2.344 9.22425 2.22725 9.1075 2.08325 9.1075ZM3.31125 9.62875C3.45525 9.62875 3.57175 9.51225 3.57175 9.36825C3.57175 9.22425 3.455 9.10775 3.31125 9.10775C3.1675 9.10775 3.05075 9.2245 3.05075 9.36825C3.0505 9.51225 3.16725 9.62875 3.31125 9.62875ZM4.53825 9.62875C4.68225 9.62875 4.79875 9.51225 4.79875 9.36825C4.79875 9.22425 4.682 9.10775 4.53825 9.10775C4.39425 9.10775 4.2775 9.2245 4.2775 9.36825C4.2775 9.51225 4.39425 9.62875 4.53825 9.62875ZM7.6055 9.015C7.7495 9.015 7.866 8.89825 7.866 8.7545C7.866 8.6105 7.7495 8.49375 7.6055 8.49375C7.4615 8.49375 7.34475 8.6105 7.34475 8.7545C7.34475 8.89825 7.4615 9.015 7.6055 9.015ZM8.83325 9.015C8.97725 9.015 9.09375 8.89825 9.09375 8.7545C9.09375 8.6105 8.977 8.49375 8.83325 8.49375C8.6895 8.49375 8.57275 8.6105 8.57275 8.7545C8.5725 8.89825 8.68925 9.015 8.83325 9.015ZM6.38 9.015C6.524 9.015 6.6405 8.89825 6.6405 8.7545C6.6405 8.6105 6.524 8.49375 6.38 8.49375C6.23575 8.49375 6.1195 8.6105 6.1195 8.75425C6.11925 8.89825 6.23575 9.015 6.38 9.015ZM5.766 9.62875C5.90975 9.62875 6.0265 9.51225 6.0265 9.36825C6.0265 9.22425 5.90975 9.10775 5.766 9.10775C5.62175 9.10775 5.5055 9.2245 5.5055 9.36825C5.50525 9.51225 5.62175 9.62875 5.766 9.62875ZM6.99375 9.62875C7.13775 9.62875 7.2545 9.51225 7.2545 9.36825C7.2545 9.22425 7.13775 9.10775 6.99375 9.10775C6.84975 9.10775 6.733 9.2245 6.733 9.36825C6.733 9.51225 6.84975 9.62875 6.99375 9.62875ZM8.2205 9.62875C8.36475 9.62875 8.481 9.51225 8.481 9.36825C8.481 9.22425 8.3645 9.10775 8.2205 9.10775C8.0765 9.10775 7.96 9.2245 7.96 9.36825C7.96 9.51225 8.07675 9.62875 8.2205 9.62875ZM11.287 9.015C11.431 9.015 11.5475 8.89825 11.5475 8.7545C11.5475 8.6105 11.4307 8.49375 11.287 8.49375C11.1432 8.49375 11.0265 8.6105 11.0265 8.7545C11.0265 8.89825 11.1432 9.015 11.287 9.015ZM10.0615 9.015C10.2055 9.015 10.322 8.89825 10.322 8.7545C10.322 8.6105 10.2052 8.49375 10.0615 8.49375C9.91775 8.49375 9.801 8.6105 9.801 8.75425C9.801 8.89825 9.9175 9.015 10.0615 9.015ZM9.44775 9.62875C9.5915 9.62875 9.70825 9.51225 9.70825 9.36825C9.70825 9.22425 9.5915 9.10775 9.44775 9.10775C9.30375 9.10775 9.18725 9.2245 9.18725 9.36825C9.187 9.51225 9.3035 9.62875 9.44775 9.62875ZM10.6755 9.62875C10.8195 9.62875 10.936 9.51225 10.936 9.36825C10.936 9.22425 10.8193 9.10775 10.6755 9.10775C10.5317 9.10775 10.415 9.2245 10.415 9.36825C10.4148 9.51225 10.5315 9.62875 10.6755 9.62875ZM11.9023 9.62875C12.0463 9.62875 12.1628 9.51225 12.1628 9.36825C12.1628 9.22425 12.046 9.10775 11.9023 9.10775C11.7585 9.10775 11.6418 9.2245 11.6418 9.36825C11.6418 9.51225 11.7585 9.62875 11.9023 9.62875ZM2.697 5.33125C2.841 5.33125 2.9575 5.2145 2.9575 5.07075C2.9575 4.92675 2.84075 4.81 2.697 4.81C2.553 4.81 2.4365 4.92675 2.4365 5.07075C2.4365 5.21425 2.553 5.33125 2.697 5.33125ZM2.697 6.03775C2.553 6.03775 2.4365 6.1545 2.4365 6.29825C2.4365 6.44225 2.553 6.559 2.697 6.559C2.841 6.559 2.9575 6.44225 2.9575 6.29825C2.95775 6.1545 2.841 6.03775 2.697 6.03775ZM2.697 7.26725C2.553 7.26725 2.4365 7.384 2.4365 7.52775C2.4365 7.672 2.553 7.7885 2.697 7.7885C2.841 7.7885 2.9575 7.672 2.9575 7.52775C2.95775 7.384 2.841 7.26725 2.697 7.26725ZM2.697 8.49375C2.553 8.49375 2.4365 8.6105 2.4365 8.7545C2.4365 8.89825 2.553 9.015 2.697 9.015C2.841 9.015 2.9575 8.89825 2.9575 8.7545C2.95775 8.61025 2.841 8.49375 2.697 8.49375ZM2.697 9.72175C2.553 9.72175 2.4365 9.83825 2.4365 9.98225C2.4365 10.1275 2.553 10.2443 2.697 10.2443C2.841 10.2443 2.9575 10.1275 2.9575 9.9835C2.95775 9.83825 2.841 9.72175 2.697 9.72175ZM12.5168 4.105C12.6608 4.105 12.7773 3.98825 12.7773 3.84425C12.7773 3.70025 12.6608 3.5835 12.5168 3.5835C12.3728 3.5835 12.2563 3.70025 12.2563 3.84425C12.2563 3.98825 12.3728 4.105 12.5168 4.105ZM16.1982 4.105C16.342 4.105 16.4587 3.98825 16.4587 3.84425C16.4587 3.70025 16.342 3.5835 16.1982 3.5835C16.0543 3.5835 15.9375 3.70025 15.9375 3.84425C15.9375 3.98825 16.0543 4.105 16.1982 4.105ZM13.1307 3.491C13.2745 3.491 13.3912 3.37425 13.3912 3.23025C13.3912 3.0865 13.2745 2.96975 13.1307 2.96975C12.9867 2.96975 12.87 3.0865 12.87 3.23025C12.87 3.37425 12.9867 3.491 13.1307 3.491ZM13.1307 4.71875C13.2745 4.71875 13.3912 4.602 13.3912 4.45825C13.3912 4.3145 13.2745 4.19775 13.1307 4.19775C12.9867 4.19775 12.87 4.3145 12.87 4.45825C12.87 4.602 12.9867 4.71875 13.1307 4.71875ZM14.3585 4.71875C14.5025 4.71875 14.6193 4.602 14.6193 4.45825C14.6193 4.3145 14.5025 4.19775 14.3585 4.19775C14.2147 4.19775 14.098 4.3145 14.098 4.45825C14.098 4.602 14.2145 4.71875 14.3585 4.71875ZM15.5855 3.491C15.7295 3.491 15.8462 3.37425 15.8462 3.23025C15.8462 3.0865 15.7295 2.96975 15.5855 2.96975C15.4415 2.96975 15.3247 3.0865 15.3247 3.23025C15.3247 3.37425 15.4415 3.491 15.5855 3.491ZM15.5855 4.71875C15.7295 4.71875 15.8462 4.602 15.8462 4.45825C15.8462 4.3145 15.7295 4.19775 15.5855 4.19775C15.4415 4.19775 15.3247 4.3145 15.3247 4.45825C15.3247 4.602 15.4415 4.71875 15.5855 4.71875ZM19.88 4.105C20.024 4.105 20.1405 3.98825 20.1405 3.84425C20.1405 3.70025 20.024 3.5835 19.88 3.5835C19.736 3.5835 19.6192 3.70025 19.6192 3.84425C19.6192 3.98825 19.7357 4.105 19.88 4.105ZM16.8125 3.491C16.9565 3.491 17.0732 3.37425 17.0732 3.23025C17.0732 3.0865 16.9565 2.96975 16.8125 2.96975C16.6685 2.96975 16.5518 3.0865 16.5518 3.23025C16.5518 3.37425 16.6685 3.491 16.8125 3.491ZM16.8125 4.71875C16.9565 4.71875 17.0732 4.602 17.0732 4.45825C17.0732 4.3145 16.9565 4.19775 16.8125 4.19775C16.6685 4.19775 16.5518 4.3145 16.5518 4.45825C16.5518 4.602 16.6685 4.71875 16.8125 4.71875ZM18.0403 4.71875C18.184 4.71875 18.3008 4.602 18.3008 4.45825C18.3008 4.3145 18.184 4.19775 18.0403 4.19775C17.8965 4.19775 17.7798 4.3145 17.7798 4.45825C17.7798 4.602 17.8965 4.71875 18.0403 4.71875ZM19.2673 3.491C19.411 3.491 19.5278 3.37425 19.5278 3.23025C19.5278 3.0865 19.411 2.96975 19.2673 2.96975C19.1235 2.96975 19.0065 3.0865 19.0065 3.23025C19.0065 3.37425 19.1235 3.491 19.2673 3.491ZM19.2673 4.71875C19.411 4.71875 19.5278 4.602 19.5278 4.45825C19.5278 4.3145 19.411 4.19775 19.2673 4.19775C19.1235 4.19775 19.0065 4.3145 19.0065 4.45825C19.0065 4.602 19.1235 4.71875 19.2673 4.71875ZM20.495 3.491C20.6388 3.491 20.7555 3.37425 20.7555 3.23025C20.7555 3.0865 20.6388 2.96975 20.495 2.96975C20.351 2.96975 20.2342 3.0865 20.2342 3.23025C20.2345 3.37425 20.351 3.491 20.495 3.491ZM20.495 4.71875C20.6388 4.71875 20.7555 4.602 20.7555 4.45825C20.7555 4.3145 20.6388 4.19775 20.495 4.19775C20.351 4.19775 20.2342 4.3145 20.2342 4.45825C20.2342 4.602 20.351 4.71875 20.495 4.71875ZM21.723 4.71875C21.8667 4.71875 21.9837 4.602 21.9837 4.45825C21.9837 4.3145 21.8667 4.19775 21.723 4.19775C21.579 4.19775 21.462 4.3145 21.462 4.45825C21.462 4.602 21.5787 4.71875 21.723 4.71875ZM22.9498 3.491C23.0938 3.491 23.2105 3.37425 23.2105 3.23025C23.2105 3.0865 23.0938 2.96975 22.9498 2.96975C22.8058 2.96975 22.689 3.0865 22.689 3.23025C22.689 3.37425 22.8058 3.491 22.9498 3.491ZM22.9498 4.71875C23.0938 4.71875 23.2105 4.602 23.2105 4.45825C23.2105 4.3145 23.0938 4.19775 22.9498 4.19775C22.8058 4.19775 22.689 4.3145 22.689 4.45825C22.689 4.602 22.8058 4.71875 22.9498 4.71875ZM12.5168 5.33125C12.6608 5.33125 12.7773 5.2145 12.7773 5.07075C12.7773 4.92675 12.6608 4.81 12.5168 4.81C12.3728 4.81 12.2563 4.92675 12.2563 5.07075C12.2563 5.21425 12.3728 5.33125 12.5168 5.33125ZM14.9703 5.33125C15.1143 5.33125 15.231 5.2145 15.231 5.07075C15.231 4.92675 15.1143 4.81 14.9703 4.81C14.8263 4.81 14.7095 4.92675 14.7095 5.07075C14.7095 5.21425 14.8263 5.33125 14.9703 5.33125ZM16.1982 5.33125C16.342 5.33125 16.4587 5.2145 16.4587 5.07075C16.4587 4.92675 16.342 4.81 16.1982 4.81C16.0543 4.81 15.9375 4.92675 15.9375 5.07075C15.9375 5.21425 16.0543 5.33125 16.1982 5.33125ZM13.1307 5.945C13.2745 5.945 13.3912 5.82825 13.3912 5.68425C13.3912 5.5405 13.2745 5.42375 13.1307 5.42375C12.9867 5.42375 12.87 5.5405 12.87 5.68425C12.87 5.82825 12.9867 5.945 13.1307 5.945ZM14.3585 5.945C14.5025 5.945 14.6193 5.82825 14.6193 5.68425C14.6193 5.5405 14.5025 5.42375 14.3585 5.42375C14.2147 5.42375 14.098 5.5405 14.098 5.68425C14.098 5.82825 14.2145 5.945 14.3585 5.945ZM15.5855 5.945C15.7295 5.945 15.8462 5.82825 15.8462 5.68425C15.8462 5.5405 15.7295 5.42375 15.5855 5.42375C15.4415 5.42375 15.3247 5.5405 15.3247 5.68425C15.3247 5.82825 15.4415 5.945 15.5855 5.945ZM18.6518 5.33125C18.7957 5.33125 18.9125 5.2145 18.9125 5.07075C18.9125 4.92675 18.7957 4.81 18.6518 4.81C18.508 4.81 18.3913 4.92675 18.3913 5.07075C18.3913 5.21425 18.508 5.33125 18.6518 5.33125ZM19.88 5.33125C20.024 5.33125 20.1405 5.2145 20.1405 5.07075C20.1405 4.92675 20.024 4.81 19.88 4.81C19.736 4.81 19.6192 4.92675 19.6192 5.07075C19.6192 5.21425 19.7357 5.33125 19.88 5.33125ZM16.8125 5.945C16.9565 5.945 17.0732 5.82825 17.0732 5.68425C17.0732 5.5405 16.9565 5.42375 16.8125 5.42375C16.6685 5.42375 16.5518 5.5405 16.5518 5.68425C16.5518 5.82825 16.6685 5.945 16.8125 5.945ZM18.0403 5.945C18.184 5.945 18.3008 5.82825 18.3008 5.68425C18.3008 5.5405 18.184 5.42375 18.0403 5.42375C17.8965 5.42375 17.7798 5.5405 17.7798 5.68425C17.7798 5.82825 17.8965 5.945 18.0403 5.945ZM19.2673 5.945C19.411 5.945 19.5278 5.82825 19.5278 5.68425C19.5278 5.5405 19.411 5.42375 19.2673 5.42375C19.1235 5.42375 19.0065 5.5405 19.0065 5.68425C19.0065 5.82825 19.1235 5.945 19.2673 5.945ZM22.3345 5.33125C22.4785 5.33125 22.595 5.2145 22.595 5.07075C22.595 4.92675 22.4785 4.81 22.3345 4.81C22.1905 4.81 22.0737 4.92675 22.0737 5.07075C22.0737 5.21425 22.1905 5.33125 22.3345 5.33125ZM21.109 5.33125C21.253 5.33125 21.3697 5.2145 21.3697 5.07075C21.3697 4.92675 21.253 4.81 21.109 4.81C20.965 4.81 20.8485 4.92675 20.8485 5.07075C20.8485 5.21425 20.9647 5.33125 21.109 5.33125ZM20.495 5.945C20.6388 5.945 20.7555 5.82825 20.7555 5.68425C20.7555 5.5405 20.6388 5.42375 20.495 5.42375C20.351 5.42375 20.2342 5.5405 20.2342 5.68425C20.2345 5.82825 20.351 5.945 20.495 5.945ZM21.723 5.945C21.8667 5.945 21.9837 5.82825 21.9837 5.68425C21.9837 5.5405 21.8667 5.42375 21.723 5.42375C21.579 5.42375 21.462 5.5405 21.462 5.68425C21.462 5.82825 21.5787 5.945 21.723 5.945ZM22.9498 5.945C23.0938 5.945 23.2105 5.82825 23.2105 5.68425C23.2105 5.5405 23.0938 5.42375 22.9498 5.42375C22.8058 5.42375 22.689 5.5405 22.689 5.68425C22.689 5.82825 22.8058 5.945 22.9498 5.945ZM12.5168 6.559C12.6608 6.559 12.7773 6.44225 12.7773 6.29825C12.7773 6.1545 12.6608 6.03775 12.5168 6.03775C12.3728 6.03775 12.2563 6.1545 12.2563 6.29825C12.2563 6.44225 12.3728 6.559 12.5168 6.559ZM22.3345 6.559C22.4785 6.559 22.595 6.44225 22.595 6.29825C22.595 6.1545 22.4785 6.03775 22.3345 6.03775C22.1905 6.03775 22.0737 6.1545 22.0737 6.29825C22.0737 6.44225 22.1905 6.559 22.3345 6.559ZM12.5168 7.78875C12.6608 7.78875 12.7773 7.67225 12.7773 7.528C12.7773 7.384 12.6608 7.2675 12.5168 7.2675C12.3728 7.2675 12.2563 7.38425 12.2563 7.528C12.2563 7.672 12.3728 7.78875 12.5168 7.78875ZM13.1307 7.17475C13.2745 7.17475 13.3912 7.058 13.3912 6.914C13.3912 6.77025 13.2745 6.6535 13.1307 6.6535C12.9867 6.6535 12.87 6.77025 12.87 6.914C12.87 7.058 12.9867 7.17475 13.1307 7.17475ZM13.1307 8.4025C13.2745 8.4025 13.3912 8.28575 13.3912 8.14175C13.3912 7.99775 13.2745 7.88125 13.1307 7.88125C12.9867 7.88125 12.87 7.99775 12.87 8.14175C12.87 8.286 12.9867 8.4025 13.1307 8.4025ZM16.8125 7.17475C16.9565 7.17475 17.0732 7.058 17.0732 6.914C17.0732 6.77025 16.9565 6.6535 16.8125 6.6535C16.6685 6.6535 16.5518 6.77025 16.5518 6.914C16.5518 7.058 16.6685 7.17475 16.8125 7.17475ZM18.0403 7.17475C18.184 7.17475 18.3008 7.058 18.3008 6.914C18.3008 6.77025 18.184 6.6535 18.0403 6.6535C17.8965 6.6535 17.7798 6.77025 17.7798 6.914C17.7798 7.058 17.8965 7.17475 18.0403 7.17475ZM16.8125 8.4025C16.9565 8.4025 17.0732 8.28575 17.0732 8.14175C17.0732 7.99775 16.9565 7.88125 16.8125 7.88125C16.6685 7.88125 16.5518 7.99775 16.5518 8.14175C16.5518 8.286 16.6685 8.4025 16.8125 8.4025ZM18.0403 8.4025C18.184 8.4025 18.3008 8.28575 18.3008 8.14175C18.3008 7.99775 18.184 7.88125 18.0403 7.88125C17.8965 7.88125 17.7798 7.99775 17.7798 8.14175C17.7798 8.286 17.8965 8.4025 18.0403 8.4025ZM22.3345 7.78875C22.4785 7.78875 22.595 7.67225 22.595 7.528C22.595 7.384 22.4785 7.2675 22.3345 7.2675C22.1905 7.2675 22.0737 7.38425 22.0737 7.528C22.0737 7.672 22.1905 7.78875 22.3345 7.78875ZM21.723 7.17475C21.8667 7.17475 21.9837 7.058 21.9837 6.914C21.9837 6.77025 21.8667 6.6535 21.723 6.6535C21.579 6.6535 21.462 6.77025 21.462 6.914C21.462 7.058 21.5787 7.17475 21.723 7.17475ZM21.723 8.4025C21.8667 8.4025 21.9837 8.28575 21.9837 8.14175C21.9837 7.99775 21.8667 7.88125 21.723 7.88125C21.579 7.88125 21.462 7.99775 21.462 8.14175C21.462 8.286 21.5787 8.4025 21.723 8.4025ZM22.9498 7.17475C23.0938 7.17475 23.2105 7.058 23.2105 6.914C23.2105 6.77025 23.0938 6.6535 22.9498 6.6535C22.8058 6.6535 22.689 6.77025 22.689 6.914C22.689 7.058 22.8058 7.17475 22.9498 7.17475ZM22.9498 8.4025C23.0938 8.4025 23.2105 8.28575 23.2105 8.14175C23.2105 7.99775 23.0938 7.88125 22.9498 7.88125C22.8058 7.88125 22.689 7.99775 22.689 8.14175C22.689 8.286 22.8058 8.4025 22.9498 8.4025ZM12.5168 9.015C12.6608 9.015 12.7773 8.89825 12.7773 8.7545C12.7773 8.6105 12.6608 8.49375 12.5168 8.49375C12.3728 8.49375 12.2563 8.6105 12.2563 8.7545C12.2563 8.89825 12.3728 9.015 12.5168 9.015ZM13.1307 9.62875C13.2745 9.62875 13.3912 9.51225 13.3912 9.36825C13.3912 9.22425 13.2745 9.10775 13.1307 9.10775C12.9867 9.10775 12.87 9.2245 12.87 9.36825C12.87 9.51225 12.9867 9.62875 13.1307 9.62875ZM14.098 9.36825C14.098 9.51225 14.2147 9.62875 14.3585 9.62875C14.5025 9.62875 14.6193 9.51225 14.6193 9.36825C14.6193 9.22425 14.5025 9.10775 14.3585 9.10775C14.2145 9.1075 14.098 9.22425 14.098 9.36825ZM15.3247 9.36825C15.3247 9.51225 15.4415 9.62875 15.5855 9.62875C15.7295 9.62875 15.8462 9.51225 15.8462 9.36825C15.8462 9.22425 15.7295 9.10775 15.5855 9.10775C15.4415 9.10775 15.3247 9.22425 15.3247 9.36825ZM16.8125 9.62875C16.9565 9.62875 17.0732 9.51225 17.0732 9.36825C17.0732 9.22425 16.9565 9.10775 16.8125 9.10775C16.6685 9.10775 16.5518 9.2245 16.5518 9.36825C16.5518 9.51225 16.6685 9.62875 16.8125 9.62875ZM18.0403 9.62875C18.184 9.62875 18.3008 9.51225 18.3008 9.36825C18.3008 9.22425 18.184 9.10775 18.0403 9.10775C17.8965 9.10775 17.7798 9.2245 17.7798 9.36825C17.7798 9.51225 17.8965 9.62875 18.0403 9.62875ZM19.5278 9.36825C19.5278 9.22425 19.411 9.10775 19.2673 9.10775C19.1235 9.10775 19.0065 9.2245 19.0065 9.36825C19.0065 9.51225 19.1235 9.62875 19.2673 9.62875C19.411 9.62875 19.5278 9.51225 19.5278 9.36825ZM22.3345 9.015C22.4785 9.015 22.595 8.89825 22.595 8.7545C22.595 8.6105 22.4785 8.49375 22.3345 8.49375C22.1905 8.49375 22.0737 8.6105 22.0737 8.7545C22.0737 8.89825 22.1905 9.015 22.3345 9.015ZM20.7555 9.36825C20.7555 9.22425 20.6388 9.10775 20.495 9.10775C20.351 9.10775 20.2342 9.2245 20.2342 9.36825C20.2342 9.51225 20.351 9.62875 20.495 9.62875C20.639 9.62875 20.7555 9.51225 20.7555 9.36825ZM21.723 9.62875C21.8667 9.62875 21.9837 9.51225 21.9837 9.36825C21.9837 9.22425 21.8667 9.10775 21.723 9.10775C21.579 9.10775 21.462 9.2245 21.462 9.36825C21.462 9.51225 21.5787 9.62875 21.723 9.62875ZM22.9498 9.62875C23.0938 9.62875 23.2105 9.51225 23.2105 9.36825C23.2105 9.22425 23.0938 9.10775 22.9498 9.10775C22.8058 9.10775 22.689 9.2245 22.689 9.36825C22.689 9.51225 22.8058 9.62875 22.9498 9.62875ZM13.7443 5.33125C13.8883 5.33125 14.005 5.2145 14.005 5.07075C14.005 4.92675 13.8883 4.81 13.7443 4.81C13.6003 4.81 13.4835 4.92675 13.4835 5.07075C13.4835 5.21425 13.6 5.33125 13.7443 5.33125ZM17.426 5.33125C17.57 5.33125 17.6868 5.2145 17.6868 5.07075C17.6868 4.92675 17.57 4.81 17.426 4.81C17.2823 4.81 17.1655 4.92675 17.1655 5.07075C17.1655 5.21425 17.2823 5.33125 17.426 5.33125ZM17.426 6.559C17.57 6.559 17.6868 6.44225 17.6868 6.29825C17.6868 6.1545 17.57 6.03775 17.426 6.03775C17.2823 6.03775 17.1655 6.1545 17.1655 6.29825C17.1655 6.44225 17.2823 6.559 17.426 6.559ZM17.426 7.78875C17.57 7.78875 17.6868 7.67225 17.6868 7.528C17.6868 7.384 17.57 7.2675 17.426 7.2675C17.2823 7.2675 17.1655 7.38425 17.1655 7.528C17.1655 7.672 17.2823 7.78875 17.426 7.78875ZM17.426 9.015C17.57 9.015 17.6868 8.89825 17.6868 8.7545C17.6868 8.6105 17.57 8.49375 17.426 8.49375C17.2823 8.49375 17.1655 8.6105 17.1655 8.7545C17.1655 8.89825 17.2823 9.015 17.426 9.015ZM2.08325 10.337C1.93925 10.337 1.82275 10.4535 1.82275 10.5975C1.82275 10.7413 1.9395 10.858 2.08325 10.858C2.227 10.858 2.34375 10.7413 2.34375 10.5975C2.344 10.4532 2.22725 10.337 2.08325 10.337ZM3.31125 10.858C3.45525 10.858 3.57175 10.7413 3.57175 10.5975C3.57175 10.4535 3.455 10.337 3.31125 10.337C3.1675 10.337 3.05075 10.4535 3.05075 10.5975C3.0505 10.7413 3.16725 10.858 3.31125 10.858ZM2.08325 11.5645C1.93925 11.5645 1.82275 11.6812 1.82275 11.8252C1.82275 11.9692 1.9395 12.086 2.08325 12.086C2.227 12.086 2.34375 11.9692 2.34375 11.8252C2.34375 11.6812 2.22725 11.5645 2.08325 11.5645ZM3.31125 12.086C3.45525 12.086 3.57175 11.9692 3.57175 11.8252C3.57175 11.6812 3.455 11.5645 3.31125 11.5645C3.1675 11.5645 3.05075 11.6812 3.05075 11.8252C3.05075 11.9692 3.16725 12.086 3.31125 12.086ZM7.6055 10.2443C7.7495 10.2443 7.866 10.1275 7.866 9.9835C7.866 9.83825 7.7495 9.72175 7.6055 9.72175C7.4615 9.72175 7.34475 9.83825 7.34475 9.98225C7.34475 10.1275 7.4615 10.2443 7.6055 10.2443ZM7.6055 11.472C7.7495 11.472 7.866 11.3553 7.866 11.2115C7.866 11.0675 7.7495 10.9508 7.6055 10.9508C7.4615 10.9508 7.34475 11.0675 7.34475 11.2115C7.34475 11.3553 7.4615 11.472 7.6055 11.472ZM6.99375 10.858C7.13775 10.858 7.2545 10.7413 7.2545 10.5975C7.2545 10.4535 7.13775 10.337 6.99375 10.337C6.84975 10.337 6.733 10.4535 6.733 10.5975C6.733 10.7413 6.84975 10.858 6.99375 10.858ZM6.99375 12.086C7.13775 12.086 7.2545 11.9692 7.2545 11.8252C7.2545 11.6812 7.13775 11.5645 6.99375 11.5645C6.84975 11.5645 6.733 11.6812 6.733 11.8252C6.733 11.9692 6.84975 12.086 6.99375 12.086ZM8.2205 10.858C8.36475 10.858 8.481 10.7413 8.481 10.5975C8.481 10.4535 8.3645 10.337 8.2205 10.337C8.0765 10.337 7.96 10.4535 7.96 10.5975C7.96 10.7413 8.07675 10.858 8.2205 10.858ZM8.2205 12.086C8.36475 12.086 8.481 11.9692 8.481 11.8252C8.481 11.6812 8.3645 11.5645 8.2205 11.5645C8.0765 11.5645 7.96 11.6812 7.96 11.8252C7.96 11.9692 8.07675 12.086 8.2205 12.086ZM11.9023 10.858C12.0463 10.858 12.1628 10.7413 12.1628 10.5975C12.1628 10.4535 12.046 10.337 11.9023 10.337C11.7585 10.337 11.6418 10.4535 11.6418 10.5975C11.6418 10.7413 11.7585 10.858 11.9023 10.858ZM11.9023 12.086C12.0463 12.086 12.1628 11.9692 12.1628 11.8252C12.1628 11.6812 12.046 11.5645 11.9023 11.5645C11.7585 11.5645 11.6418 11.6812 11.6418 11.8252C11.6418 11.9692 11.7585 12.086 11.9023 12.086ZM2.08325 12.791C1.93925 12.791 1.82275 12.9075 1.82275 13.0515C1.82275 13.1953 1.9395 13.312 2.08325 13.312C2.227 13.312 2.34375 13.1953 2.34375 13.0515C2.344 12.9075 2.22725 12.791 2.08325 12.791ZM3.31125 13.312C3.45525 13.312 3.57175 13.1953 3.57175 13.0515C3.57175 12.9075 3.455 12.791 3.31125 12.791C3.1675 12.791 3.05075 12.9075 3.05075 13.0515C3.0505 13.1953 3.16725 13.312 3.31125 13.312ZM4.79875 13.0515C4.79875 12.9075 4.682 12.791 4.53825 12.791C4.39425 12.791 4.2775 12.9075 4.2775 13.0515C4.2775 13.1953 4.39425 13.312 4.53825 13.312C4.68225 13.312 4.79875 13.1953 4.79875 13.0515ZM7.6055 12.6982C7.7495 12.6982 7.866 12.5815 7.866 12.4375C7.866 12.2937 7.7495 12.177 7.6055 12.177C7.4615 12.177 7.34475 12.2937 7.34475 12.4375C7.34475 12.5815 7.4615 12.6982 7.6055 12.6982ZM6.0265 13.0515C6.0265 12.9075 5.90975 12.791 5.766 12.791C5.62175 12.791 5.5055 12.9075 5.5055 13.0515C5.5055 13.1953 5.62175 13.312 5.766 13.312C5.90975 13.312 6.0265 13.1953 6.0265 13.0515ZM6.99375 13.312C7.13775 13.312 7.2545 13.1953 7.2545 13.0515C7.2545 12.9075 7.13775 12.791 6.99375 12.791C6.84975 12.791 6.733 12.9075 6.733 13.0515C6.733 13.1953 6.84975 13.312 6.99375 13.312ZM8.2205 13.312C8.36475 13.312 8.481 13.1953 8.481 13.0515C8.481 12.9075 8.3645 12.791 8.2205 12.791C8.0765 12.791 7.96 12.9075 7.96 13.0515C7.96 13.1953 8.07675 13.312 8.2205 13.312ZM9.70825 13.0515C9.70825 12.9075 9.5915 12.791 9.44775 12.791C9.30375 12.791 9.18725 12.9075 9.18725 13.0515C9.18725 13.1953 9.30375 13.312 9.44775 13.312C9.5915 13.312 9.70825 13.1953 9.70825 13.0515ZM10.936 13.0515C10.936 12.9075 10.8193 12.791 10.6755 12.791C10.5317 12.791 10.415 12.9075 10.415 13.0515C10.415 13.1953 10.5317 13.312 10.6755 13.312C10.8193 13.312 10.936 13.1953 10.936 13.0515ZM11.9023 13.312C12.0463 13.312 12.1628 13.1953 12.1628 13.0515C12.1628 12.9075 12.046 12.791 11.9023 12.791C11.7585 12.791 11.6418 12.9075 11.6418 13.0515C11.6418 13.1953 11.7585 13.312 11.9023 13.312ZM7.6055 13.926C7.7495 13.926 7.866 13.8093 7.866 13.6655C7.866 13.5215 7.7495 13.4047 7.6055 13.4047C7.4615 13.4047 7.34475 13.5215 7.34475 13.6655C7.34475 13.8093 7.4615 13.926 7.6055 13.926ZM3.92275 17.6045C4.06675 17.6045 4.1835 17.4875 4.1835 17.3438C4.1835 17.1998 4.06675 17.0833 3.92275 17.0833C3.77875 17.0833 3.66225 17.1998 3.66225 17.3438C3.66225 17.4875 3.77875 17.6045 3.92275 17.6045ZM5.15075 17.0833C5.00675 17.0833 4.89 17.1998 4.89 17.3438C4.89 17.4875 5.00675 17.6045 5.15075 17.6045C5.2945 17.6045 5.41125 17.4875 5.41125 17.3438C5.41125 17.1998 5.2945 17.0833 5.15075 17.0833ZM2.08325 17.697C1.93925 17.697 1.82275 17.8138 1.82275 17.9575C1.82275 18.1015 1.9395 18.2183 2.08325 18.2183C2.227 18.2183 2.34375 18.1015 2.34375 17.9575C2.344 17.8138 2.22725 17.697 2.08325 17.697ZM3.31125 18.2183C3.45525 18.2183 3.57175 18.1015 3.57175 17.9575C3.57175 17.8138 3.455 17.697 3.31125 17.697C3.1675 17.697 3.05075 17.8138 3.05075 17.9575C3.0505 18.1015 3.16725 18.2183 3.31125 18.2183ZM4.53825 17.697C4.39425 17.697 4.2775 17.8138 4.2775 17.9575C4.2775 18.1015 4.39425 18.2183 4.53825 18.2183C4.68225 18.2183 4.79875 18.1015 4.79875 17.9575C4.79875 17.8138 4.68225 17.697 4.53825 17.697ZM6.38 17.0833C6.23575 17.0833 6.1195 17.1998 6.1195 17.3438C6.1195 17.4875 6.236 17.6045 6.38 17.6045C6.524 17.6045 6.6405 17.4875 6.6405 17.3438C6.6405 17.1998 6.52375 17.0833 6.38 17.0833ZM7.6055 17.6045C7.7495 17.6045 7.866 17.4875 7.866 17.3438C7.866 17.1998 7.7495 17.0833 7.6055 17.0833C7.4615 17.0833 7.34475 17.1998 7.34475 17.3438C7.34475 17.4875 7.4615 17.6045 7.6055 17.6045ZM8.83325 17.6045C8.97725 17.6045 9.09375 17.4875 9.09375 17.3438C9.09375 17.1998 8.977 17.0833 8.83325 17.0833C8.6895 17.0833 8.57275 17.1998 8.57275 17.3438C8.5725 17.4875 8.68925 17.6045 8.83325 17.6045ZM5.766 17.697C5.62175 17.697 5.5055 17.8138 5.5055 17.9575C5.5055 18.1015 5.62175 18.2183 5.766 18.2183C5.90975 18.2183 6.0265 18.1015 6.0265 17.9575C6.0265 17.8138 5.90975 17.697 5.766 17.697ZM6.99375 18.2183C7.13775 18.2183 7.2545 18.1015 7.2545 17.9575C7.2545 17.8138 7.13775 17.697 6.99375 17.697C6.84975 17.697 6.733 17.8138 6.733 17.9575C6.733 18.1015 6.84975 18.2183 6.99375 18.2183ZM8.2205 18.2183C8.36475 18.2183 8.481 18.1015 8.481 17.9575C8.481 17.8138 8.3645 17.697 8.2205 17.697C8.0765 17.697 7.96 17.8138 7.96 17.9575C7.96 18.1015 8.07675 18.2183 8.2205 18.2183ZM10.0615 17.0833C9.91775 17.0833 9.801 17.1998 9.801 17.3438C9.801 17.4875 9.91775 17.6045 10.0615 17.6045C10.2055 17.6045 10.322 17.4875 10.322 17.3438C10.322 17.1998 10.2052 17.0833 10.0615 17.0833ZM11.287 17.0833C11.143 17.0833 11.0265 17.1998 11.0265 17.3438C11.0265 17.4875 11.143 17.6045 11.287 17.6045C11.431 17.6045 11.5475 17.4875 11.5475 17.3438C11.5477 17.1998 11.431 17.0833 11.287 17.0833ZM9.44775 17.697C9.30375 17.697 9.18725 17.8138 9.18725 17.9575C9.18725 18.1015 9.30375 18.2183 9.44775 18.2183C9.5915 18.2183 9.70825 18.1015 9.70825 17.9575C9.70825 17.8138 9.5915 17.697 9.44775 17.697ZM10.6755 17.697C10.5315 17.697 10.415 17.8138 10.415 17.9575C10.415 18.1015 10.5317 18.2183 10.6755 18.2183C10.8193 18.2183 10.936 18.1015 10.936 17.9575C10.936 17.8138 10.8193 17.697 10.6755 17.697ZM11.9023 18.2183C12.0463 18.2183 12.1628 18.1015 12.1628 17.9575C12.1628 17.8138 12.046 17.697 11.9023 17.697C11.7585 17.697 11.6418 17.8138 11.6418 17.9575C11.6418 18.1015 11.7585 18.2183 11.9023 18.2183ZM2.08325 14.0187C1.93925 14.0187 1.82275 14.1352 1.82275 14.2792C1.82275 14.4232 1.9395 14.54 2.08325 14.54C2.227 14.54 2.34375 14.4232 2.34375 14.2792C2.34375 14.1352 2.22725 14.0187 2.08325 14.0187ZM3.31125 14.54C3.45525 14.54 3.57175 14.4232 3.57175 14.2792C3.57175 14.1352 3.455 14.0187 3.31125 14.0187C3.1675 14.0187 3.05075 14.1352 3.05075 14.2792C3.05075 14.4232 3.16725 14.54 3.31125 14.54ZM2.08325 15.2465C1.93925 15.2465 1.82275 15.3632 1.82275 15.507C1.82275 15.651 1.9395 15.7675 2.08325 15.7675C2.227 15.7675 2.34375 15.651 2.34375 15.507C2.344 15.3632 2.22725 15.2465 2.08325 15.2465ZM3.31125 15.7675C3.45525 15.7675 3.57175 15.651 3.57175 15.507C3.57175 15.3632 3.455 15.2465 3.31125 15.2465C3.1675 15.2465 3.05075 15.3632 3.05075 15.507C3.0505 15.651 3.16725 15.7675 3.31125 15.7675ZM7.6055 15.1537C7.7495 15.1537 7.866 15.037 7.866 14.8932C7.866 14.7492 7.7495 14.6325 7.6055 14.6325C7.4615 14.6325 7.34475 14.7492 7.34475 14.8932C7.34475 15.037 7.4615 15.1537 7.6055 15.1537ZM6.99375 14.54C7.13775 14.54 7.2545 14.4232 7.2545 14.2792C7.2545 14.1352 7.13775 14.0187 6.99375 14.0187C6.84975 14.0187 6.733 14.1352 6.733 14.2792C6.733 14.4232 6.84975 14.54 6.99375 14.54ZM6.99375 15.7675C7.13775 15.7675 7.2545 15.651 7.2545 15.507C7.2545 15.3632 7.13775 15.2465 6.99375 15.2465C6.84975 15.2465 6.733 15.3632 6.733 15.507C6.733 15.651 6.84975 15.7675 6.99375 15.7675ZM8.2205 14.54C8.36475 14.54 8.481 14.4232 8.481 14.2792C8.481 14.1352 8.3645 14.0187 8.2205 14.0187C8.0765 14.0187 7.96 14.1352 7.96 14.2792C7.96 14.4232 8.07675 14.54 8.2205 14.54ZM8.2205 15.7675C8.36475 15.7675 8.481 15.651 8.481 15.507C8.481 15.3632 8.3645 15.2465 8.2205 15.2465C8.0765 15.2465 7.96 15.3632 7.96 15.507C7.96 15.651 8.07675 15.7675 8.2205 15.7675ZM11.9023 14.54C12.0463 14.54 12.1628 14.4232 12.1628 14.2792C12.1628 14.1352 12.046 14.0187 11.9023 14.0187C11.7585 14.0187 11.6418 14.1352 11.6418 14.2792C11.6418 14.4232 11.7585 14.54 11.9023 14.54ZM11.9023 15.7675C12.0463 15.7675 12.1628 15.651 12.1628 15.507C12.1628 15.3632 12.046 15.2465 11.9023 15.2465C11.7585 15.2465 11.6418 15.3632 11.6418 15.507C11.6418 15.651 11.7585 15.7675 11.9023 15.7675ZM2.08325 16.4727C1.93925 16.4727 1.82275 16.5898 1.82275 16.7335C1.82275 16.8775 1.9395 16.9942 2.08325 16.9942C2.227 16.9942 2.34375 16.8775 2.34375 16.7335C2.344 16.5895 2.22725 16.4727 2.08325 16.4727ZM3.31125 16.9942C3.45525 16.9942 3.57175 16.8775 3.57175 16.7335C3.57175 16.5898 3.455 16.4727 3.31125 16.4727C3.1675 16.4727 3.05075 16.5898 3.05075 16.7335C3.0505 16.8775 3.16725 16.9942 3.31125 16.9942ZM4.53825 16.4727C4.39425 16.4727 4.2775 16.5898 4.2775 16.7335C4.2775 16.8775 4.39425 16.9942 4.53825 16.9942C4.68225 16.9942 4.79875 16.8775 4.79875 16.7335C4.79875 16.5895 4.68225 16.4727 4.53825 16.4727ZM7.6055 16.3803C7.7495 16.3803 7.866 16.2635 7.866 16.1195C7.866 15.9757 7.7495 15.859 7.6055 15.859C7.4615 15.859 7.34475 15.9757 7.34475 16.1195C7.34475 16.2635 7.4615 16.3803 7.6055 16.3803ZM5.766 16.4727C5.62175 16.4727 5.5055 16.5898 5.5055 16.7335C5.5055 16.8775 5.62175 16.9942 5.766 16.9942C5.90975 16.9942 6.0265 16.8775 6.0265 16.7335C6.0265 16.5895 5.90975 16.4727 5.766 16.4727ZM6.99375 16.9942C7.13775 16.9942 7.2545 16.8775 7.2545 16.7335C7.2545 16.5898 7.13775 16.4727 6.99375 16.4727C6.84975 16.4727 6.733 16.5898 6.733 16.7335C6.733 16.8775 6.84975 16.9942 6.99375 16.9942ZM8.2205 16.9942C8.36475 16.9942 8.481 16.8775 8.481 16.7335C8.481 16.5898 8.3645 16.4727 8.2205 16.4727C8.0765 16.4727 7.96 16.5898 7.96 16.7335C7.96 16.8775 8.07675 16.9942 8.2205 16.9942ZM9.44775 16.4727C9.30375 16.4727 9.18725 16.5898 9.18725 16.7335C9.18725 16.8775 9.30375 16.9942 9.44775 16.9942C9.5915 16.9942 9.70825 16.8775 9.70825 16.7335C9.70825 16.5895 9.5915 16.4727 9.44775 16.4727ZM10.6755 16.4727C10.5315 16.4727 10.415 16.5898 10.415 16.7335C10.415 16.8775 10.5317 16.9942 10.6755 16.9942C10.8193 16.9942 10.936 16.8775 10.936 16.7335C10.936 16.5895 10.8193 16.4727 10.6755 16.4727ZM11.9023 16.9942C12.0463 16.9942 12.1628 16.8775 12.1628 16.7335C12.1628 16.5898 12.046 16.4727 11.9023 16.4727C11.7585 16.4727 11.6418 16.5898 11.6418 16.7335C11.6418 16.8775 11.7585 16.9942 11.9023 16.9942ZM2.697 10.9508C2.553 10.9508 2.4365 11.0675 2.4365 11.2115C2.4365 11.3553 2.553 11.472 2.697 11.472C2.841 11.472 2.9575 11.3553 2.9575 11.2115C2.95775 11.0675 2.841 10.9508 2.697 10.9508ZM2.697 12.177C2.553 12.177 2.4365 12.2937 2.4365 12.4375C2.4365 12.5815 2.553 12.6982 2.697 12.6982C2.841 12.6982 2.9575 12.5815 2.9575 12.4375C2.95775 12.2937 2.841 12.177 2.697 12.177ZM2.697 13.4047C2.553 13.4047 2.4365 13.5215 2.4365 13.6655C2.4365 13.8093 2.553 13.926 2.697 13.926C2.841 13.926 2.9575 13.8093 2.9575 13.6655C2.95775 13.5215 2.841 13.4047 2.697 13.4047ZM2.697 17.0833C2.553 17.0833 2.4365 17.1998 2.4365 17.3438C2.4365 17.4875 2.553 17.6045 2.697 17.6045C2.841 17.6045 2.9575 17.4875 2.9575 17.3438C2.95775 17.1998 2.841 17.0833 2.697 17.0833ZM2.697 14.6325C2.553 14.6325 2.4365 14.7492 2.4365 14.8932C2.4365 15.037 2.553 15.1537 2.697 15.1537C2.841 15.1537 2.9575 15.037 2.9575 14.8932C2.95775 14.7492 2.841 14.6325 2.697 14.6325ZM2.697 15.859C2.553 15.859 2.4365 15.9757 2.4365 16.1195C2.4365 16.2635 2.553 16.3803 2.697 16.3803C2.841 16.3803 2.9575 16.2635 2.9575 16.1195C2.95775 15.9755 2.841 15.859 2.697 15.859ZM12.5168 10.2443C12.6608 10.2443 12.7773 10.1275 12.7773 9.9835C12.7773 9.83825 12.6608 9.72175 12.5168 9.72175C12.3728 9.72175 12.2563 9.83825 12.2563 9.98225C12.2563 10.1275 12.3728 10.2443 12.5168 10.2443ZM12.5168 11.472C12.6608 11.472 12.7773 11.3553 12.7773 11.2115C12.7773 11.0675 12.6608 10.9508 12.5168 10.9508C12.3728 10.9508 12.2563 11.0675 12.2563 11.2115C12.2563 11.3553 12.3728 11.472 12.5168 11.472ZM13.1307 10.858C13.2745 10.858 13.3912 10.7413 13.3912 10.5975C13.3912 10.4535 13.2745 10.337 13.1307 10.337C12.9867 10.337 12.87 10.4535 12.87 10.5975C12.87 10.7413 12.9867 10.858 13.1307 10.858ZM13.1307 12.086C13.2745 12.086 13.3912 11.9692 13.3912 11.8252C13.3912 11.6812 13.2745 11.5645 13.1307 11.5645C12.9867 11.5645 12.87 11.6812 12.87 11.8252C12.87 11.9692 12.9867 12.086 13.1307 12.086ZM16.8125 10.858C16.9565 10.858 17.0732 10.7413 17.0732 10.5975C17.0732 10.4535 16.9565 10.337 16.8125 10.337C16.6685 10.337 16.5518 10.4535 16.5518 10.5975C16.5518 10.7413 16.6685 10.858 16.8125 10.858ZM18.0403 10.858C18.184 10.858 18.3008 10.7413 18.3008 10.5975C18.3008 10.4535 18.184 10.337 18.0403 10.337C17.8965 10.337 17.7798 10.4535 17.7798 10.5975C17.7798 10.7413 17.8965 10.858 18.0403 10.858ZM16.8125 12.086C16.9565 12.086 17.0732 11.9692 17.0732 11.8252C17.0732 11.6812 16.9565 11.5645 16.8125 11.5645C16.6685 11.5645 16.5518 11.6812 16.5518 11.8252C16.5518 11.9692 16.6685 12.086 16.8125 12.086ZM18.0403 12.086C18.184 12.086 18.3008 11.9692 18.3008 11.8252C18.3008 11.6812 18.184 11.5645 18.0403 11.5645C17.8965 11.5645 17.7798 11.6812 17.7798 11.8252C17.7798 11.9692 17.8965 12.086 18.0403 12.086ZM22.3345 10.2443C22.4785 10.2443 22.595 10.1275 22.595 9.9835C22.595 9.83825 22.4785 9.72175 22.3345 9.72175C22.1905 9.72175 22.0737 9.83825 22.0737 9.98225C22.0737 10.1275 22.1905 10.2443 22.3345 10.2443ZM22.3345 11.472C22.4785 11.472 22.595 11.3553 22.595 11.2115C22.595 11.0675 22.4785 10.9508 22.3345 10.9508C22.1905 10.9508 22.0737 11.0675 22.0737 11.2115C22.0737 11.3553 22.1905 11.472 22.3345 11.472ZM21.723 10.858C21.8667 10.858 21.9837 10.7413 21.9837 10.5975C21.9837 10.4535 21.8667 10.337 21.723 10.337C21.579 10.337 21.462 10.4535 21.462 10.5975C21.462 10.7413 21.5787 10.858 21.723 10.858ZM21.723 12.086C21.8667 12.086 21.9837 11.9692 21.9837 11.8252C21.9837 11.6812 21.8667 11.5645 21.723 11.5645C21.579 11.5645 21.462 11.6812 21.462 11.8252C21.462 11.9692 21.5787 12.086 21.723 12.086ZM22.9498 10.858C23.0938 10.858 23.2105 10.7413 23.2105 10.5975C23.2105 10.4535 23.0938 10.337 22.9498 10.337C22.8058 10.337 22.689 10.4535 22.689 10.5975C22.689 10.7413 22.8058 10.858 22.9498 10.858ZM22.9498 12.086C23.0938 12.086 23.2105 11.9692 23.2105 11.8252C23.2105 11.6812 23.0938 11.5645 22.9498 11.5645C22.8058 11.5645 22.689 11.6812 22.689 11.8252C22.689 11.9692 22.8058 12.086 22.9498 12.086ZM12.5168 12.6982C12.6608 12.6982 12.7773 12.5815 12.7773 12.4375C12.7773 12.2937 12.6608 12.177 12.5168 12.177C12.3728 12.177 12.2563 12.2937 12.2563 12.4375C12.2563 12.5815 12.3728 12.6982 12.5168 12.6982ZM13.1307 13.312C13.2745 13.312 13.3912 13.1953 13.3912 13.0515C13.3912 12.9075 13.2745 12.791 13.1307 12.791C12.9867 12.791 12.87 12.9075 12.87 13.0515C12.87 13.1953 12.9867 13.312 13.1307 13.312ZM14.098 13.0515C14.098 13.1953 14.2147 13.312 14.3585 13.312C14.5025 13.312 14.6193 13.1953 14.6193 13.0515C14.6193 12.9075 14.5025 12.791 14.3585 12.791C14.2145 12.791 14.098 12.9075 14.098 13.0515ZM15.3247 13.0515C15.3247 13.1953 15.4415 13.312 15.5855 13.312C15.7295 13.312 15.8462 13.1953 15.8462 13.0515C15.8462 12.9075 15.7295 12.791 15.5855 12.791C15.4415 12.791 15.3247 12.9075 15.3247 13.0515ZM16.8125 13.312C16.9565 13.312 17.0732 13.1953 17.0732 13.0515C17.0732 12.9075 16.9565 12.791 16.8125 12.791C16.6685 12.791 16.5518 12.9075 16.5518 13.0515C16.5518 13.1953 16.6685 13.312 16.8125 13.312ZM18.0403 13.312C18.184 13.312 18.3008 13.1953 18.3008 13.0515C18.3008 12.9075 18.184 12.791 18.0403 12.791C17.8965 12.791 17.7798 12.9075 17.7798 13.0515C17.7798 13.1953 17.8965 13.312 18.0403 13.312ZM19.2673 12.791C19.1235 12.791 19.0065 12.9075 19.0065 13.0515C19.0065 13.1953 19.1235 13.312 19.2673 13.312C19.411 13.312 19.5278 13.1953 19.5278 13.0515C19.5278 12.9075 19.4112 12.791 19.2673 12.791ZM22.3345 12.6982C22.4785 12.6982 22.595 12.5815 22.595 12.4375C22.595 12.2937 22.4785 12.177 22.3345 12.177C22.1905 12.177 22.0737 12.2937 22.0737 12.4375C22.0737 12.5815 22.1905 12.6982 22.3345 12.6982ZM20.495 12.791C20.351 12.791 20.2342 12.9075 20.2342 13.0515C20.2342 13.1953 20.351 13.312 20.495 13.312C20.6388 13.312 20.7555 13.1953 20.7555 13.0515C20.7555 12.9075 20.639 12.791 20.495 12.791ZM21.723 13.312C21.8667 13.312 21.9837 13.1953 21.9837 13.0515C21.9837 12.9075 21.8667 12.791 21.723 12.791C21.579 12.791 21.462 12.9075 21.462 13.0515C21.462 13.1953 21.5787 13.312 21.723 13.312ZM22.9498 13.312C23.0938 13.312 23.2105 13.1953 23.2105 13.0515C23.2105 12.9075 23.0938 12.791 22.9498 12.791C22.8058 12.791 22.689 12.9075 22.689 13.0515C22.689 13.1953 22.8058 13.312 22.9498 13.312ZM12.5168 13.926C12.6608 13.926 12.7773 13.8093 12.7773 13.6655C12.7773 13.5215 12.6608 13.4047 12.5168 13.4047C12.3728 13.4047 12.2563 13.5215 12.2563 13.6655C12.2563 13.8093 12.3728 13.926 12.5168 13.926ZM18.6518 13.926C18.7957 13.926 18.9125 13.8093 18.9125 13.6655C18.9125 13.5215 18.7957 13.4047 18.6518 13.4047C18.508 13.4047 18.3913 13.5215 18.3913 13.6655C18.3913 13.8093 18.508 13.926 18.6518 13.926ZM19.88 13.4047C19.736 13.4047 19.6192 13.5215 19.6192 13.6655C19.6192 13.8093 19.736 13.926 19.88 13.926C20.024 13.926 20.1405 13.8093 20.1405 13.6655C20.1405 13.5215 20.024 13.4047 19.88 13.4047ZM21.109 13.4047C20.965 13.4047 20.8485 13.5215 20.8485 13.6655C20.8485 13.8093 20.965 13.926 21.109 13.926C21.253 13.926 21.3697 13.8093 21.3697 13.6655C21.3697 13.5215 21.253 13.4047 21.109 13.4047ZM22.3345 13.926C22.4785 13.926 22.595 13.8093 22.595 13.6655C22.595 13.5215 22.4785 13.4047 22.3345 13.4047C22.1905 13.4047 22.0737 13.5215 22.0737 13.6655C22.0737 13.8093 22.1905 13.926 22.3345 13.926ZM12.5168 17.6045C12.6608 17.6045 12.7773 17.4875 12.7773 17.3438C12.7773 17.1998 12.6608 17.0833 12.5168 17.0833C12.3728 17.0833 12.2563 17.1998 12.2563 17.3438C12.2563 17.4875 12.3728 17.6045 12.5168 17.6045ZM14.9703 17.0833C14.8263 17.0833 14.7095 17.1998 14.7095 17.3438C14.7095 17.4875 14.8263 17.6045 14.9703 17.6045C15.1143 17.6045 15.231 17.4875 15.231 17.3438C15.231 17.1998 15.1143 17.0833 14.9703 17.0833ZM16.1982 17.0833C16.0543 17.0833 15.9375 17.1998 15.9375 17.3438C15.9375 17.4875 16.0543 17.6045 16.1982 17.6045C16.342 17.6045 16.4587 17.4875 16.4587 17.3438C16.4587 17.1998 16.342 17.0833 16.1982 17.0833ZM13.1307 18.2183C13.2745 18.2183 13.3912 18.1015 13.3912 17.9575C13.3912 17.8138 13.2745 17.697 13.1307 17.697C12.9867 17.697 12.87 17.8138 12.87 17.9575C12.87 18.1015 12.9867 18.2183 13.1307 18.2183ZM14.3585 17.697C14.2147 17.697 14.098 17.8138 14.098 17.9575C14.098 18.1015 14.2147 18.2183 14.3585 18.2183C14.5025 18.2183 14.6193 18.1015 14.6193 17.9575C14.6193 17.8138 14.5025 17.697 14.3585 17.697ZM15.5855 17.697C15.4415 17.697 15.3247 17.8138 15.3247 17.9575C15.3247 18.1015 15.4415 18.2183 15.5855 18.2183C15.7295 18.2183 15.8462 18.1015 15.8462 17.9575C15.8462 17.8138 15.7295 17.697 15.5855 17.697ZM18.6518 17.6045C18.7957 17.6045 18.9125 17.4875 18.9125 17.3438C18.9125 17.1998 18.7957 17.0833 18.6518 17.0833C18.508 17.0833 18.3913 17.1998 18.3913 17.3438C18.3913 17.4875 18.508 17.6045 18.6518 17.6045ZM19.88 17.0833C19.736 17.0833 19.6192 17.1998 19.6192 17.3438C19.6192 17.4875 19.736 17.6045 19.88 17.6045C20.0237 17.6045 20.1405 17.4875 20.1405 17.3438C20.1405 17.1998 20.0237 17.0833 19.88 17.0833ZM16.8125 18.2183C16.9565 18.2183 17.0732 18.1015 17.0732 17.9575C17.0732 17.8138 16.9565 17.697 16.8125 17.697C16.6685 17.697 16.5518 17.8138 16.5518 17.9575C16.5518 18.1015 16.6685 18.2183 16.8125 18.2183ZM18.0403 18.2183C18.184 18.2183 18.3008 18.1015 18.3008 17.9575C18.3008 17.8138 18.184 17.697 18.0403 17.697C17.8965 17.697 17.7798 17.8138 17.7798 17.9575C17.7798 18.1015 17.8965 18.2183 18.0403 18.2183ZM19.2673 17.697C19.1235 17.697 19.0065 17.8138 19.0065 17.9575C19.0065 18.1015 19.1235 18.2183 19.2673 18.2183C19.411 18.2183 19.5278 18.1015 19.5278 17.9575C19.5278 17.8138 19.4112 17.697 19.2673 17.697ZM21.109 17.0833C20.965 17.0833 20.8485 17.1998 20.8485 17.3438C20.8485 17.4875 20.965 17.6045 21.109 17.6045C21.253 17.6045 21.3697 17.4875 21.3697 17.3438C21.3697 17.1998 21.253 17.0833 21.109 17.0833ZM22.3345 17.6045C22.4785 17.6045 22.595 17.4875 22.595 17.3438C22.595 17.1998 22.4785 17.0833 22.3345 17.0833C22.1905 17.0833 22.0737 17.1998 22.0737 17.3438C22.0737 17.4875 22.1905 17.6045 22.3345 17.6045ZM20.495 17.697C20.351 17.697 20.2342 17.8138 20.2342 17.9575C20.2342 18.1015 20.351 18.2183 20.495 18.2183C20.6388 18.2183 20.7555 18.1015 20.7555 17.9575C20.7555 17.8138 20.639 17.697 20.495 17.697ZM21.723 18.2183C21.8667 18.2183 21.9837 18.1015 21.9837 17.9575C21.9837 17.8138 21.8667 17.697 21.723 17.697C21.579 17.697 21.462 17.8138 21.462 17.9575C21.462 18.1015 21.5787 18.2183 21.723 18.2183ZM22.9498 18.2183C23.0938 18.2183 23.2105 18.1015 23.2105 17.9575C23.2105 17.8138 23.0938 17.697 22.9498 17.697C22.8058 17.697 22.689 17.8138 22.689 17.9575C22.689 18.1015 22.8058 18.2183 22.9498 18.2183ZM12.5168 15.1537C12.6608 15.1537 12.7773 15.037 12.7773 14.8932C12.7773 14.7492 12.6608 14.6325 12.5168 14.6325C12.3728 14.6325 12.2563 14.7492 12.2563 14.8932C12.2563 15.037 12.3728 15.1537 12.5168 15.1537ZM13.1307 14.54C13.2745 14.54 13.3912 14.4232 13.3912 14.2792C13.3912 14.1352 13.2745 14.0187 13.1307 14.0187C12.9867 14.0187 12.87 14.1352 12.87 14.2792C12.87 14.4232 12.9867 14.54 13.1307 14.54ZM13.1307 15.7675C13.2745 15.7675 13.3912 15.651 13.3912 15.507C13.3912 15.3632 13.2745 15.2465 13.1307 15.2465C12.9867 15.2465 12.87 15.3632 12.87 15.507C12.87 15.651 12.9867 15.7675 13.1307 15.7675ZM18.6518 15.1537C18.7957 15.1537 18.9125 15.037 18.9125 14.8932C18.9125 14.7492 18.7957 14.6325 18.6518 14.6325C18.508 14.6325 18.3913 14.7492 18.3913 14.8932C18.3913 15.037 18.508 15.1537 18.6518 15.1537ZM19.88 14.6325C19.736 14.6325 19.6192 14.7492 19.6192 14.8932C19.6192 15.037 19.736 15.1537 19.88 15.1537C20.024 15.1537 20.1405 15.037 20.1405 14.8932C20.1405 14.7492 20.024 14.6325 19.88 14.6325ZM16.8125 14.54C16.9565 14.54 17.0732 14.4232 17.0732 14.2792C17.0732 14.1352 16.9565 14.0187 16.8125 14.0187C16.6685 14.0187 16.5518 14.1352 16.5518 14.2792C16.5518 14.4232 16.6685 14.54 16.8125 14.54ZM18.0403 14.54C18.184 14.54 18.3008 14.4232 18.3008 14.2792C18.3008 14.1352 18.184 14.0187 18.0403 14.0187C17.8965 14.0187 17.7798 14.1352 17.7798 14.2792C17.7798 14.4232 17.8965 14.54 18.0403 14.54ZM16.8125 15.7675C16.9565 15.7675 17.0732 15.651 17.0732 15.507C17.0732 15.3632 16.9565 15.2465 16.8125 15.2465C16.6685 15.2465 16.5518 15.3632 16.5518 15.507C16.5518 15.651 16.6685 15.7675 16.8125 15.7675ZM18.0403 15.7675C18.184 15.7675 18.3008 15.651 18.3008 15.507C18.3008 15.3632 18.184 15.2465 18.0403 15.2465C17.8965 15.2465 17.7798 15.3632 17.7798 15.507C17.7798 15.651 17.8965 15.7675 18.0403 15.7675ZM19.2673 14.0187C19.1235 14.0187 19.0065 14.1352 19.0065 14.2792C19.0065 14.4232 19.1235 14.54 19.2673 14.54C19.411 14.54 19.5278 14.4232 19.5278 14.2792C19.5278 14.1352 19.4112 14.0187 19.2673 14.0187ZM19.2673 15.2465C19.1235 15.2465 19.0065 15.3632 19.0065 15.507C19.0065 15.651 19.1235 15.7675 19.2673 15.7675C19.411 15.7675 19.5278 15.651 19.5278 15.507C19.5278 15.3632 19.4112 15.2465 19.2673 15.2465ZM22.3345 15.1537C22.4785 15.1537 22.595 15.037 22.595 14.8932C22.595 14.7492 22.4785 14.6325 22.3345 14.6325C22.1905 14.6325 22.0737 14.7492 22.0737 14.8932C22.0737 15.037 22.1905 15.1537 22.3345 15.1537ZM21.109 14.6325C20.965 14.6325 20.8485 14.7492 20.8485 14.8932C20.8485 15.037 20.965 15.1537 21.109 15.1537C21.253 15.1537 21.3697 15.037 21.3697 14.8932C21.3697 14.7492 21.253 14.6325 21.109 14.6325ZM20.495 14.0187C20.351 14.0187 20.2342 14.1352 20.2342 14.2792C20.2342 14.4232 20.351 14.54 20.495 14.54C20.6388 14.54 20.7555 14.4232 20.7555 14.2792C20.7555 14.1352 20.639 14.0187 20.495 14.0187ZM21.723 14.54C21.8667 14.54 21.9837 14.4232 21.9837 14.2792C21.9837 14.1352 21.8667 14.0187 21.723 14.0187C21.579 14.0187 21.462 14.1352 21.462 14.2792C21.462 14.4232 21.5787 14.54 21.723 14.54ZM20.495 15.2465C20.351 15.2465 20.2342 15.3632 20.2342 15.507C20.2342 15.651 20.351 15.7675 20.495 15.7675C20.6388 15.7675 20.7555 15.651 20.7555 15.507C20.7555 15.3632 20.639 15.2465 20.495 15.2465ZM21.723 15.7675C21.8667 15.7675 21.9837 15.651 21.9837 15.507C21.9837 15.3632 21.8667 15.2465 21.723 15.2465C21.579 15.2465 21.462 15.3632 21.462 15.507C21.462 15.651 21.5787 15.7675 21.723 15.7675ZM22.9498 14.54C23.0938 14.54 23.2105 14.4232 23.2105 14.2792C23.2105 14.1352 23.0938 14.0187 22.9498 14.0187C22.8058 14.0187 22.689 14.1352 22.689 14.2792C22.689 14.4232 22.8058 14.54 22.9498 14.54ZM22.9498 15.7675C23.0938 15.7675 23.2105 15.651 23.2105 15.507C23.2105 15.3632 23.0938 15.2465 22.9498 15.2465C22.8058 15.2465 22.689 15.3632 22.689 15.507C22.689 15.651 22.8058 15.7675 22.9498 15.7675ZM12.5168 16.3803C12.6608 16.3803 12.7773 16.2635 12.7773 16.1195C12.7773 15.9757 12.6608 15.859 12.5168 15.859C12.3728 15.859 12.2563 15.9757 12.2563 16.1195C12.2563 16.2635 12.3728 16.3803 12.5168 16.3803ZM13.7443 17.6045C13.8883 17.6045 14.005 17.4875 14.005 17.3438C14.005 17.1998 13.8883 17.0833 13.7443 17.0833C13.6003 17.0833 13.4835 17.1998 13.4835 17.3438C13.4835 17.4875 13.6 17.6045 13.7443 17.6045ZM13.1307 16.9942C13.2745 16.9942 13.3912 16.8775 13.3912 16.7335C13.3912 16.5898 13.2745 16.4727 13.1307 16.4727C12.9867 16.4727 12.87 16.5898 12.87 16.7335C12.87 16.8775 12.9867 16.9942 13.1307 16.9942ZM14.3585 16.4727C14.2147 16.4727 14.098 16.5898 14.098 16.7335C14.098 16.8775 14.2147 16.9942 14.3585 16.9942C14.5025 16.9942 14.6193 16.8775 14.6193 16.7335C14.6193 16.5895 14.5025 16.4727 14.3585 16.4727ZM15.5855 16.4727C15.4415 16.4727 15.3247 16.5898 15.3247 16.7335C15.3247 16.8775 15.4415 16.9942 15.5855 16.9942C15.7295 16.9942 15.8462 16.8775 15.8462 16.7335C15.8462 16.5895 15.7295 16.4727 15.5855 16.4727ZM18.6518 16.3803C18.7957 16.3803 18.9125 16.2635 18.9125 16.1195C18.9125 15.9757 18.7957 15.859 18.6518 15.859C18.508 15.859 18.3913 15.9757 18.3913 16.1195C18.3913 16.2635 18.508 16.3803 18.6518 16.3803ZM19.88 15.859C19.736 15.859 19.6192 15.9757 19.6192 16.1195C19.6192 16.2635 19.736 16.3803 19.88 16.3803C20.024 16.3803 20.1405 16.2635 20.1405 16.1195C20.1405 15.9755 20.024 15.859 19.88 15.859ZM16.8125 16.9942C16.9565 16.9942 17.0732 16.8775 17.0732 16.7335C17.0732 16.5898 16.9565 16.4727 16.8125 16.4727C16.6685 16.4727 16.5518 16.5898 16.5518 16.7335C16.5518 16.8775 16.6685 16.9942 16.8125 16.9942ZM18.0403 16.9942C18.184 16.9942 18.3008 16.8775 18.3008 16.7335C18.3008 16.5898 18.184 16.4727 18.0403 16.4727C17.8965 16.4727 17.7798 16.5898 17.7798 16.7335C17.7798 16.8775 17.8965 16.9942 18.0403 16.9942ZM19.2673 16.4727C19.1235 16.4727 19.0065 16.5898 19.0065 16.7335C19.0065 16.8775 19.1235 16.9942 19.2673 16.9942C19.411 16.9942 19.5278 16.8775 19.5278 16.7335C19.5278 16.5895 19.4112 16.4727 19.2673 16.4727ZM22.3345 16.3803C22.4785 16.3803 22.595 16.2635 22.595 16.1195C22.595 15.9757 22.4785 15.859 22.3345 15.859C22.1905 15.859 22.0737 15.9757 22.0737 16.1195C22.0737 16.2635 22.1905 16.3803 22.3345 16.3803ZM21.109 15.859C20.965 15.859 20.8485 15.9757 20.8485 16.1195C20.8485 16.2635 20.965 16.3803 21.109 16.3803C21.253 16.3803 21.3697 16.2635 21.3697 16.1195C21.3697 15.9755 21.253 15.859 21.109 15.859ZM20.495 16.4727C20.351 16.4727 20.2342 16.5898 20.2342 16.7335C20.2342 16.8775 20.351 16.9942 20.495 16.9942C20.6388 16.9942 20.7555 16.8775 20.7555 16.7335C20.7555 16.5895 20.639 16.4727 20.495 16.4727ZM21.723 16.9942C21.8667 16.9942 21.9837 16.8775 21.9837 16.7335C21.9837 16.5898 21.8667 16.4727 21.723 16.4727C21.579 16.4727 21.462 16.5898 21.462 16.7335C21.462 16.8775 21.5787 16.9942 21.723 16.9942ZM22.9498 16.9942C23.0938 16.9942 23.2105 16.8775 23.2105 16.7335C23.2105 16.5898 23.0938 16.4727 22.9498 16.4727C22.8058 16.4727 22.689 16.5898 22.689 16.7335C22.689 16.8775 22.8058 16.9942 22.9498 16.9942ZM17.426 10.2443C17.57 10.2443 17.6868 10.1275 17.6868 9.9835C17.6868 9.83825 17.57 9.72175 17.426 9.72175C17.2823 9.72175 17.1655 9.83825 17.1655 9.98225C17.1655 10.1275 17.2823 10.2443 17.426 10.2443ZM17.426 11.472C17.57 11.472 17.6868 11.3553 17.6868 11.2115C17.6868 11.0675 17.57 10.9508 17.426 10.9508C17.2823 10.9508 17.1655 11.0675 17.1655 11.2115C17.1655 11.3553 17.2823 11.472 17.426 11.472ZM17.426 12.6982C17.57 12.6982 17.6868 12.5815 17.6868 12.4375C17.6868 12.2937 17.57 12.177 17.426 12.177C17.2823 12.177 17.1655 12.2937 17.1655 12.4375C17.1655 12.5815 17.2823 12.6982 17.426 12.6982ZM17.426 13.926C17.57 13.926 17.6868 13.8093 17.6868 13.6655C17.6868 13.5215 17.57 13.4047 17.426 13.4047C17.2823 13.4047 17.1655 13.5215 17.1655 13.6655C17.1655 13.8093 17.2823 13.926 17.426 13.926ZM17.426 17.6045C17.57 17.6045 17.6868 17.4875 17.6868 17.3438C17.6868 17.1998 17.57 17.0833 17.426 17.0833C17.2823 17.0833 17.1655 17.1998 17.1655 17.3438C17.1655 17.4875 17.2823 17.6045 17.426 17.6045ZM17.426 15.1537C17.57 15.1537 17.6868 15.037 17.6868 14.8932C17.6868 14.7492 17.57 14.6325 17.426 14.6325C17.2823 14.6325 17.1655 14.7492 17.1655 14.8932C17.1655 15.037 17.2823 15.1537 17.426 15.1537ZM17.426 16.3803C17.57 16.3803 17.6868 16.2635 17.6868 16.1195C17.6868 15.9757 17.57 15.859 17.426 15.859C17.2823 15.859 17.1655 15.9757 17.1655 16.1195C17.1655 16.2635 17.2823 16.3803 17.426 16.3803ZM16.25 6.25H13.75V8.75H16.25V6.25ZM16.25 13.75H13.75V16.25H16.25V13.75ZM11.25 13.75H8.75V16.25H11.25V13.75ZM13.75 12.5H16.25V10H13.75V12.5ZM3.75 12.5H6.25V10H3.75V12.5ZM21.25 10H18.75V12.5H21.25V10ZM25 1.25V20H0V1.25H2.5V0H3.75V1.25H6.25V0H7.5V1.25H10V0H11.25V1.25H13.75V0H15V1.25H17.5V0H18.75V1.25H21.25V0H22.5V1.25H25ZM2.5 3.75V2.5H1.701C1.71875 2.53525 1.72975 2.57425 1.72975 2.6165C1.72975 2.76025 1.613 2.87725 1.46925 2.87725C1.377 2.87725 1.29675 2.82925 1.25025 2.757V3.70375C1.29675 3.63175 1.377 3.58375 1.46925 3.58375C1.61325 3.58375 1.72975 3.7005 1.72975 3.8445C1.72975 3.9885 1.613 4.10525 1.46925 4.10525C1.377 4.10525 1.29675 4.05725 1.25025 3.985V4.93025C1.29675 4.85825 1.377 4.81025 1.46925 4.81025C1.61325 4.81025 1.72975 4.927 1.72975 5.071C1.72975 5.21475 1.613 5.3315 1.46925 5.3315C1.377 5.3315 1.29675 5.2835 1.25025 5.21125V6.15825C1.29675 6.08625 1.377 6.03825 1.46925 6.03825C1.61325 6.03825 1.72975 6.155 1.72975 6.29875C1.72975 6.44275 1.613 6.5595 1.46925 6.5595C1.377 6.5595 1.29675 6.5115 1.25025 6.43925V7.38775C1.29675 7.31575 1.377 7.26775 1.46925 7.26775C1.61325 7.26775 1.72975 7.3845 1.72975 7.52825C1.72975 7.6725 1.613 7.789 1.46925 7.789C1.377 7.789 1.29675 7.741 1.25025 7.669V8.61425C1.29675 8.54225 1.377 8.49425 1.46925 8.49425C1.61325 8.49425 1.72975 8.611 1.72975 8.755C1.72975 8.89875 1.613 9.0155 1.46925 9.0155C1.377 9.0155 1.29675 8.9675 1.25025 8.8955V9.84225C1.29675 9.77025 1.377 9.7225 1.46925 9.7225C1.61325 9.7225 1.72975 9.839 1.72975 9.98425C1.72975 10.1283 1.613 10.245 1.46925 10.245C1.377 10.245 1.29675 10.197 1.25025 10.125V11.0717C1.29675 10.9998 1.377 10.9517 1.46925 10.9517C1.61325 10.9517 1.72975 11.0685 1.72975 11.2125C1.72975 11.3562 1.613 11.473 1.46925 11.473C1.377 11.473 1.29675 11.425 1.25025 11.353V12.2983C1.29675 12.2263 1.377 12.1783 1.46925 12.1783C1.61325 12.1783 1.72975 12.295 1.72975 12.4388C1.72975 12.5828 1.613 12.6995 1.46925 12.6995C1.377 12.6995 1.29675 12.6515 1.25025 12.5795V13.525C1.29675 13.453 1.377 13.405 1.46925 13.405C1.61325 13.405 1.72975 13.5218 1.72975 13.6658C1.72975 13.8095 1.613 13.9263 1.46925 13.9263C1.377 13.9263 1.29675 13.8782 1.25025 13.8062V14.753C1.29675 14.681 1.377 14.633 1.46925 14.633C1.61325 14.633 1.72975 14.7497 1.72975 14.8937C1.72975 15.0375 1.613 15.1542 1.46925 15.1542C1.377 15.1542 1.29675 15.1065 1.25025 15.0343V15.9795C1.29675 15.9072 1.377 15.8595 1.46925 15.8595C1.61325 15.8595 1.72975 15.9763 1.72975 16.12C1.72975 16.264 1.613 16.3808 1.46925 16.3808C1.377 16.3808 1.29675 16.3328 1.25025 16.2607V17.204C1.29675 17.132 1.377 17.084 1.46925 17.084C1.613 17.084 1.72975 17.2005 1.72975 17.3445C1.72975 17.4882 1.613 17.6052 1.46925 17.6052C1.377 17.6052 1.29675 17.5573 1.25025 17.4853V18.432C1.29675 18.3597 1.377 18.312 1.46925 18.312C1.61325 18.312 1.72975 18.4288 1.72975 18.5725C1.72975 18.6418 1.70225 18.7043 1.65825 18.751H2.508C2.464 18.7043 2.4365 18.6418 2.4365 18.5725C2.4365 18.4288 2.553 18.312 2.697 18.312C2.841 18.312 2.9575 18.4288 2.9575 18.5725C2.9575 18.6418 2.93 18.7043 2.886 18.751H3.7335C3.6895 18.7043 3.662 18.6418 3.662 18.5725C3.662 18.4288 3.7785 18.312 3.9225 18.312C4.0665 18.312 4.18325 18.4288 4.18325 18.5725C4.18325 18.6418 4.15575 18.7043 4.11175 18.751H4.96125C4.91725 18.7043 4.88975 18.6418 4.88975 18.5725C4.88975 18.4288 5.0065 18.312 5.1505 18.312C5.2945 18.312 5.411 18.4288 5.411 18.5725C5.411 18.6418 5.38375 18.7043 5.3395 18.751H6.19025C6.14625 18.7043 6.11875 18.6418 6.11875 18.5725C6.11875 18.4288 6.23525 18.312 6.37925 18.312C6.52325 18.312 6.63975 18.4288 6.63975 18.5725C6.63975 18.6418 6.61225 18.7043 6.56825 18.751H7.4155C7.3715 18.7043 7.344 18.6418 7.344 18.5725C7.344 18.4288 7.46075 18.312 7.60475 18.312C7.74875 18.312 7.86525 18.4288 7.86525 18.5725C7.86525 18.6418 7.83775 18.7043 7.79375 18.751H8.64325C8.59925 18.7043 8.57175 18.6418 8.57175 18.5725C8.57175 18.4288 8.6885 18.312 8.83225 18.312C8.976 18.312 9.09275 18.4288 9.09275 18.5725C9.09275 18.6418 9.06525 18.7043 9.02125 18.751H9.87125C9.82725 18.7043 9.79975 18.6418 9.79975 18.5725C9.79975 18.4288 9.9165 18.312 10.0603 18.312C10.2043 18.312 10.3208 18.4288 10.3208 18.5725C10.3208 18.6418 10.2935 18.7043 10.2493 18.751H11.0968C11.0528 18.7043 11.0253 18.6418 11.0253 18.5725C11.0253 18.4288 11.1418 18.312 11.2858 18.312C11.4298 18.312 11.5463 18.4288 11.5463 18.5725C11.5463 18.6418 11.5187 18.7043 11.4747 18.751H12.326C12.282 18.7043 12.2545 18.6418 12.2545 18.5725C12.2545 18.4288 12.371 18.312 12.515 18.312C12.659 18.312 12.7755 18.4288 12.7755 18.5725C12.7755 18.6418 12.7483 18.7043 12.704 18.751H13.5533C13.509 18.7043 13.4815 18.6418 13.4815 18.5725C13.4815 18.4288 13.5983 18.312 13.7423 18.312C13.8863 18.312 14.003 18.4288 14.003 18.5725C14.003 18.6418 13.9757 18.7043 13.9315 18.751H14.7795C14.7353 18.7043 14.7078 18.6418 14.7078 18.5725C14.7078 18.4288 14.8245 18.312 14.9685 18.312C15.1125 18.312 15.2292 18.4288 15.2292 18.5725C15.2292 18.6418 15.202 18.7043 15.1578 18.751H16.007C15.963 18.7043 15.9358 18.6418 15.9358 18.5725C15.9358 18.4288 16.0525 18.312 16.1965 18.312C16.3403 18.312 16.457 18.4288 16.457 18.5725C16.457 18.6418 16.4295 18.7043 16.3855 18.751H17.235C17.191 18.7043 17.1637 18.6418 17.1637 18.5725C17.1637 18.4288 17.2805 18.312 17.4242 18.312C17.5682 18.312 17.685 18.4288 17.685 18.5725C17.685 18.6418 17.6575 18.7043 17.6135 18.751H18.4613C18.4172 18.7043 18.3897 18.6418 18.3897 18.5725C18.3897 18.4288 18.5065 18.312 18.6502 18.312C18.7942 18.312 18.911 18.4288 18.911 18.5725C18.911 18.6418 18.8838 18.7043 18.8398 18.751H19.6887C19.6447 18.7043 19.6175 18.6418 19.6175 18.5725C19.6175 18.4288 19.7343 18.312 19.8783 18.312C20.0222 18.312 20.1388 18.4288 20.1388 18.5725C20.1388 18.6418 20.1112 18.7043 20.0672 18.751H20.9182C20.874 18.7043 20.8468 18.6418 20.8468 18.5725C20.8468 18.4288 20.9633 18.312 21.1073 18.312C21.2512 18.312 21.368 18.4288 21.368 18.5725C21.368 18.6418 21.3407 18.7043 21.2965 18.751H22.144C22.0995 18.7043 22.0723 18.6418 22.0723 18.5725C22.0723 18.4288 22.189 18.312 22.333 18.312C22.477 18.312 22.5935 18.4288 22.5935 18.5725C22.5935 18.6418 22.5662 18.7043 22.522 18.751H23.3715C23.3275 18.7043 23.3002 18.6418 23.3002 18.5725C23.3002 18.4288 23.417 18.312 23.5607 18.312C23.6347 18.312 23.7013 18.343 23.7485 18.3925V17.5247C23.7013 17.574 23.6347 17.6052 23.5607 17.6052C23.417 17.6052 23.3002 17.4882 23.3002 17.3445C23.3002 17.2005 23.417 17.084 23.5607 17.084C23.6347 17.084 23.7013 17.115 23.7485 17.1642V16.3002C23.7013 16.3497 23.6347 16.3808 23.5607 16.3808C23.417 16.3808 23.3002 16.264 23.3002 16.12C23.3002 15.9763 23.417 15.8595 23.5607 15.8595C23.6347 15.8595 23.7013 15.8905 23.7485 15.94V15.0737C23.7013 15.1233 23.6347 15.1542 23.5607 15.1542C23.417 15.1542 23.3002 15.0375 23.3002 14.8937C23.3002 14.7497 23.417 14.633 23.5607 14.633C23.6347 14.633 23.7013 14.664 23.7485 14.7135V13.8458C23.7013 13.8953 23.6347 13.9263 23.5607 13.9263C23.417 13.9263 23.3002 13.8095 23.3002 13.6658C23.3002 13.5218 23.417 13.405 23.5607 13.405C23.6347 13.405 23.7013 13.436 23.7485 13.4855V12.6178C23.7013 12.667 23.6347 12.6982 23.5607 12.6982C23.417 12.6982 23.3002 12.5815 23.3002 12.4375C23.3002 12.2937 23.417 12.177 23.5607 12.177C23.6347 12.177 23.7013 12.208 23.7485 12.2575V11.3912C23.7013 11.4408 23.6347 11.4718 23.5607 11.4718C23.417 11.4718 23.3002 11.355 23.3002 11.2113C23.3002 11.0673 23.417 10.9505 23.5607 10.9505C23.6347 10.9505 23.7013 10.9815 23.7485 11.031V10.1632C23.7013 10.2128 23.6347 10.2437 23.5607 10.2437C23.417 10.2437 23.3002 10.127 23.3002 9.98175C23.3002 9.83775 23.417 9.72125 23.5607 9.72125C23.6347 9.72125 23.7013 9.75225 23.7485 9.8015V8.934C23.7013 8.9835 23.6347 9.0145 23.5607 9.0145C23.417 9.0145 23.3002 8.89775 23.3002 8.754C23.3002 8.61 23.417 8.49325 23.5607 8.49325C23.6347 8.49325 23.7013 8.5245 23.7485 8.57375V7.70775C23.7013 7.757 23.6347 7.78825 23.5607 7.78825C23.417 7.78825 23.3002 7.67175 23.3002 7.5275C23.3002 7.3835 23.417 7.267 23.5607 7.267C23.6347 7.267 23.7013 7.29825 23.7485 7.3475V6.478C23.7013 6.5275 23.6347 6.5585 23.5607 6.5585C23.417 6.5585 23.3002 6.44175 23.3002 6.29775C23.3002 6.154 23.417 6.03725 23.5607 6.03725C23.6347 6.03725 23.7013 6.0685 23.7485 6.11775V5.25025C23.7013 5.2995 23.6347 5.33075 23.5607 5.33075C23.417 5.33075 23.3002 5.214 23.3002 5.07025C23.3002 4.92625 23.417 4.8095 23.5607 4.8095C23.6347 4.8095 23.7013 4.84075 23.7485 4.89V4.024C23.7013 4.0735 23.6347 4.1045 23.5607 4.1045C23.417 4.1045 23.3002 3.98775 23.3002 3.84375C23.3002 3.69975 23.417 3.583 23.5607 3.583C23.6347 3.583 23.7013 3.61425 23.7485 3.6635V2.796C23.7013 2.84525 23.6347 2.8765 23.5607 2.8765C23.417 2.8765 23.3002 2.7595 23.3002 2.61575C23.3002 2.57375 23.311 2.5345 23.3285 2.49925H22.5V3.74925H21.25V2.49925H20.1117C20.1292 2.5345 20.1402 2.5735 20.1402 2.61575C20.1402 2.7595 20.0235 2.8765 19.8797 2.8765C19.7358 2.8765 19.619 2.7595 19.619 2.61575C19.619 2.57375 19.6298 2.5345 19.6478 2.49925H18.75V3.74925H17.5V2.49925H16.4303C16.4478 2.5345 16.4587 2.5735 16.4587 2.61575C16.4587 2.7595 16.342 2.8765 16.1982 2.8765C16.0543 2.8765 15.9375 2.7595 15.9375 2.61575C15.9375 2.57375 15.9482 2.5345 15.9657 2.49925H15V3.74925H13.75V2.49925H12.7487C12.7665 2.5345 12.7773 2.5735 12.7773 2.61575C12.7773 2.7595 12.6608 2.8765 12.5168 2.8765C12.3728 2.8765 12.2563 2.7595 12.2563 2.61575C12.2563 2.57375 12.267 2.5345 12.2847 2.49925H11.25V3.74925H10V2.49925H9.06525C9.083 2.5345 9.09375 2.5735 9.09375 2.61575C9.09375 2.7595 8.977 2.8765 8.83325 2.8765C8.6895 2.8765 8.57275 2.7595 8.57275 2.61575C8.57275 2.57375 8.58375 2.5345 8.60125 2.49925H7.5V3.74925H6.25V2.49925H5.38275C5.4005 2.5345 5.41125 2.5735 5.41125 2.61575C5.41125 2.7595 5.2945 2.8765 5.15075 2.8765C5.00675 2.8765 4.89 2.7595 4.89 2.61575C4.89 2.57375 4.901 2.5345 4.9185 2.49925H3.75V3.74925H2.5V3.75ZM1.25 18.75H1.27975C1.26875 18.7383 1.25875 18.7255 1.25 18.7122V18.75ZM6.25 13.75H3.75V16.25H6.25V13.75ZM8.75 12.5H11.25V10H8.75V12.5ZM18.75 8.75H21.25V6.25H18.75V8.75Z" fill="#FFF503"/>
</svg>
