<svg width="158" height="38" viewBox="0 0 158 38" fill="none" xmlns="http://www.w3.org/2000/svg">
<path d="M109.412 1.84526C109.354 1.9415 109.295 2.01159 109.235 2.05552C109.174 2.09946 109.096 2.12142 109.001 2.12142C108.909 2.12142 108.81 2.08899 108.704 2.02414C108.598 1.95928 108.474 1.8892 108.333 1.81388C108.191 1.73856 108.029 1.66848 107.846 1.60362C107.663 1.53876 107.448 1.50634 107.203 1.50634C106.77 1.50634 106.446 1.60362 106.229 1.79819C106.013 1.99276 105.905 2.24695 105.905 2.56077C105.905 2.76162 105.964 2.92794 106.083 3.05974C106.201 3.19155 106.357 3.30557 106.551 3.40181C106.744 3.49805 106.964 3.58382 107.209 3.65914C107.455 3.73446 107.706 3.8171 107.964 3.90706C108.222 3.99702 108.474 4.10267 108.72 4.22402C108.965 4.34536 109.185 4.49808 109.378 4.68219C109.572 4.8663 109.728 5.0912 109.846 5.35691C109.965 5.62261 110.024 5.94584 110.024 6.32661C110.024 6.74085 109.952 7.12894 109.809 7.49088C109.665 7.85282 109.458 8.16873 109.188 8.43862C108.917 8.7085 108.583 8.92085 108.186 9.07567C107.789 9.23049 107.338 9.3079 106.835 9.3079C106.548 9.3079 106.261 9.27861 105.976 9.22003C105.691 9.16145 105.417 9.07985 105.153 8.97525C104.888 8.87064 104.64 8.74512 104.407 8.59867C104.174 8.45222 103.97 8.28903 103.795 8.10911L104.344 7.21786C104.39 7.15091 104.45 7.09547 104.525 7.05153C104.6 7.0076 104.679 6.98563 104.762 6.98563C104.875 6.98563 104.993 7.02747 105.118 7.11116C105.243 7.19484 105.387 7.2869 105.549 7.38732C105.711 7.48774 105.899 7.5798 106.114 7.66348C106.328 7.74717 106.585 7.78901 106.885 7.78901C107.322 7.78901 107.66 7.68859 107.899 7.48774C108.138 7.2869 108.258 6.98772 108.258 6.59022C108.258 6.36008 108.198 6.17388 108.08 6.03162C107.961 5.88935 107.806 5.7701 107.615 5.67386C107.423 5.57762 107.205 5.49499 106.96 5.42595C106.714 5.3569 106.462 5.28054 106.204 5.19686C105.946 5.11317 105.695 5.01275 105.449 4.89559C105.204 4.77843 104.985 4.62361 104.794 4.43114C104.602 4.23866 104.447 4.00016 104.329 3.71563C104.21 3.4311 104.151 3.07753 104.151 2.65492C104.151 2.31599 104.217 1.98753 104.35 1.66952C104.484 1.35152 104.679 1.06908 104.937 0.822208C105.195 0.575335 105.512 0.376585 105.889 0.22595C106.266 0.075316 106.697 0 107.184 0C107.729 0 108.234 0.0847305 108.698 0.254194C109.162 0.423658 109.554 0.65902 109.874 0.960289L109.412 1.84526ZM114.79 4.63198C115.377 4.63198 115.806 4.48972 116.079 4.20519C116.352 3.92066 116.488 3.53152 116.488 3.03778C116.488 2.81183 116.453 2.60575 116.385 2.41955C116.316 2.23335 116.212 2.07435 116.073 1.94255C115.933 1.81074 115.758 1.70927 115.545 1.63814C115.333 1.56701 115.081 1.53144 114.79 1.53144H113.604V4.63198H114.79ZM114.79 0.100422C115.41 0.100422 115.946 0.173646 116.397 0.320096C116.849 0.466546 117.22 0.670527 117.511 0.932045C117.803 1.19356 118.018 1.50424 118.157 1.86409C118.297 2.22394 118.367 2.61516 118.367 3.03778C118.367 3.48549 118.294 3.89555 118.148 4.26795C118.002 4.64035 117.782 4.96044 117.486 5.22824C117.191 5.49603 116.819 5.7042 116.369 5.85274C115.92 6.00128 115.393 6.07555 114.79 6.07555H113.604V9.20748H111.732V0.100422H114.79ZM122.739 4.41231C123.043 4.41231 123.305 4.3736 123.526 4.29619C123.746 4.21878 123.927 4.11209 124.069 3.9761C124.21 3.84011 124.314 3.68006 124.381 3.49595C124.447 3.31185 124.481 3.111 124.481 2.89342C124.481 2.46244 124.338 2.1277 124.053 1.8892C123.768 1.65069 123.334 1.53144 122.752 1.53144H121.778V4.41231H122.739ZM127.127 9.20748H125.436C125.119 9.20748 124.891 9.08613 124.749 8.84344L123.026 6.05045C122.956 5.94166 122.878 5.86216 122.792 5.81194C122.707 5.76173 122.581 5.73663 122.415 5.73663H121.778V9.20748H119.905V0.100422H122.752C123.384 0.100422 123.925 0.166324 124.375 0.298129C124.824 0.429934 125.192 0.612994 125.479 0.847314C125.766 1.08163 125.977 1.36093 126.11 1.68521C126.243 2.0095 126.309 2.3662 126.309 2.75534C126.309 3.05661 126.267 3.34218 126.182 3.61207C126.096 3.88195 125.972 4.12778 125.81 4.34954C125.648 4.57131 125.448 4.76797 125.211 4.93953C124.974 5.11108 124.703 5.24916 124.4 5.35377C124.52 5.42072 124.633 5.50126 124.737 5.59541C124.841 5.68955 124.934 5.80148 125.017 5.9312L127.127 9.20748ZM130.245 1.57538V3.91647H133.266V5.34121H130.245V7.73252H134.128V9.20748H128.36V0.100422H134.128V1.57538H130.245ZM137.757 1.57538V3.91647H140.778V5.34121H137.757V7.73252H141.64V9.20748H135.872V0.100422H141.64V1.57538H137.757ZM116.69 14.4465L113.882 23.5535H112.19L110.336 17.5972C110.307 17.5135 110.278 17.4215 110.249 17.3211C110.22 17.2206 110.193 17.1139 110.168 17.001C110.143 17.1139 110.116 17.2206 110.087 17.3211C110.057 17.4215 110.028 17.5135 109.999 17.5972L108.127 23.5535H106.429L103.626 14.4465H105.199C105.362 14.4465 105.498 14.4841 105.608 14.5594C105.718 14.6348 105.79 14.7352 105.824 14.8607L107.228 19.9948C107.261 20.1371 107.296 20.2908 107.331 20.4561C107.366 20.6214 107.401 20.7961 107.434 20.9802C107.471 20.7919 107.511 20.6162 107.552 20.453C107.594 20.2898 107.64 20.1371 107.69 19.9948L109.325 14.8607C109.358 14.7561 109.43 14.6609 109.54 14.5751C109.651 14.4894 109.785 14.4465 109.943 14.4465H110.492C110.655 14.4465 110.787 14.4852 110.889 14.5626C110.991 14.64 111.067 14.7394 111.116 14.8607L112.746 19.9948C112.796 20.1287 112.841 20.2741 112.883 20.431C112.924 20.5879 112.964 20.7543 113.001 20.93C113.035 20.7543 113.067 20.5879 113.098 20.431C113.129 20.2741 113.162 20.1287 113.195 19.9948L114.599 14.8607C114.628 14.7519 114.699 14.6557 114.812 14.572C114.924 14.4883 115.059 14.4465 115.217 14.4465H116.69ZM119.939 15.9214V18.2625H122.96V19.6873H119.939V22.0786H123.822V23.5535H118.054V14.4465H123.822V15.9214H119.939ZM128.4 18.7584C128.704 18.7584 128.966 18.7197 129.187 18.6422C129.407 18.5648 129.588 18.4581 129.73 18.3221C129.871 18.1862 129.975 18.0261 130.042 17.842C130.109 17.6579 130.142 17.4571 130.142 17.2395C130.142 16.8085 129.999 16.4738 129.714 16.2352C129.429 15.9967 128.996 15.8775 128.413 15.8775H127.439V18.7584H128.4ZM132.788 23.5535H131.097C130.781 23.5535 130.552 23.4322 130.41 23.1895L128.688 20.3965C128.617 20.2877 128.539 20.2082 128.454 20.158C128.368 20.1078 128.242 20.0827 128.076 20.0827H127.439V23.5535H125.567V14.4465H128.413C129.045 14.4465 129.586 14.5124 130.036 14.6442C130.485 14.776 130.853 14.959 131.141 15.1934C131.428 15.4277 131.638 15.707 131.771 16.0313C131.904 16.3555 131.971 16.7123 131.971 17.1014C131.971 17.4027 131.928 17.6882 131.843 17.9581C131.757 18.228 131.634 18.4738 131.471 18.6956C131.309 18.9174 131.109 19.114 130.872 19.2856C130.635 19.4571 130.365 19.5952 130.061 19.6998C130.181 19.7668 130.294 19.8473 130.398 19.9415C130.502 20.0356 130.595 20.1475 130.679 20.2772L132.788 23.5535ZM135.894 18.206H136.262C136.57 18.206 136.793 18.1098 136.93 17.9173L139.221 14.8356C139.329 14.6892 139.448 14.5877 139.577 14.5312C139.706 14.4747 139.864 14.4465 140.051 14.4465H141.674L138.79 18.1809C138.603 18.4236 138.409 18.5973 138.21 18.7019C138.355 18.7605 138.486 18.8368 138.603 18.931C138.719 19.0251 138.832 19.1496 138.94 19.3044L141.898 23.5535H140.232C140.124 23.5535 140.031 23.5452 139.954 23.5284C139.877 23.5117 139.81 23.4887 139.751 23.4594C139.693 23.4301 139.643 23.3935 139.602 23.3495C139.56 23.3056 139.52 23.2544 139.483 23.1958L137.155 19.9195C137.076 19.8065 136.982 19.726 136.874 19.6779C136.766 19.6297 136.614 19.6057 136.418 19.6057H135.894V23.5535H134.021V14.4465H135.894V18.206ZM109.412 30.5374C109.354 30.6336 109.295 30.7037 109.235 30.7476C109.174 30.7916 109.096 30.8135 109.001 30.8135C108.909 30.8135 108.81 30.7811 108.704 30.7162C108.598 30.6514 108.474 30.5813 108.333 30.506C108.191 30.4307 108.029 30.3606 107.846 30.2957C107.663 30.2309 107.448 30.1984 107.203 30.1984C106.77 30.1984 106.446 30.2957 106.229 30.4903C106.013 30.6849 105.905 30.9391 105.905 31.2529C105.905 31.4537 105.964 31.62 106.083 31.7518C106.201 31.8836 106.357 31.9977 106.551 32.0939C106.744 32.1902 106.964 32.2759 107.209 32.3512C107.455 32.4266 107.706 32.5092 107.964 32.5992C108.222 32.6891 108.474 32.7948 108.72 32.9161C108.965 33.0375 109.185 33.1902 109.378 33.3743C109.572 33.5584 109.728 33.7833 109.846 34.049C109.965 34.3147 110.024 34.6379 110.024 35.0187C110.024 35.433 109.952 35.821 109.809 36.183C109.665 36.5449 109.458 36.8608 109.188 37.1307C108.917 37.4006 108.583 37.613 108.186 37.7678C107.789 37.9226 107.338 38 106.835 38C106.548 38 106.261 37.9707 105.976 37.9121C105.691 37.8536 105.417 37.772 105.153 37.6674C104.888 37.5627 104.64 37.4372 104.407 37.2908C104.174 37.1443 103.97 36.9811 103.795 36.8012L104.344 35.91C104.39 35.843 104.45 35.7876 104.525 35.7436C104.6 35.6997 104.679 35.6777 104.762 35.6777C104.875 35.6777 104.993 35.7196 105.118 35.8033C105.243 35.8869 105.387 35.979 105.549 36.0794C105.711 36.1798 105.899 36.2719 106.114 36.3556C106.328 36.4393 106.585 36.4811 106.885 36.4811C107.322 36.4811 107.66 36.3807 107.899 36.1798C108.138 35.979 108.258 35.6798 108.258 35.2823C108.258 35.0522 108.198 34.866 108.08 34.7237C107.961 34.5815 107.806 34.4622 107.615 34.366C107.423 34.2697 107.205 34.1871 106.96 34.118C106.714 34.049 106.462 33.9726 106.204 33.889C105.946 33.8053 105.695 33.7049 105.449 33.5877C105.204 33.4705 104.985 33.3157 104.794 33.1232C104.602 32.9308 104.447 32.6923 104.329 32.4077C104.21 32.1232 104.151 31.7696 104.151 31.347C104.151 31.0081 104.217 30.6796 104.35 30.3616C104.484 30.0436 104.679 29.7612 104.937 29.5143C105.195 29.2674 105.512 29.0687 105.889 28.9181C106.266 28.7674 106.697 28.6921 107.184 28.6921C107.729 28.6921 108.234 28.7768 108.698 28.9463C109.162 29.1158 109.554 29.3511 109.874 29.6524L109.412 30.5374ZM118.142 30.3114H115.495V37.8996H113.617V30.3114H110.97V28.7925H118.142V30.3114ZM123.513 34.4413L122.533 31.6546C122.475 31.5081 122.414 31.3366 122.349 31.1399C122.285 30.9432 122.223 30.7298 122.165 30.4997C122.107 30.734 122.045 30.9506 121.981 31.1493C121.916 31.3481 121.855 31.5207 121.797 31.6671L120.823 34.4413H123.513ZM126.659 37.8996H125.205C125.042 37.8996 124.91 37.8609 124.808 37.7835C124.706 37.7061 124.63 37.6067 124.581 37.4853L123.969 35.7468H120.361L119.749 37.4853C119.708 37.5899 119.635 37.6851 119.531 37.7709C119.427 37.8567 119.296 37.8996 119.138 37.8996H117.671L121.21 28.7925H123.126L126.659 37.8996ZM121.659 27.4368C121.659 27.5582 121.635 27.6722 121.588 27.7789C121.54 27.8856 121.473 27.9776 121.388 28.055C121.303 28.1325 121.204 28.1942 121.091 28.2402C120.979 28.2862 120.86 28.3092 120.736 28.3092C120.619 28.3092 120.509 28.2862 120.405 28.2402C120.301 28.1942 120.208 28.1325 120.127 28.055C120.046 27.9776 119.981 27.8856 119.934 27.7789C119.886 27.6722 119.862 27.5582 119.862 27.4368C119.862 27.3155 119.886 27.1994 119.934 27.0885C119.981 26.9776 120.046 26.8814 120.127 26.7998C120.208 26.7182 120.301 26.6533 120.405 26.6052C120.509 26.5571 120.619 26.533 120.736 26.533C120.86 26.533 120.979 26.5571 121.091 26.6052C121.204 26.6533 121.303 26.7182 121.388 26.7998C121.473 26.8814 121.54 26.9776 121.588 27.0885C121.635 27.1994 121.659 27.3155 121.659 27.4368ZM124.456 27.4368C124.456 27.5582 124.432 27.6722 124.384 27.7789C124.336 27.8856 124.272 27.9776 124.19 28.055C124.109 28.1325 124.015 28.1942 123.906 28.2402C123.798 28.2862 123.682 28.3092 123.557 28.3092C123.432 28.3092 123.316 28.2862 123.207 28.2402C123.099 28.1942 123.005 28.1325 122.923 28.055C122.842 27.9776 122.778 27.8856 122.73 27.7789C122.682 27.6722 122.658 27.5582 122.658 27.4368C122.658 27.3155 122.682 27.1994 122.73 27.0885C122.778 26.9776 122.842 26.8814 122.923 26.7998C123.005 26.7182 123.099 26.6533 123.207 26.6052C123.316 26.5571 123.432 26.533 123.557 26.533C123.682 26.533 123.798 26.5571 123.906 26.6052C124.015 26.6533 124.109 26.7182 124.19 26.7998C124.272 26.8814 124.336 26.9776 124.384 27.0885C124.432 27.1994 124.456 27.3155 124.456 27.4368ZM133.366 30.3114H130.72V37.8996H128.841V30.3114H126.194V28.7925H133.366V30.3114ZM141.253 30.3114H138.606V37.8996H136.728V30.3114H134.081V28.7925H141.253V30.3114ZM144.614 30.2675V32.6086H147.635V34.0333H144.614V36.4246H148.497V37.8996H142.729V28.7925H148.497V30.2675H144.614ZM71.3979 6.41612L62.036 37.0029H55.2599L47.8337 12.9596C47.717 12.6218 47.6003 12.2502 47.4837 11.8448C47.367 11.4395 47.2586 11.0088 47.1586 10.5527C47.0586 11.0088 46.9502 11.4395 46.8335 11.8448C46.7169 12.2502 46.6002 12.6218 46.4835 12.9596L38.9823 37.0029H32.1811L22.8566 6.47007C21.2495 5.92513 14.5961 6.0123 13.6592 6.0123C11.9247 6.0123 10.6238 6.40434 9.75657 7.18842C8.88932 7.9725 8.4557 8.99685 8.4557 10.2615C8.4557 11.0709 8.69335 11.7411 9.16868 12.2723C9.644 12.8034 10.2694 13.2629 11.0449 13.6507C11.8205 14.0386 12.7002 14.3842 13.6842 14.6877C14.6682 14.9913 15.6772 15.3243 16.7113 15.6868C17.7453 16.0493 18.7543 16.4751 19.7383 16.9641C20.7223 17.4531 21.602 18.0685 22.3776 18.8105C23.1531 19.5524 23.7785 20.4587 24.2538 21.5294C24.7292 22.6002 24.9668 23.9027 24.9668 25.4372C24.9668 27.1065 24.6791 28.6704 24.1037 30.129C23.5283 31.5876 22.6986 32.8606 21.6146 33.9482C20.5305 35.0358 19.1921 35.8915 17.5994 36.5154C16.0066 37.1393 14.2012 37.4513 12.1832 37.4513C11.0324 37.4513 9.88583 37.3332 8.74339 37.0972C7.60095 36.8611 6.50022 36.5323 5.44116 36.1107C4.38211 35.6892 3.38562 35.1833 2.45165 34.5932C1.51768 34.003 0.700475 33.3454 0 32.6203L2.20148 29.0288C2.38494 28.759 2.62677 28.5356 2.92697 28.3585C3.22717 28.1814 3.54405 28.0929 3.87761 28.0929C4.32792 28.0929 4.80323 28.2615 5.30357 28.5988C5.80391 28.936 6.37929 29.307 7.02973 29.7117C7.68018 30.1164 8.43484 30.4873 9.29376 30.8245C10.1527 31.1618 11.1825 31.3304 12.3833 31.3304C14.1345 31.3304 15.4896 30.9257 16.4486 30.1163C17.4076 29.307 17.887 28.1014 17.887 26.4995C17.887 25.5721 17.6494 24.8217 17.1741 24.2484C16.6987 23.6751 16.0775 23.1946 15.3103 22.8067C14.5431 22.4189 13.6675 22.0859 12.6835 21.8077C11.6995 21.5294 10.6905 21.2217 9.6565 20.8845C8.62247 20.5472 7.61347 20.1426 6.62946 19.6704C5.64546 19.1983 4.76988 18.5744 4.0027 17.7988C3.23551 17.0231 2.61426 16.062 2.13894 14.9154C1.66362 13.7688 1.42596 12.3439 1.42596 10.6409C1.42596 9.27507 1.6928 7.95142 2.2265 6.66992C2.7602 5.38841 3.54405 4.25024 4.57808 3.25539C5.61212 2.26053 6.8838 1.4596 8.39315 0.85257C9.67602 0.336628 11.1037 0.256068 12.7013 0.243508C12.9834 0.241291 13.2708 0.241193 13.5636 0.241193H21.4244H27.2553C27.9054 0.241193 28.4514 0.393204 28.8931 0.697231C29.3348 1.00126 29.6224 1.40662 29.7557 1.91333L35.3817 22.6377C35.515 23.212 35.6525 23.8327 35.7942 24.4999C35.9359 25.1671 36.0734 25.8722 36.2068 26.6154C36.3568 25.8553 36.5152 25.146 36.6819 24.4872C36.8486 23.8285 37.0319 23.212 37.232 22.6377L43.783 1.91333C43.9164 1.49107 44.2039 1.10682 44.6457 0.76057C45.0874 0.414317 45.625 0.241193 46.2584 0.241193H48.4588C49.1089 0.241193 49.6382 0.397427 50.0466 0.709899C50.455 1.02237 50.7592 1.42351 50.9592 1.91333L57.4853 22.6377C57.6853 23.1782 57.8687 23.7652 58.0354 24.3986C58.2021 25.0319 58.3604 25.7033 58.5105 26.4127C58.6438 25.7033 58.773 25.0319 58.898 24.3986C59.023 23.7652 59.1522 23.1782 59.2856 22.6377L64.9115 1.91333C65.0282 1.47418 65.3116 1.08571 65.7617 0.747902C66.2117 0.410094 66.7535 0.241193 67.3869 0.241193H72.7324H80.5078C80.8006 0.241193 81.088 0.241291 81.37 0.243508C82.9677 0.256068 84.3954 0.336628 85.6782 0.85257C87.1876 1.4596 88.4593 2.26053 89.4933 3.25539C90.5274 4.25024 91.3112 5.38841 91.8449 6.66992C92.3786 7.95142 92.6454 9.27507 92.6454 10.6409C92.6454 12.3439 92.4078 13.7688 91.9324 14.9154C91.4571 16.062 90.8359 17.0231 90.0687 17.7988C89.3015 18.5744 88.4259 19.1983 87.4419 19.6704C86.4579 20.1426 85.4489 20.5472 84.4149 20.8845C83.3809 21.2217 82.3718 21.5294 81.3878 21.8077C80.4038 22.0859 79.5283 22.4189 78.7611 22.8067C77.9939 23.1946 77.3727 23.6751 76.8973 24.2484C76.422 24.8217 76.1843 25.5721 76.1843 26.4995C76.1843 28.1014 76.6638 29.307 77.6228 30.1163C78.5818 30.9257 79.9369 31.3304 81.688 31.3304C82.8889 31.3304 83.9187 31.1618 84.7776 30.8245C85.6366 30.4873 86.3912 30.1164 87.0417 29.7117C87.6921 29.307 88.2675 28.936 88.7678 28.5988C89.2682 28.2615 89.7435 28.0929 90.1938 28.0929C90.5273 28.0929 90.8442 28.1814 91.1444 28.3585C91.4446 28.5356 91.6865 28.759 91.8699 29.0288L94.0714 32.6203C93.3709 33.3454 92.5537 34.003 91.6197 34.5932C90.6858 35.1833 89.6893 35.6892 88.6302 36.1107C87.5712 36.5323 86.4704 36.8611 85.328 37.0972C84.1856 37.3332 83.039 37.4513 81.8882 37.4513C79.8702 37.4513 78.0648 37.1393 76.472 36.5154C74.8793 35.8915 73.5409 35.0358 72.4568 33.9482C71.3728 32.8606 70.5431 31.5876 69.9677 30.129C69.3923 28.6704 69.1046 27.1065 69.1046 25.4372C69.1046 23.9027 69.3422 22.6002 69.8176 21.5294C70.2929 20.4587 70.9183 19.5524 71.6938 18.8105C72.4694 18.0685 73.3491 17.4531 74.3331 16.9641C75.3171 16.4751 76.3261 16.0493 77.3601 15.6868C78.3942 15.3243 79.4032 14.9913 80.3872 14.6877C81.3712 14.3842 82.2509 14.0386 83.0265 13.6507C83.802 13.2629 84.4274 12.8034 84.9027 12.2723C85.378 11.7411 85.6157 11.0709 85.6157 10.2615C85.6157 8.99685 85.1821 7.9725 84.3148 7.18842C83.4476 6.40434 82.1467 6.0123 80.4122 6.0123C79.5074 6.0123 73.2723 5.93101 71.3979 6.41612ZM158 28.7925V37.8996H157.033C156.887 37.8996 156.764 37.8755 156.664 37.8274C156.564 37.7793 156.467 37.6966 156.371 37.5795L151.858 31.8052C151.871 31.9516 151.88 32.096 151.886 32.2383C151.893 32.3805 151.896 32.5123 151.896 32.6337V37.8996H150.242V28.7925H151.228C151.307 28.7925 151.374 28.7957 151.431 28.8019C151.487 28.8082 151.538 28.8229 151.584 28.8459C151.629 28.8689 151.673 28.8992 151.715 28.9369C151.756 28.9745 151.802 29.0248 151.852 29.0875L156.396 34.8869C156.379 34.7279 156.367 34.5741 156.358 34.4256C156.35 34.2771 156.346 34.1358 156.346 34.0019V28.7925H158Z" fill="white"/>
</svg>
