<svg width="34" height="20" viewBox="0 0 34 20" fill="none" xmlns="http://www.w3.org/2000/svg">
<path d="M6.66655 6.66689H26.6662V8.33328H6.66655V6.66689ZM26.6662 11.6667H6.66655V13.3331H26.6662V11.6667ZM31.6664 5.83319C31.6664 6.92056 32.3647 7.83526 33.3331 8.18027V11.7514C32.3647 12.0964 31.6664 13.0111 31.6664 14.0985C31.6664 15.1858 32.3647 16.1005 33.3331 16.4455V20H0V16.4455C0.968366 16.1005 1.66672 15.1858 1.66672 14.0985C1.66672 13.0111 0.968366 12.0964 0 11.7514V8.18027C0.968366 7.83526 1.66672 6.92056 1.66672 5.83319C1.66672 4.74616 0.968366 3.83146 0 3.48645V0H33.3331V3.48645C32.3647 3.83146 31.6664 4.74616 31.6664 5.83319ZM31.6664 1.66639H30.571C30.6 1.72039 30.6184 1.78139 30.6184 1.84706C30.6184 2.05874 30.4463 2.23041 30.235 2.23041C30.0227 2.23041 29.851 2.0584 29.851 1.84706C29.851 1.78139 29.8693 1.72072 29.8983 1.66639H28.7653C28.7943 1.72039 28.8123 1.78139 28.8123 1.84706C28.8123 2.05874 28.6403 2.23041 28.4289 2.23041C28.2176 2.23041 28.0459 2.0584 28.0459 1.84706C28.0459 1.78139 28.0639 1.72072 28.0933 1.66639H26.9599C26.9886 1.72039 27.0069 1.78139 27.0069 1.84706C27.0069 2.05874 26.8352 2.23041 26.6236 2.23041C26.4119 2.23041 26.2402 2.0584 26.2402 1.84706C26.2402 1.78139 26.2585 1.72072 26.2875 1.66639H25.1552C25.1845 1.72039 25.2025 1.78139 25.2025 1.84706C25.2025 2.05874 25.0308 2.23041 24.8192 2.23041C24.6075 2.23041 24.4361 2.0584 24.4361 1.84706C24.4361 1.78139 24.4541 1.72072 24.4831 1.66639H23.3498C23.3788 1.72039 23.3968 1.78139 23.3968 1.84706C23.3968 2.05874 23.2254 2.23041 23.0138 2.23041C22.8021 2.23041 22.6301 2.0584 22.6301 1.84706C22.6301 1.78139 22.6484 1.72072 22.6778 1.66639H21.5454C21.5744 1.72039 21.5927 1.78139 21.5927 1.84706C21.5927 2.05874 21.4207 2.23041 21.2094 2.23041C20.9974 2.23041 20.826 2.0584 20.826 1.84706C20.826 1.78139 20.844 1.72072 20.873 1.66639H19.741C19.7703 1.72039 19.7883 1.78139 19.7883 1.84706C19.7883 2.05874 19.6167 2.23041 19.405 2.23041C19.1933 2.23041 19.022 2.0584 19.022 1.84706C19.022 1.78139 19.0396 1.72072 19.069 1.66639H17.9356C17.9646 1.72039 17.9826 1.78139 17.9826 1.84706C17.9826 2.05874 17.8106 2.23041 17.5993 2.23041C17.3879 2.23041 17.2159 2.0584 17.2159 1.84706C17.2159 1.78139 17.2342 1.72072 17.2632 1.66639H16.1289C16.1579 1.72039 16.1759 1.78139 16.1759 1.84706C16.1759 2.05874 16.0042 2.23041 15.7925 2.23041C15.5809 2.23041 15.4092 2.0584 15.4092 1.84706C15.4092 1.78139 15.4272 1.72072 15.4565 1.66639H14.3241C14.3531 1.72039 14.3711 1.78139 14.3711 1.84706C14.3711 2.05874 14.1995 2.23041 13.9878 2.23041C13.7761 2.23041 13.6045 2.0584 13.6045 1.84706C13.6045 1.78139 13.6225 1.72072 13.6518 1.66639H12.5181C12.5471 1.72039 12.5651 1.78139 12.5651 1.84706C12.5651 2.05874 12.3934 2.23041 12.1817 2.23041C11.9697 2.23041 11.7984 2.0584 11.7984 1.84706C11.7984 1.78139 11.8164 1.72072 11.8454 1.66639H10.713C10.742 1.72039 10.76 1.78139 10.76 1.84706C10.76 2.05874 10.5887 2.23041 10.3767 2.23041C10.165 2.23041 9.99333 2.0584 9.99333 1.84706C9.99333 1.78139 10.0113 1.72072 10.0407 1.66639H8.90863C8.93763 1.72039 8.95563 1.78139 8.95563 1.84706C8.95563 2.05874 8.78396 2.23041 8.57229 2.23041C8.36028 2.23041 8.18861 2.0584 8.18861 1.84706C8.18861 1.78139 8.20661 1.72072 8.23561 1.66639H7.10224C7.13124 1.72039 7.14924 1.78139 7.14924 1.84706C7.14924 2.05874 6.97757 2.23041 6.76589 2.23041C6.55388 2.23041 6.38255 2.0584 6.38255 1.84706C6.38255 1.78139 6.40055 1.72072 6.42955 1.66639H5.29618C5.32518 1.72039 5.34318 1.78139 5.34318 1.84706C5.34318 2.05874 5.17151 2.23041 4.95983 2.23041C4.74816 2.23041 4.57615 2.0584 4.57615 1.84706C4.57615 1.78139 4.59415 1.72072 4.62349 1.66639H3.49145C3.52045 1.72039 3.53845 1.78139 3.53845 1.84706C3.53845 2.05874 3.36678 2.23041 3.15511 2.23041C2.94343 2.23041 2.77176 2.0584 2.77176 1.84706C2.77176 1.78139 2.78976 1.72072 2.81909 1.66639H1.66672V2.51142C1.73606 2.56342 1.80339 2.61775 1.86906 2.67409C1.90373 2.49775 2.0584 2.36441 2.24507 2.36441C2.45675 2.36441 2.62842 2.53608 2.62842 2.74776C2.62842 2.93376 2.49575 3.08844 2.32008 3.12377C2.49975 3.33211 2.65876 3.55745 2.79409 3.79679C2.77543 3.75179 2.76509 3.70279 2.76509 3.65079C2.76509 3.43911 2.93676 3.26744 3.14844 3.26744C3.36011 3.26744 3.53178 3.43945 3.53178 3.65079C3.53178 3.8628 3.36011 4.03413 3.14844 4.03413C3.01743 4.03413 2.9021 3.96847 2.83309 3.86813C3.15344 4.46048 3.33344 5.13217 3.33344 5.83286C3.33344 6.19454 3.28444 6.54822 3.19444 6.88756C3.38445 6.91056 3.53212 7.07024 3.53212 7.26624C3.53212 7.47792 3.36045 7.64959 3.14877 7.64959C3.07144 7.64959 2.99977 7.62625 2.93976 7.58692C2.65109 8.20194 2.21541 8.74296 1.66706 9.15464V10.7757C2.22007 11.1914 2.65842 11.7377 2.94743 12.3594C3.0061 12.3231 3.07477 12.3011 3.14877 12.3011C3.36045 12.3011 3.53212 12.4727 3.53212 12.6841C3.53212 12.8784 3.38711 13.0374 3.19977 13.0624C3.28644 13.3961 3.33344 13.7428 3.33344 14.0975C3.33344 15.1188 2.95276 16.0792 2.30774 16.8202C2.48942 16.8509 2.62842 17.0079 2.62842 17.1979C2.62842 17.4096 2.45675 17.5813 2.24507 17.5813C2.05374 17.5813 1.89673 17.4406 1.86773 17.2576C1.80239 17.3132 1.73572 17.3676 1.66672 17.4189V18.3336H2.84476C2.79543 18.2689 2.76509 18.1889 2.76509 18.1019C2.76509 17.8903 2.93676 17.7186 3.14844 17.7186C3.36011 17.7186 3.53178 17.8906 3.53178 18.1019C3.53178 18.1893 3.50145 18.2689 3.45211 18.3336H4.64949C4.60015 18.2689 4.56982 18.1889 4.56982 18.1019C4.56982 17.8903 4.74182 17.7186 4.9535 17.7186C5.16517 17.7186 5.33684 17.8906 5.33684 18.1019C5.33684 18.1893 5.30651 18.2689 5.25717 18.3336H6.45588C6.40655 18.2689 6.37621 18.1889 6.37621 18.1019C6.37621 17.8903 6.54755 17.7186 6.75956 17.7186C6.97123 17.7186 7.1429 17.8906 7.1429 18.1019C7.1429 18.1893 7.11257 18.2689 7.06323 18.3336H8.26194C8.21294 18.2689 8.18227 18.1889 8.18227 18.1019C8.18227 17.8903 8.35394 17.7186 8.56595 17.7186C8.77763 17.7186 8.9493 17.8906 8.9493 18.1019C8.9493 18.1893 8.91896 18.2689 8.86963 18.3336H10.067C10.0177 18.2689 9.98733 18.1889 9.98733 18.1019C9.98733 17.8903 10.159 17.7186 10.3707 17.7186C10.5827 17.7186 10.754 17.8906 10.754 18.1019C10.754 18.1893 10.7237 18.2689 10.6744 18.3336H11.8717C11.8224 18.2689 11.7921 18.1889 11.7921 18.1019C11.7921 17.8903 11.9637 17.7186 12.1754 17.7186C12.3871 17.7186 12.5588 17.8906 12.5588 18.1019C12.5588 18.1893 12.5284 18.2689 12.4791 18.3336H13.6781C13.6288 18.2689 13.5985 18.1889 13.5985 18.1019C13.5985 17.8903 13.7705 17.7186 13.9818 17.7186C14.1935 17.7186 14.3651 17.8906 14.3651 18.1019C14.3651 18.1893 14.3348 18.2689 14.2855 18.3336H15.4832C15.4338 18.2689 15.4035 18.1889 15.4035 18.1019C15.4035 17.8903 15.5755 17.7186 15.7869 17.7186C15.9982 17.7186 16.1702 17.8906 16.1702 18.1019C16.1702 18.1893 16.1399 18.2689 16.0905 18.3336H17.2902C17.2412 18.2689 17.2106 18.1889 17.2106 18.1019C17.2106 17.8903 17.3826 17.7186 17.5939 17.7186C17.8053 17.7186 17.9773 17.8906 17.9773 18.1019C17.9773 18.1893 17.9466 18.2689 17.8979 18.3336H19.0966C19.0473 18.2689 19.0173 18.1889 19.0173 18.1019C19.0173 17.8903 19.1886 17.7186 19.4003 17.7186C19.612 17.7186 19.7837 17.8906 19.7837 18.1019C19.7837 18.1893 19.7533 18.2689 19.704 18.3336H20.9014C20.8527 18.2689 20.822 18.1889 20.822 18.1019C20.822 17.8903 20.9937 17.7186 21.2054 17.7186C21.417 17.7186 21.5887 17.8906 21.5887 18.1019C21.5887 18.1893 21.5581 18.2689 21.5091 18.3336H22.7068C22.6574 18.2689 22.6268 18.1889 22.6268 18.1019C22.6268 17.8903 22.7988 17.7186 23.0104 17.7186C23.2221 17.7186 23.3934 17.8906 23.3934 18.1019C23.3934 18.1893 23.3631 18.2689 23.3141 18.3336H24.5128C24.4638 18.2689 24.4335 18.1889 24.4335 18.1019C24.4335 17.8903 24.6048 17.7186 24.8165 17.7186C25.0282 17.7186 25.1998 17.8906 25.1998 18.1019C25.1998 18.1893 25.1695 18.2689 25.1202 18.3336H26.3179C26.2689 18.2689 26.2382 18.1889 26.2382 18.1019C26.2382 17.8903 26.4102 17.7186 26.6216 17.7186C26.8336 17.7186 27.0049 17.8906 27.0049 18.1019C27.0049 18.1893 26.9742 18.2689 26.9252 18.3336H28.1243C28.0749 18.2689 28.0446 18.1889 28.0446 18.1019C28.0446 17.8903 28.2163 17.7186 28.4276 17.7186C28.639 17.7186 28.811 17.8906 28.811 18.1019C28.811 18.1893 28.7803 18.2689 28.7313 18.3336H29.9303C29.881 18.2689 29.8503 18.1889 29.8503 18.1019C29.8503 17.8903 30.0223 17.7186 30.2343 17.7186C30.446 17.7186 30.6177 17.8906 30.6177 18.1019C30.6177 18.1893 30.587 18.2689 30.5377 18.3336H31.6661V17.4202C31.6107 17.3786 31.5574 17.3356 31.5047 17.2912C31.463 17.4579 31.314 17.5823 31.1344 17.5823C30.922 17.5823 30.7507 17.4102 30.7507 17.1989C30.7507 17.0226 30.8707 16.8752 31.033 16.8306C30.878 16.6529 30.738 16.4629 30.6147 16.2622C30.6157 16.2732 30.6184 16.2842 30.6184 16.2962C30.6184 16.5079 30.4463 16.6796 30.235 16.6796C30.0227 16.6796 29.851 16.5075 29.851 16.2962C29.851 16.0839 30.023 15.9129 30.235 15.9129C30.318 15.9129 30.3947 15.9402 30.4577 15.9852C30.1633 15.4122 30 14.7688 30 14.0991C30 13.7411 30.0483 13.3911 30.136 13.0548C29.9727 13.0111 29.851 12.8634 29.851 12.6858C29.851 12.4741 30.023 12.3027 30.235 12.3027C30.293 12.3027 30.3473 12.3164 30.3963 12.3394C30.6854 11.7267 31.1204 11.188 31.6667 10.777V9.15597C31.125 8.74896 30.693 8.21594 30.4043 7.60959C30.353 7.63492 30.296 7.65059 30.235 7.65059C30.0227 7.65059 29.851 7.47858 29.851 7.26724C29.851 7.0879 29.9747 6.93856 30.1413 6.89656C30.0503 6.55488 30 6.19854 30 5.83386C30 5.17417 30.159 4.53882 30.4447 3.97213C30.3843 4.0118 30.3127 4.03513 30.235 4.03513C30.0227 4.03513 29.851 3.86346 29.851 3.65179C29.851 3.44011 30.023 3.26844 30.235 3.26844C30.4467 3.26844 30.6184 3.44045 30.6184 3.65179C30.6184 3.65712 30.617 3.66212 30.6164 3.66746C30.7367 3.47212 30.8724 3.28711 31.023 3.11377C30.8657 3.06544 30.751 2.92143 30.751 2.74876C30.751 2.53675 30.9227 2.36541 31.1347 2.36541C31.3097 2.36541 31.4557 2.48342 31.5014 2.64409C31.5554 2.59875 31.6101 2.55442 31.6667 2.51208V1.66639H31.6664ZM4.04847 2.36475C3.83679 2.36475 3.66512 2.53642 3.66512 2.74809C3.66512 2.95977 3.83679 3.13144 4.04847 3.13144C4.26048 3.13144 4.43215 2.95943 4.43215 2.74809C4.43215 2.53608 4.26048 2.36475 4.04847 2.36475ZM5.85486 2.36475C5.64319 2.36475 5.47152 2.53642 5.47152 2.74809C5.47152 2.95977 5.64319 3.13144 5.85486 3.13144C6.06687 3.13144 6.23821 2.95943 6.23821 2.74809C6.23821 2.53608 6.06687 2.36475 5.85486 2.36475ZM4.95383 3.26778C4.74216 3.26778 4.57015 3.43978 4.57015 3.65112C4.57015 3.86313 4.74216 4.03447 4.95383 4.03447C5.16551 4.03447 5.33718 3.8628 5.33718 3.65112C5.33718 3.43945 5.16551 3.26778 4.95383 3.26778ZM9.46598 3.13177C9.67799 3.13177 9.84933 2.95977 9.84933 2.74843C9.84933 2.53642 9.67799 2.36508 9.46598 2.36508C9.25431 2.36508 9.08264 2.53675 9.08264 2.74843C9.08264 2.95977 9.25431 3.13177 9.46598 3.13177ZM11.272 3.13177C11.4837 3.13177 11.6554 2.95977 11.6554 2.74843C11.6554 2.53642 11.4837 2.36508 11.272 2.36508C11.0604 2.36508 10.8887 2.53675 10.8887 2.74843C10.8887 2.95977 11.0604 3.13177 11.272 3.13177ZM7.66292 3.13177C7.8746 3.13177 8.04627 2.95977 8.04627 2.74843C8.04627 2.53642 7.8746 2.36508 7.66292 2.36508C7.45091 2.36508 7.27958 2.53675 7.27958 2.74843C7.27958 2.95977 7.45091 3.13177 7.66292 3.13177ZM6.75989 4.03447C6.97157 4.03447 7.14324 3.8628 7.14324 3.65112C7.14324 3.43945 6.97157 3.26778 6.75989 3.26778C6.54788 3.26778 6.37655 3.43978 6.37655 3.65112C6.37655 3.86313 6.54788 4.03447 6.75989 4.03447ZM8.56629 4.03447C8.77796 4.03447 8.94963 3.8628 8.94963 3.65112C8.94963 3.43945 8.77796 3.26778 8.56629 3.26778C8.35428 3.26778 8.18261 3.43978 8.18261 3.65112C8.18261 3.86313 8.35428 4.03447 8.56629 4.03447ZM10.371 4.03447C10.583 4.03447 10.7544 3.8628 10.7544 3.65112C10.7544 3.43945 10.583 3.26778 10.371 3.26778C10.1593 3.26778 9.98767 3.43978 9.98767 3.65112C9.98767 3.86313 10.1593 4.03447 10.371 4.03447ZM14.8822 3.13177C15.0938 3.13177 15.2655 2.95977 15.2655 2.74843C15.2655 2.53642 15.0938 2.36508 14.8822 2.36508C14.6705 2.36508 14.4988 2.53675 14.4988 2.74843C14.4988 2.95977 14.6705 3.13177 14.8822 3.13177ZM13.0791 3.13177C13.2908 3.13177 13.4624 2.95977 13.4624 2.74843C13.4624 2.53642 13.2908 2.36508 13.0791 2.36508C12.8674 2.36508 12.6958 2.53675 12.6958 2.74843C12.6958 2.95977 12.8678 3.13177 13.0791 3.13177ZM12.1761 4.03447C12.3877 4.03447 12.5594 3.8628 12.5594 3.65112C12.5594 3.43945 12.3877 3.26778 12.1761 3.26778C11.9641 3.26778 11.7927 3.43978 11.7927 3.65112C11.7927 3.86313 11.9644 4.03447 12.1761 4.03447ZM13.9825 4.03447C14.1941 4.03447 14.3658 3.8628 14.3658 3.65112C14.3658 3.43945 14.1941 3.26778 13.9825 3.26778C13.7708 3.26778 13.5991 3.43978 13.5991 3.65112C13.5988 3.86313 13.7708 4.03447 13.9825 4.03447ZM15.7875 4.03447C15.9992 4.03447 16.1709 3.8628 16.1709 3.65112C16.1709 3.43945 15.9992 3.26778 15.7875 3.26778C15.5759 3.26778 15.4042 3.43978 15.4042 3.65112C15.4038 3.86313 15.5759 4.03447 15.7875 4.03447ZM4.04847 4.17114C3.83679 4.17114 3.66512 4.34281 3.66512 4.55415C3.66512 4.76616 3.83679 4.93783 4.04847 4.93783C4.26048 4.93783 4.43215 4.76582 4.43215 4.55415C4.43215 4.34248 4.26048 4.17114 4.04847 4.17114ZM5.85486 4.17114C5.64319 4.17114 5.47152 4.34281 5.47152 4.55415C5.47152 4.76616 5.64319 4.93783 5.85486 4.93783C6.06687 4.93783 6.23821 4.76582 6.23821 4.55415C6.23821 4.34248 6.06687 4.17114 5.85486 4.17114ZM7.66292 4.93783C7.8746 4.93783 8.04627 4.76616 8.04627 4.55415C8.04627 4.34248 7.8746 4.17114 7.66292 4.17114C7.45091 4.17114 7.27958 4.34281 7.27958 4.55415C7.27958 4.76649 7.45091 4.93783 7.66292 4.93783ZM9.46598 4.93783C9.67799 4.93783 9.84933 4.76582 9.84933 4.55415C9.84933 4.34248 9.67799 4.17114 9.46598 4.17114C9.25431 4.17114 9.08264 4.34281 9.08264 4.55415C9.08264 4.76616 9.25431 4.93783 9.46598 4.93783ZM11.272 4.93783C11.4837 4.93783 11.6554 4.76582 11.6554 4.55415C11.6554 4.34248 11.4837 4.17114 11.272 4.17114C11.0604 4.17114 10.8887 4.34281 10.8887 4.55415C10.8887 4.76616 11.0604 4.93783 11.272 4.93783ZM13.0791 4.93783C13.2908 4.93783 13.4624 4.76616 13.4624 4.55415C13.4624 4.34248 13.2908 4.17114 13.0791 4.17114C12.8674 4.17114 12.6958 4.34281 12.6958 4.55415C12.6958 4.76649 12.8678 4.93783 13.0791 4.93783ZM14.8822 4.93783C15.0938 4.93783 15.2655 4.76582 15.2655 4.55415C15.2655 4.34248 15.0938 4.17114 14.8822 4.17114C14.6705 4.17114 14.4988 4.34281 14.4988 4.55415C14.4988 4.76616 14.6705 4.93783 14.8822 4.93783ZM4.04847 5.97987C3.83679 5.97987 3.66512 6.15154 3.66512 6.36321C3.66512 6.57522 3.83679 6.74689 4.04847 6.74689C4.26048 6.74689 4.43215 6.57522 4.43215 6.36321C4.43215 6.15154 4.26048 5.97987 4.04847 5.97987ZM5.85486 5.97987C5.64319 5.97987 5.47152 6.15154 5.47152 6.36321C5.47152 6.57522 5.64319 6.74689 5.85486 6.74689C6.06687 6.74689 6.23821 6.57522 6.23821 6.36321C6.23821 6.15154 6.06687 5.97987 5.85486 5.97987ZM4.95383 5.0765C4.74216 5.0765 4.57015 5.24851 4.57015 5.45985C4.57015 5.67186 4.74216 5.84319 4.95383 5.84319C5.16551 5.84319 5.33718 5.67152 5.33718 5.45985C5.33718 5.24851 5.16551 5.0765 4.95383 5.0765ZM4.95383 6.8829C4.74216 6.8829 4.57015 7.05457 4.57015 7.26624C4.57015 7.47792 4.74216 7.64959 4.95383 7.64959C5.16551 7.64959 5.33718 7.47758 5.33718 7.26624C5.33718 7.05457 5.16551 6.8829 4.95383 6.8829ZM6.75989 5.84353C6.97157 5.84353 7.14324 5.67186 7.14324 5.46018C7.14324 5.24851 6.97157 5.07684 6.75989 5.07684C6.54788 5.07684 6.37655 5.24884 6.37655 5.46018C6.37655 5.67219 6.54788 5.84353 6.75989 5.84353ZM8.56629 5.84353C8.77796 5.84353 8.94963 5.67186 8.94963 5.46018C8.94963 5.24851 8.77796 5.07684 8.56629 5.07684C8.35428 5.07684 8.18261 5.24884 8.18261 5.46018C8.18261 5.67219 8.35428 5.84353 8.56629 5.84353ZM10.371 5.84353C10.583 5.84353 10.7544 5.67186 10.7544 5.46018C10.7544 5.24851 10.583 5.07684 10.371 5.07684C10.1593 5.07684 9.98767 5.24884 9.98767 5.46018C9.98767 5.67219 10.1593 5.84353 10.371 5.84353ZM12.1761 5.84353C12.3877 5.84353 12.5594 5.67186 12.5594 5.46018C12.5594 5.24851 12.3877 5.07684 12.1761 5.07684C11.9641 5.07684 11.7927 5.24884 11.7927 5.46018C11.7927 5.67219 11.9644 5.84353 12.1761 5.84353ZM13.9825 5.84353C14.1941 5.84353 14.3658 5.67186 14.3658 5.46018C14.3658 5.24851 14.1941 5.07684 13.9825 5.07684C13.7708 5.07684 13.5991 5.24884 13.5991 5.46018C13.5988 5.67219 13.7708 5.84353 13.9825 5.84353ZM15.7875 5.84353C15.9992 5.84353 16.1709 5.67186 16.1709 5.46018C16.1709 5.24851 15.9992 5.07684 15.7875 5.07684C15.5759 5.07684 15.4042 5.24884 15.4042 5.46018C15.4038 5.67219 15.5759 5.84353 15.7875 5.84353ZM4.04847 7.78426C3.83679 7.78426 3.66512 7.95593 3.66512 8.1676C3.66512 8.37928 3.83679 8.55095 4.04847 8.55095C4.26048 8.55095 4.43215 8.37895 4.43215 8.1676C4.43215 7.9556 4.26048 7.78426 4.04847 7.78426ZM5.85486 7.78426C5.64319 7.78426 5.47152 7.95593 5.47152 8.1676C5.47152 8.37928 5.64319 8.55095 5.85486 8.55095C6.06687 8.55095 6.23821 8.37895 6.23821 8.1676C6.23821 7.9556 6.06687 7.78426 5.85486 7.78426ZM3.14877 8.68729C2.9371 8.68729 2.76543 8.85896 2.76543 9.0703C2.76543 9.28264 2.9371 9.45365 3.14877 9.45365C3.36045 9.45365 3.53212 9.28231 3.53212 9.0703C3.53212 8.85863 3.36045 8.68729 3.14877 8.68729ZM4.95383 8.68729C4.74216 8.68729 4.57015 8.85896 4.57015 9.0703C4.57015 9.28264 4.74216 9.45365 4.95383 9.45365C5.16551 9.45365 5.33718 9.28231 5.33718 9.0703C5.33718 8.85863 5.16551 8.68729 4.95383 8.68729ZM6.75989 9.45365C6.97157 9.45365 7.14324 9.28231 7.14324 9.0703C7.14324 8.85863 6.97157 8.68729 6.75989 8.68729C6.54788 8.68729 6.37655 8.85896 6.37655 9.0703C6.37655 9.28264 6.54788 9.45365 6.75989 9.45365ZM8.56629 8.68729C8.35428 8.68729 8.18261 8.85896 8.18261 9.0703C8.18261 9.28264 8.35428 9.45365 8.56629 9.45365C8.77796 9.45365 8.94963 9.28231 8.94963 9.0703C8.94963 8.85863 8.77796 8.68729 8.56629 8.68729ZM10.371 8.68729C10.1593 8.68729 9.98767 8.85896 9.98767 9.0703C9.98767 9.28264 10.1593 9.45365 10.371 9.45365C10.583 9.45365 10.7544 9.28231 10.7544 9.0703C10.7544 8.85863 10.583 8.68729 10.371 8.68729ZM12.1761 8.68729C11.9641 8.68729 11.7927 8.85896 11.7927 9.0703C11.7927 9.28264 11.9644 9.45365 12.1761 9.45365C12.3877 9.45365 12.5594 9.28231 12.5594 9.0703C12.5594 8.85863 12.3877 8.68729 12.1761 8.68729ZM13.9825 8.68729C13.7708 8.68729 13.5991 8.85896 13.5991 9.0703C13.5991 9.28264 13.7711 9.45365 13.9825 9.45365C14.1941 9.45365 14.3658 9.28231 14.3658 9.0703C14.3658 8.85863 14.1941 8.68729 13.9825 8.68729ZM15.7875 8.68729C15.5759 8.68729 15.4042 8.85896 15.4042 9.0703C15.4042 9.28264 15.5762 9.45365 15.7875 9.45365C15.9989 9.45365 16.1709 9.28231 16.1709 9.0703C16.1709 8.85863 15.9992 8.68729 15.7875 8.68729ZM4.04847 9.59032C3.83679 9.59032 3.66512 9.76166 3.66512 9.97367C3.66512 9.974 3.66512 9.97433 3.66512 9.97467C3.66512 9.97467 3.66512 9.975 3.66512 9.97533C3.66512 10.1873 3.83679 10.3587 4.04847 10.3587C4.26048 10.3587 4.43215 10.187 4.43215 9.97533C4.43215 9.975 4.43215 9.97467 4.43215 9.97467C4.43215 9.97433 4.43215 9.974 4.43215 9.97367C4.43215 9.76166 4.26048 9.59032 4.04847 9.59032ZM5.85486 9.59032C5.64319 9.59032 5.47152 9.76166 5.47152 9.97367C5.47152 9.974 5.47152 9.97433 5.47152 9.97467C5.47152 9.97467 5.47152 9.975 5.47152 9.97533C5.47152 10.1873 5.64319 10.3587 5.85486 10.3587C6.06653 10.3587 6.23821 10.187 6.23821 9.97533C6.23821 9.975 6.23821 9.97467 6.23821 9.97467C6.23821 9.97433 6.23821 9.974 6.23821 9.97367C6.23821 9.76166 6.06687 9.59032 5.85486 9.59032ZM7.66292 9.59032C7.45091 9.59032 7.27958 9.76166 7.27958 9.97367C7.27958 9.974 7.27958 9.97433 7.27958 9.97467C7.27958 9.97467 7.27958 9.975 7.27958 9.97533C7.27958 10.1873 7.45091 10.3587 7.66292 10.3587C7.8746 10.3587 8.04627 10.187 8.04627 9.97533C8.04627 9.975 8.04627 9.97467 8.04627 9.97467C8.04627 9.97433 8.04627 9.974 8.04627 9.97367C8.04627 9.76166 7.8746 9.59032 7.66292 9.59032ZM9.46598 9.59032C9.25431 9.59032 9.08264 9.76166 9.08264 9.97367C9.08264 9.974 9.08264 9.97433 9.08264 9.97467C9.08264 9.97467 9.08264 9.975 9.08264 9.97533C9.08264 10.1873 9.25431 10.3587 9.46598 10.3587C9.67799 10.3587 9.84933 10.187 9.84933 9.97533C9.84933 9.975 9.84933 9.97467 9.84933 9.97467C9.84933 9.97433 9.84933 9.974 9.84933 9.97367C9.84933 9.76166 9.67799 9.59032 9.46598 9.59032ZM11.272 9.59032C11.0604 9.59032 10.8887 9.76166 10.8887 9.97367C10.8887 9.974 10.8887 9.97433 10.8887 9.97467C10.8887 9.97467 10.8887 9.975 10.8887 9.97533C10.8887 10.1873 11.0604 10.3587 11.272 10.3587C11.4837 10.3587 11.6554 10.187 11.6554 9.97533C11.6554 9.975 11.6554 9.97467 11.6554 9.97467C11.6554 9.97433 11.6554 9.974 11.6554 9.97367C11.6554 9.76166 11.484 9.59032 11.272 9.59032ZM13.0791 9.59032C12.8674 9.59032 12.6958 9.76166 12.6958 9.97367C12.6958 9.974 12.6958 9.97433 12.6958 9.97467C12.6958 9.97467 12.6958 9.975 12.6958 9.97533C12.6958 10.1873 12.8674 10.3587 13.0791 10.3587C13.2908 10.3587 13.4624 10.187 13.4624 9.97533C13.4624 9.975 13.4624 9.97467 13.4624 9.97467C13.4624 9.97433 13.4624 9.974 13.4624 9.97367C13.4624 9.76166 13.2908 9.59032 13.0791 9.59032ZM14.8822 9.59032C14.6705 9.59032 14.4988 9.76166 14.4988 9.97367C14.4988 9.974 14.4988 9.97433 14.4988 9.97467C14.4988 9.97467 14.4988 9.975 14.4988 9.97533C14.4988 10.1873 14.6705 10.3587 14.8822 10.3587C15.0938 10.3587 15.2655 10.187 15.2655 9.97533C15.2655 9.975 15.2655 9.97467 15.2655 9.97467C15.2655 9.97433 15.2655 9.974 15.2655 9.97367C15.2655 9.76166 15.0938 9.59032 14.8822 9.59032ZM2.24507 9.59032C2.0334 9.59032 1.86173 9.76166 1.86173 9.97367C1.86173 9.974 1.86173 9.97433 1.86173 9.97467C1.86173 9.97467 1.86173 9.975 1.86173 9.97533C1.86173 10.1873 2.0334 10.3587 2.24507 10.3587C2.45675 10.3587 2.62842 10.187 2.62842 9.97533C2.62842 9.975 2.62842 9.97467 2.62842 9.97467C2.62842 9.97433 2.62842 9.974 2.62842 9.97367C2.62875 9.76166 2.45708 9.59032 2.24507 9.59032ZM16.6912 3.13177C16.9029 3.13177 17.0746 2.95977 17.0746 2.74843C17.0746 2.53642 16.9029 2.36508 16.6912 2.36508C16.4795 2.36508 16.3079 2.53675 16.3079 2.74843C16.3079 2.95977 16.4795 3.13177 16.6912 3.13177ZM20.3003 3.13177C20.5124 3.13177 20.684 2.95977 20.684 2.74843C20.684 2.53642 20.512 2.36508 20.3003 2.36508C20.0887 2.36508 19.9173 2.53675 19.9173 2.74843C19.9173 2.95977 20.0887 3.13177 20.3003 3.13177ZM22.1067 3.13177C22.3184 3.13177 22.4901 2.95977 22.4901 2.74843C22.4901 2.53642 22.3181 2.36508 22.1067 2.36508C21.8954 2.36508 21.7234 2.53675 21.7234 2.74843C21.7234 2.95977 21.8954 3.13177 22.1067 3.13177ZM17.5943 4.03447C17.8059 4.03447 17.9776 3.8628 17.9776 3.65112C17.9776 3.43945 17.8056 3.26778 17.5943 3.26778C17.3829 3.26778 17.2109 3.43978 17.2109 3.65112C17.2109 3.86313 17.3826 4.03447 17.5943 4.03447ZM19.4006 4.03447C19.6127 4.03447 19.784 3.8628 19.784 3.65112C19.784 3.43945 19.6123 3.26778 19.4006 3.26778C19.189 3.26778 19.0176 3.43978 19.0176 3.65112C19.0176 3.86313 19.1886 4.03447 19.4006 4.03447ZM21.2057 4.03447C21.4174 4.03447 21.5891 3.8628 21.5891 3.65112C21.5891 3.43945 21.417 3.26778 21.2057 3.26778C20.9937 3.26778 20.8224 3.43978 20.8224 3.65112C20.8224 3.86313 20.9937 4.03447 21.2057 4.03447ZM25.7169 3.13177C25.9285 3.13177 26.1002 2.95977 26.1002 2.74843C26.1002 2.53642 25.9282 2.36508 25.7169 2.36508C25.5049 2.36508 25.3335 2.53675 25.3335 2.74843C25.3335 2.95977 25.5052 3.13177 25.7169 3.13177ZM27.5229 2.36475C27.3112 2.36475 27.1396 2.53642 27.1396 2.74809C27.1396 2.95977 27.3116 3.13144 27.5229 3.13144C27.7349 3.13144 27.9063 2.95943 27.9063 2.74809C27.9066 2.53608 27.7349 2.36475 27.5229 2.36475ZM23.0108 4.03447C23.2228 4.03447 23.3938 3.8628 23.3938 3.65112C23.3938 3.43945 23.2224 3.26778 23.0108 3.26778C22.7991 3.26778 22.6271 3.43978 22.6271 3.65112C22.6271 3.86313 22.7988 4.03447 23.0108 4.03447ZM24.8168 4.03447C25.0288 4.03447 25.2002 3.8628 25.2002 3.65112C25.2002 3.43945 25.0285 3.26778 24.8168 3.26778C24.6052 3.26778 24.4338 3.43978 24.4338 3.65112C24.4338 3.86313 24.6048 4.03447 24.8168 4.03447ZM26.6219 3.26778C26.4102 3.26778 26.2385 3.43978 26.2385 3.65112C26.2385 3.86313 26.4105 4.03447 26.6219 4.03447C26.8339 4.03447 27.0052 3.8628 27.0052 3.65112C27.0056 3.43945 26.8339 3.26778 26.6219 3.26778ZM29.3313 2.36475C29.1193 2.36475 28.9483 2.53642 28.9483 2.74809C28.9483 2.95977 29.1196 3.13144 29.3313 3.13144C29.543 3.13144 29.7143 2.95943 29.7143 2.74809C29.7147 2.53608 29.543 2.36475 29.3313 2.36475ZM28.4279 3.26778C28.2163 3.26778 28.0449 3.43978 28.0449 3.65112C28.0449 3.86313 28.2166 4.03447 28.4279 4.03447C28.6393 4.03447 28.8113 3.8628 28.8113 3.65112C28.8116 3.43945 28.6396 3.26778 28.4279 3.26778ZM16.6912 4.93783C16.9029 4.93783 17.0746 4.76582 17.0746 4.55415C17.0746 4.34248 16.9029 4.17114 16.6912 4.17114C16.4795 4.17114 16.3079 4.34281 16.3079 4.55415C16.3079 4.76616 16.4795 4.93783 16.6912 4.93783ZM20.3003 4.93783C20.5124 4.93783 20.684 4.76582 20.684 4.55415C20.684 4.34248 20.512 4.17114 20.3003 4.17114C20.0887 4.17114 19.9173 4.34281 19.9173 4.55415C19.9173 4.76616 20.0887 4.93783 20.3003 4.93783ZM22.1067 4.93783C22.3184 4.93783 22.4901 4.76582 22.4901 4.55415C22.4901 4.34248 22.3181 4.17114 22.1067 4.17114C21.8954 4.17114 21.7234 4.34281 21.7234 4.55415C21.7234 4.76616 21.8954 4.93783 22.1067 4.93783ZM25.7169 4.93783C25.9285 4.93783 26.1002 4.76582 26.1002 4.55415C26.1002 4.34248 25.9282 4.17114 25.7169 4.17114C25.5049 4.17114 25.3335 4.34281 25.3335 4.55415C25.3335 4.76616 25.5052 4.93783 25.7169 4.93783ZM27.5229 4.17114C27.3112 4.17114 27.1396 4.34281 27.1396 4.55415C27.1396 4.76616 27.3116 4.93783 27.5229 4.93783C27.7349 4.93783 27.9063 4.76582 27.9063 4.55415C27.9066 4.34248 27.7349 4.17114 27.5229 4.17114ZM29.3313 4.17114C29.1193 4.17114 28.9483 4.34281 28.9483 4.55415C28.9483 4.76649 29.1196 4.93783 29.3313 4.93783C29.543 4.93783 29.7143 4.76616 29.7143 4.55415C29.7147 4.34248 29.543 4.17114 29.3313 4.17114ZM17.5943 5.84353C17.8059 5.84353 17.9776 5.67186 17.9776 5.46018C17.9776 5.24851 17.8056 5.07684 17.5943 5.07684C17.3829 5.07684 17.2109 5.24884 17.2109 5.46018C17.2109 5.67219 17.3826 5.84353 17.5943 5.84353ZM19.4006 5.84353C19.6123 5.84353 19.784 5.67186 19.784 5.46018C19.784 5.24851 19.612 5.07684 19.4006 5.07684C19.1886 5.07684 19.0176 5.24884 19.0176 5.46018C19.0176 5.67219 19.1886 5.84353 19.4006 5.84353ZM21.2057 5.84353C21.4174 5.84353 21.5891 5.67186 21.5891 5.46018C21.5891 5.24851 21.417 5.07684 21.2057 5.07684C20.9937 5.07684 20.8224 5.24884 20.8224 5.46018C20.8224 5.67219 20.9937 5.84353 21.2057 5.84353ZM27.5229 5.97987C27.3112 5.97987 27.1396 6.15154 27.1396 6.36321C27.1396 6.57522 27.3116 6.74689 27.5229 6.74689C27.7349 6.74689 27.9063 6.57522 27.9063 6.36321C27.9066 6.15154 27.7349 5.97987 27.5229 5.97987ZM23.0108 5.84353C23.2228 5.84353 23.3938 5.67186 23.3938 5.46018C23.3938 5.24851 23.2224 5.07684 23.0108 5.07684C22.7991 5.07684 22.6271 5.24884 22.6271 5.46018C22.6271 5.67219 22.7988 5.84353 23.0108 5.84353ZM24.8168 5.84353C25.0288 5.84353 25.2002 5.67186 25.2002 5.46018C25.2002 5.24851 25.0285 5.07684 24.8168 5.07684C24.6052 5.07684 24.4338 5.24884 24.4338 5.46018C24.4338 5.67219 24.6048 5.84353 24.8168 5.84353ZM26.6219 5.0765C26.4102 5.0765 26.2385 5.24851 26.2385 5.45985C26.2385 5.67186 26.4105 5.84319 26.6219 5.84319C26.8339 5.84319 27.0052 5.67152 27.0052 5.45985C27.0056 5.24851 26.8339 5.0765 26.6219 5.0765ZM29.3313 5.97987C29.1193 5.97987 28.9483 6.15154 28.9483 6.36321C28.9483 6.57522 29.1196 6.74689 29.3313 6.74689C29.543 6.74689 29.7143 6.57522 29.7143 6.36321C29.7147 6.15154 29.543 5.97987 29.3313 5.97987ZM28.4279 5.0765C28.2163 5.0765 28.0449 5.24851 28.0449 5.45985C28.0449 5.67186 28.2166 5.84319 28.4279 5.84319C28.6393 5.84319 28.8113 5.67152 28.8113 5.45985C28.8116 5.24851 28.6396 5.0765 28.4279 5.0765ZM28.4279 6.8829C28.2163 6.8829 28.0449 7.05457 28.0449 7.26624C28.0449 7.47792 28.2166 7.64959 28.4279 7.64959C28.6393 7.64959 28.8113 7.47758 28.8113 7.26624C28.8116 7.05457 28.6396 6.8829 28.4279 6.8829ZM17.5943 8.68729C17.3826 8.68729 17.2109 8.85896 17.2109 9.0703C17.2109 9.28264 17.3829 9.45365 17.5943 9.45365C17.8056 9.45365 17.9776 9.28231 17.9776 9.0703C17.9779 8.85863 17.8059 8.68729 17.5943 8.68729ZM19.4006 8.68729C19.1886 8.68729 19.0176 8.85896 19.0176 9.0703C19.0176 9.28264 19.189 9.45365 19.4006 9.45365C19.6123 9.45365 19.784 9.28231 19.784 9.0703C19.7843 8.85863 19.6127 8.68729 19.4006 8.68729ZM21.2057 8.68729C20.9937 8.68729 20.8224 8.85896 20.8224 9.0703C20.8224 9.28264 20.994 9.45365 21.2057 9.45365C21.4174 9.45365 21.5891 9.28231 21.5891 9.0703C21.5894 8.85863 21.4174 8.68729 21.2057 8.68729ZM27.5229 7.78426C27.3112 7.78426 27.1396 7.95593 27.1396 8.1676C27.1396 8.37928 27.3116 8.55095 27.5229 8.55095C27.7349 8.55095 27.9063 8.37895 27.9063 8.1676C27.9066 7.9556 27.7349 7.78426 27.5229 7.78426ZM23.0108 8.68729C22.7988 8.68729 22.6271 8.85896 22.6271 9.0703C22.6271 9.28264 22.7991 9.45365 23.0108 9.45365C23.2224 9.45365 23.3938 9.28231 23.3938 9.0703C23.3941 8.85863 23.2228 8.68729 23.0108 8.68729ZM24.8168 8.68729C24.6048 8.68729 24.4338 8.85896 24.4338 9.0703C24.4338 9.28264 24.6052 9.45365 24.8168 9.45365C25.0285 9.45365 25.2002 9.28231 25.2002 9.0703C25.2005 8.85863 25.0288 8.68729 24.8168 8.68729ZM26.6219 8.68729C26.4102 8.68729 26.2385 8.85896 26.2385 9.0703C26.2385 9.28264 26.4105 9.45365 26.6219 9.45365C26.8339 9.45365 27.0052 9.28231 27.0052 9.0703C27.0056 8.85863 26.8339 8.68729 26.6219 8.68729ZM29.3313 7.78393C29.1193 7.78393 28.9483 7.95593 28.9483 8.16727C28.9483 8.37895 29.1196 8.55062 29.3313 8.55062C29.543 8.55062 29.7143 8.37895 29.7143 8.16727C29.7147 7.9556 29.543 7.78393 29.3313 7.78393ZM28.4279 8.68729C28.2163 8.68729 28.0449 8.85896 28.0449 9.0703C28.0449 9.28264 28.2166 9.45365 28.4279 9.45365C28.6393 9.45365 28.8113 9.28231 28.8113 9.0703C28.8116 8.85863 28.6396 8.68729 28.4279 8.68729ZM30.2347 9.45365C30.4463 9.45365 30.618 9.28231 30.618 9.0703C30.618 8.85863 30.446 8.68729 30.2347 8.68729C30.0223 8.68729 29.8507 8.85896 29.8507 9.0703C29.8507 9.28264 30.0223 9.45365 30.2347 9.45365ZM16.6912 9.59032C16.4795 9.59032 16.3079 9.76166 16.3079 9.97367C16.3079 9.974 16.3079 9.97433 16.3079 9.97467C16.3079 9.97467 16.3079 9.975 16.3079 9.97533C16.3079 10.1873 16.4795 10.3587 16.6912 10.3587C16.9029 10.3587 17.0746 10.187 17.0746 9.97533C17.0746 9.975 17.0746 9.97467 17.0746 9.97467C17.0746 9.97433 17.0746 9.974 17.0746 9.97367C17.0749 9.76166 16.9029 9.59032 16.6912 9.59032ZM20.3003 9.59032C20.0883 9.59032 19.9173 9.76166 19.9173 9.97367C19.9173 9.974 19.9173 9.97433 19.9173 9.97467C19.9173 9.97467 19.9173 9.975 19.9173 9.97533C19.9173 10.1873 20.0887 10.3587 20.3003 10.3587C20.512 10.3587 20.684 10.187 20.684 9.97533C20.684 9.975 20.6837 9.97467 20.6837 9.97467C20.6837 9.97433 20.684 9.974 20.684 9.97367C20.6844 9.76166 20.5124 9.59032 20.3003 9.59032ZM22.1067 9.59032C21.8951 9.59032 21.7234 9.76166 21.7234 9.97367C21.7234 9.974 21.7234 9.97433 21.7234 9.97467C21.7234 9.97467 21.7234 9.975 21.7234 9.97533C21.7234 10.1873 21.8954 10.3587 22.1067 10.3587C22.3181 10.3587 22.4901 10.187 22.4901 9.97533C22.4901 9.975 22.4901 9.97467 22.4901 9.97467C22.4901 9.97433 22.4901 9.974 22.4901 9.97367C22.4904 9.76166 22.3184 9.59032 22.1067 9.59032ZM25.7169 9.59032C25.5049 9.59032 25.3335 9.76166 25.3335 9.97367C25.3335 9.974 25.3335 9.97433 25.3335 9.97467C25.3335 9.97467 25.3335 9.975 25.3335 9.97533C25.3335 10.1873 25.5052 10.3587 25.7169 10.3587C25.9285 10.3587 26.1002 10.187 26.1002 9.97533C26.1002 9.975 26.1002 9.97467 26.1002 9.97467C26.1002 9.97433 26.1002 9.974 26.1002 9.97367C26.1005 9.76166 25.9285 9.59032 25.7169 9.59032ZM27.5229 9.59032C27.3112 9.59032 27.1396 9.76166 27.1396 9.97367C27.1396 9.974 27.1396 9.97433 27.1396 9.97467C27.1396 9.97467 27.1396 9.975 27.1396 9.97533C27.1396 10.1873 27.3116 10.3587 27.5229 10.3587C27.7343 10.3587 27.9063 10.187 27.9063 9.97533C27.9063 9.975 27.9063 9.97467 27.9063 9.97467C27.9063 9.97433 27.9063 9.974 27.9063 9.97367C27.9066 9.76166 27.7349 9.59032 27.5229 9.59032ZM29.3313 9.59032C29.1193 9.59032 28.9483 9.76166 28.9483 9.97367C28.9483 9.974 28.9483 9.97433 28.9483 9.97467C28.9483 9.97467 28.9483 9.975 28.9483 9.97533C28.9483 10.1873 29.1196 10.3587 29.3313 10.3587C29.543 10.3587 29.7143 10.187 29.7143 9.97533C29.7143 9.975 29.7143 9.97467 29.7143 9.97467C29.7143 9.97433 29.7143 9.974 29.7143 9.97367C29.7147 9.76166 29.543 9.59032 29.3313 9.59032ZM18.4966 3.13177C18.7086 3.13177 18.88 2.95977 18.88 2.74843C18.88 2.53642 18.7083 2.36508 18.4966 2.36508C18.2849 2.36508 18.1136 2.53675 18.1136 2.74843C18.1136 2.95977 18.2849 3.13177 18.4966 3.13177ZM18.4966 4.93783C18.7086 4.93783 18.88 4.76582 18.88 4.55415C18.88 4.34248 18.7083 4.17114 18.4966 4.17114C18.2849 4.17114 18.1136 4.34281 18.1136 4.55415C18.1136 4.76616 18.2849 4.93783 18.4966 4.93783ZM18.4966 9.59032C18.2849 9.59032 18.1136 9.76166 18.1136 9.97367C18.1136 9.974 18.1136 9.97433 18.1136 9.97467C18.1136 9.97467 18.1136 9.975 18.1136 9.97533C18.1136 10.1873 18.2853 10.3587 18.4966 10.3587C18.7086 10.3587 18.88 10.187 18.88 9.97533C18.88 9.975 18.88 9.97467 18.88 9.97467C18.88 9.97433 18.88 9.974 18.88 9.97367C18.8803 9.76166 18.7086 9.59032 18.4966 9.59032ZM23.9135 3.13177C24.1251 3.13177 24.2968 2.95977 24.2968 2.74843C24.2968 2.53642 24.1248 2.36508 23.9135 2.36508C23.7015 2.36508 23.5301 2.53675 23.5301 2.74843C23.5301 2.95977 23.7015 3.13177 23.9135 3.13177ZM23.9135 4.93783C24.1251 4.93783 24.2968 4.76582 24.2968 4.55415C24.2968 4.34248 24.1248 4.17114 23.9135 4.17114C23.7015 4.17114 23.5301 4.34281 23.5301 4.55415C23.5301 4.76616 23.7015 4.93783 23.9135 4.93783ZM23.9135 9.59032C23.7015 9.59032 23.5301 9.76166 23.5301 9.97367C23.5301 9.974 23.5301 9.97433 23.5301 9.97467C23.5301 9.97467 23.5301 9.975 23.5301 9.97533C23.5301 10.1873 23.7018 10.3587 23.9135 10.3587C24.1251 10.3587 24.2968 10.187 24.2968 9.97533C24.2968 9.975 24.2968 9.97467 24.2968 9.97467C24.2968 9.97433 24.2968 9.974 24.2968 9.97367C24.2971 9.76166 24.1251 9.59032 23.9135 9.59032ZM4.04847 11.3984C3.83679 11.3984 3.66512 11.5701 3.66512 11.7817C3.66512 11.9934 3.83679 12.1651 4.04847 12.1651C4.26048 12.1651 4.43215 11.9931 4.43215 11.7817C4.43215 11.5701 4.26048 11.3984 4.04847 11.3984ZM5.85486 11.3984C5.64319 11.3984 5.47152 11.5701 5.47152 11.7817C5.47152 11.9934 5.64319 12.1651 5.85486 12.1651C6.06687 12.1651 6.23821 11.9931 6.23821 11.7817C6.23821 11.5701 6.06687 11.3984 5.85486 11.3984ZM3.14877 10.4953C2.9371 10.4953 2.76543 10.667 2.76543 10.8787C2.76543 11.0904 2.9371 11.262 3.14877 11.262C3.36045 11.262 3.53212 11.09 3.53212 10.8787C3.53212 10.667 3.36045 10.4953 3.14877 10.4953ZM4.95383 10.4953C4.74216 10.4953 4.57015 10.667 4.57015 10.8787C4.57015 11.0904 4.74216 11.262 4.95383 11.262C5.16551 11.262 5.33718 11.09 5.33718 10.8787C5.33718 10.667 5.16551 10.4953 4.95383 10.4953ZM4.95383 12.3017C4.74216 12.3017 4.57015 12.4734 4.57015 12.6848C4.57015 12.8968 4.74216 13.0681 4.95383 13.0681C5.16551 13.0681 5.33718 12.8964 5.33718 12.6848C5.33718 12.4734 5.16551 12.3017 4.95383 12.3017ZM6.75989 11.2624C6.97157 11.2624 7.14324 11.0904 7.14324 10.879C7.14324 10.667 6.97157 10.4957 6.75989 10.4957C6.54788 10.4957 6.37655 10.6674 6.37655 10.879C6.37655 11.0904 6.54788 11.2624 6.75989 11.2624ZM8.56629 10.4953C8.35428 10.4953 8.18261 10.667 8.18261 10.8787C8.18261 11.0904 8.35428 11.262 8.56629 11.262C8.77796 11.262 8.94963 11.09 8.94963 10.8787C8.94963 10.667 8.77796 10.4953 8.56629 10.4953ZM10.371 10.4953C10.1593 10.4953 9.98767 10.667 9.98767 10.8787C9.98767 11.0904 10.1593 11.262 10.371 11.262C10.583 11.262 10.7544 11.09 10.7544 10.8787C10.7544 10.667 10.583 10.4953 10.371 10.4953ZM12.1761 10.4953C11.9641 10.4953 11.7927 10.667 11.7927 10.8787C11.7927 11.0904 11.9644 11.262 12.1761 11.262C12.3877 11.262 12.5594 11.09 12.5594 10.8787C12.5594 10.667 12.3877 10.4953 12.1761 10.4953ZM13.9825 10.4953C13.7708 10.4953 13.5991 10.667 13.5991 10.8787C13.5991 11.0904 13.7711 11.262 13.9825 11.262C14.1941 11.262 14.3658 11.09 14.3658 10.8787C14.3658 10.667 14.1941 10.4953 13.9825 10.4953ZM15.7875 10.4953C15.5759 10.4953 15.4042 10.667 15.4042 10.8787C15.4042 11.0904 15.5762 11.262 15.7875 11.262C15.9989 11.262 16.1709 11.09 16.1709 10.8787C16.1709 10.667 15.9992 10.4953 15.7875 10.4953ZM4.04847 13.2024C3.83679 13.2024 3.66512 13.3741 3.66512 13.5858C3.66512 13.7975 3.83679 13.9691 4.04847 13.9691C4.26048 13.9691 4.43215 13.7971 4.43215 13.5858C4.43215 13.3741 4.26048 13.2024 4.04847 13.2024ZM5.85486 13.2024C5.64319 13.2024 5.47152 13.3741 5.47152 13.5858C5.47152 13.7975 5.64319 13.9691 5.85486 13.9691C6.06687 13.9691 6.23821 13.7971 6.23821 13.5858C6.23821 13.3741 6.06687 13.2024 5.85486 13.2024ZM4.95383 14.1055C4.74216 14.1055 4.57015 14.2771 4.57015 14.4888C4.57015 14.7005 4.74216 14.8722 4.95383 14.8722C5.16551 14.8722 5.33718 14.7002 5.33718 14.4888C5.33718 14.2771 5.16551 14.1055 4.95383 14.1055ZM6.75989 14.1055C6.54788 14.1055 6.37655 14.2771 6.37655 14.4888C6.37655 14.7005 6.54788 14.8722 6.75989 14.8722C6.97157 14.8722 7.14324 14.7002 7.14324 14.4888C7.14324 14.2771 6.97157 14.1055 6.75989 14.1055ZM8.56629 14.1055C8.35428 14.1055 8.18261 14.2771 8.18261 14.4888C8.18261 14.7005 8.35428 14.8722 8.56629 14.8722C8.77796 14.8722 8.94963 14.7002 8.94963 14.4888C8.94963 14.2771 8.77796 14.1055 8.56629 14.1055ZM10.371 14.1055C10.1593 14.1055 9.98767 14.2771 9.98767 14.4888C9.98767 14.7005 10.1593 14.8722 10.371 14.8722C10.583 14.8722 10.7544 14.7002 10.7544 14.4888C10.7544 14.2771 10.583 14.1055 10.371 14.1055ZM12.1761 14.1055C11.9641 14.1055 11.7927 14.2771 11.7927 14.4888C11.7927 14.7005 11.9644 14.8722 12.1761 14.8722C12.3877 14.8722 12.5594 14.7002 12.5594 14.4888C12.5594 14.2771 12.3877 14.1055 12.1761 14.1055ZM13.9825 14.1055C13.7708 14.1055 13.5991 14.2771 13.5991 14.4888C13.5991 14.7005 13.7711 14.8722 13.9825 14.8722C14.1941 14.8722 14.3658 14.7002 14.3658 14.4888C14.3658 14.2771 14.1941 14.1055 13.9825 14.1055ZM15.7875 14.1055C15.5759 14.1055 15.4042 14.2771 15.4042 14.4888C15.4042 14.7005 15.5762 14.8722 15.7875 14.8722C15.9989 14.8722 16.1709 14.7002 16.1709 14.4888C16.1709 14.2771 15.9992 14.1055 15.7875 14.1055ZM4.04847 15.0088C3.83679 15.0088 3.66512 15.1805 3.66512 15.3922C3.66512 15.6039 3.83679 15.7752 4.04847 15.7752C4.26048 15.7752 4.43215 15.6039 4.43215 15.3922C4.43215 15.1805 4.26048 15.0088 4.04847 15.0088ZM5.85486 15.0088C5.64319 15.0088 5.47152 15.1805 5.47152 15.3922C5.47152 15.6039 5.64319 15.7752 5.85486 15.7752C6.06687 15.7752 6.23821 15.6039 6.23821 15.3922C6.23821 15.1805 6.06687 15.0088 5.85486 15.0088ZM7.66292 15.0088C7.45091 15.0088 7.27958 15.1805 7.27958 15.3922C7.27958 15.6039 7.45091 15.7752 7.66292 15.7752C7.8746 15.7752 8.04627 15.6039 8.04627 15.3922C8.04627 15.1805 7.8746 15.0088 7.66292 15.0088ZM9.46598 15.0088C9.25431 15.0088 9.08264 15.1805 9.08264 15.3922C9.08264 15.6039 9.25431 15.7752 9.46598 15.7752C9.67799 15.7752 9.84933 15.6039 9.84933 15.3922C9.84933 15.1805 9.67799 15.0088 9.46598 15.0088ZM11.272 15.0088C11.0604 15.0088 10.8887 15.1805 10.8887 15.3922C10.8887 15.6039 11.0604 15.7752 11.272 15.7752C11.4837 15.7752 11.6554 15.6039 11.6554 15.3922C11.6554 15.1805 11.484 15.0088 11.272 15.0088ZM13.0791 15.0088C12.8674 15.0088 12.6958 15.1805 12.6958 15.3922C12.6958 15.6039 12.8674 15.7752 13.0791 15.7752C13.2908 15.7752 13.4624 15.6039 13.4624 15.3922C13.4624 15.1805 13.2908 15.0088 13.0791 15.0088ZM14.8822 15.0088C14.6705 15.0088 14.4988 15.1805 14.4988 15.3922C14.4988 15.6039 14.6705 15.7752 14.8822 15.7752C15.0938 15.7752 15.2655 15.6039 15.2655 15.3922C15.2655 15.1805 15.0938 15.0088 14.8822 15.0088ZM4.04847 16.8152C3.83679 16.8152 3.66512 16.9872 3.66512 17.1986C3.66512 17.4099 3.83679 17.5819 4.04847 17.5819C4.26048 17.5819 4.43215 17.4099 4.43215 17.1986C4.43215 16.9872 4.26048 16.8152 4.04847 16.8152ZM5.85486 16.8152C5.64319 16.8152 5.47152 16.9872 5.47152 17.1986C5.47152 17.4099 5.64319 17.5819 5.85486 17.5819C6.06687 17.5819 6.23821 17.4099 6.23821 17.1986C6.23821 16.9872 6.06687 16.8152 5.85486 16.8152ZM3.14877 15.9122C2.9371 15.9122 2.76543 16.0835 2.76543 16.2955C2.76543 16.5072 2.9371 16.6789 3.14877 16.6789C3.36045 16.6789 3.53212 16.5069 3.53212 16.2955C3.53212 16.0835 3.36045 15.9122 3.14877 15.9122ZM4.95383 15.9122C4.74216 15.9122 4.57015 16.0835 4.57015 16.2955C4.57015 16.5072 4.74216 16.6789 4.95383 16.6789C5.16551 16.6789 5.33718 16.5069 5.33718 16.2955C5.33718 16.0835 5.16551 15.9122 4.95383 15.9122ZM9.46598 16.8152C9.25431 16.8152 9.08264 16.9872 9.08264 17.1986C9.08264 17.4099 9.25431 17.5819 9.46598 17.5819C9.67799 17.5819 9.84933 17.4099 9.84933 17.1986C9.84933 16.9872 9.67799 16.8152 9.46598 16.8152ZM11.272 16.8152C11.0604 16.8152 10.8887 16.9872 10.8887 17.1986C10.8887 17.4099 11.0604 17.5819 11.272 17.5819C11.4837 17.5819 11.6554 17.4099 11.6554 17.1986C11.6554 16.9872 11.484 16.8152 11.272 16.8152ZM7.66292 16.8152C7.45091 16.8152 7.27958 16.9869 7.27958 17.1986C7.27958 17.4102 7.45091 17.5819 7.66292 17.5819C7.8746 17.5819 8.04627 17.4099 8.04627 17.1986C8.04627 16.9869 7.8746 16.8152 7.66292 16.8152ZM6.75989 15.9122C6.54788 15.9122 6.37655 16.0835 6.37655 16.2955C6.37655 16.5072 6.54788 16.6789 6.75989 16.6789C6.97157 16.6789 7.14324 16.5069 7.14324 16.2955C7.14324 16.0835 6.97157 15.9122 6.75989 15.9122ZM8.56629 15.9122C8.35428 15.9122 8.18261 16.0835 8.18261 16.2955C8.18261 16.5072 8.35428 16.6789 8.56629 16.6789C8.77796 16.6789 8.94963 16.5069 8.94963 16.2955C8.94963 16.0835 8.77796 15.9122 8.56629 15.9122ZM10.371 15.9122C10.1593 15.9122 9.98767 16.0835 9.98767 16.2955C9.98767 16.5072 10.1593 16.6789 10.371 16.6789C10.583 16.6789 10.7544 16.5069 10.7544 16.2955C10.7544 16.0835 10.583 15.9122 10.371 15.9122ZM14.8822 16.8152C14.6705 16.8152 14.4988 16.9872 14.4988 17.1986C14.4988 17.4099 14.6705 17.5819 14.8822 17.5819C15.0938 17.5819 15.2655 17.4099 15.2655 17.1986C15.2655 16.9872 15.0938 16.8152 14.8822 16.8152ZM13.0791 16.8152C12.8674 16.8152 12.6958 16.9869 12.6958 17.1986C12.6958 17.4102 12.8674 17.5819 13.0791 17.5819C13.2908 17.5819 13.4624 17.4099 13.4624 17.1986C13.4624 16.9869 13.2908 16.8152 13.0791 16.8152ZM12.1761 15.9122C11.9641 15.9122 11.7927 16.0835 11.7927 16.2955C11.7927 16.5072 11.9644 16.6789 12.1761 16.6789C12.3877 16.6789 12.5594 16.5069 12.5594 16.2955C12.5594 16.0835 12.3877 15.9122 12.1761 15.9122ZM13.9825 15.9122C13.7708 15.9122 13.5991 16.0835 13.5991 16.2955C13.5991 16.5072 13.7711 16.6789 13.9825 16.6789C14.1941 16.6789 14.3658 16.5069 14.3658 16.2955C14.3658 16.0835 14.1941 15.9122 13.9825 15.9122ZM15.7875 15.9122C15.5759 15.9122 15.4042 16.0835 15.4042 16.2955C15.4042 16.5072 15.5762 16.6789 15.7875 16.6789C15.9989 16.6789 16.1709 16.5069 16.1709 16.2955C16.1709 16.0835 15.9992 15.9122 15.7875 15.9122ZM17.5943 10.4953C17.3826 10.4953 17.2109 10.667 17.2109 10.8787C17.2109 11.0904 17.3829 11.262 17.5943 11.262C17.8056 11.262 17.9776 11.09 17.9776 10.8787C17.9779 10.667 17.8059 10.4953 17.5943 10.4953ZM19.4006 10.4953C19.1886 10.4953 19.0176 10.667 19.0176 10.8787C19.0176 11.0904 19.189 11.262 19.4006 11.262C19.6123 11.262 19.784 11.09 19.784 10.8787C19.7843 10.667 19.6123 10.4953 19.4006 10.4953ZM21.2057 10.4953C20.9937 10.4953 20.8224 10.667 20.8224 10.8787C20.8224 11.0904 20.994 11.262 21.2057 11.262C21.4174 11.262 21.5891 11.09 21.5891 10.8787C21.5894 10.667 21.4174 10.4953 21.2057 10.4953ZM27.5229 11.3984C27.3112 11.3984 27.1396 11.5701 27.1396 11.7817C27.1396 11.9934 27.3116 12.1651 27.5229 12.1651C27.7349 12.1651 27.9063 11.9931 27.9063 11.7817C27.9066 11.5701 27.7349 11.3984 27.5229 11.3984ZM23.0108 10.4953C22.7988 10.4953 22.6271 10.667 22.6271 10.8787C22.6271 11.0904 22.7991 11.262 23.0108 11.262C23.2224 11.262 23.3938 11.09 23.3938 10.8787C23.3941 10.667 23.2228 10.4953 23.0108 10.4953ZM24.8168 10.4953C24.6048 10.4953 24.4338 10.667 24.4338 10.8787C24.4338 11.0904 24.6052 11.262 24.8168 11.262C25.0285 11.262 25.2002 11.09 25.2002 10.8787C25.2005 10.667 25.0288 10.4953 24.8168 10.4953ZM26.6219 10.4953C26.4102 10.4953 26.2385 10.667 26.2385 10.8787C26.2385 11.0904 26.4105 11.262 26.6219 11.262C26.8339 11.262 27.0052 11.09 27.0052 10.8787C27.0056 10.667 26.8339 10.4953 26.6219 10.4953ZM31.1344 10.359C31.346 10.359 31.517 10.1873 31.517 9.97567C31.517 9.97533 31.517 9.975 31.517 9.975C31.517 9.97467 31.517 9.97433 31.517 9.974C31.517 9.76199 31.3457 9.59065 31.1344 9.59065C30.922 9.59065 30.7507 9.76199 30.7507 9.974C30.7507 9.97433 30.751 9.97467 30.751 9.975C30.751 9.975 30.7507 9.97533 30.7507 9.97567C30.7507 10.1877 30.9224 10.359 31.1344 10.359ZM29.3313 11.3984C29.1193 11.3984 28.9483 11.5701 28.9483 11.7817C28.9483 11.9934 29.1196 12.1651 29.3313 12.1651C29.543 12.1651 29.7143 11.9934 29.7143 11.7817C29.7143 11.5701 29.543 11.3984 29.3313 11.3984ZM28.4279 10.4953C28.2163 10.4953 28.0449 10.667 28.0449 10.8787C28.0449 11.0904 28.2166 11.262 28.4279 11.262C28.6393 11.262 28.8113 11.09 28.8113 10.8787C28.8116 10.667 28.6396 10.4953 28.4279 10.4953ZM30.2347 10.4953C30.0223 10.4953 29.8507 10.667 29.8507 10.8787C29.8507 11.0904 30.0227 11.262 30.2347 11.262C30.4463 11.262 30.618 11.09 30.618 10.8787C30.6184 10.667 30.4463 10.4953 30.2347 10.4953ZM28.4279 12.3017C28.2163 12.3017 28.0449 12.4734 28.0449 12.6848C28.0449 12.8968 28.2166 13.0681 28.4279 13.0681C28.6393 13.0681 28.8113 12.8964 28.8113 12.6848C28.8116 12.4734 28.6396 12.3017 28.4279 12.3017ZM17.5943 14.1055C17.3826 14.1055 17.2109 14.2771 17.2109 14.4888C17.2109 14.7005 17.3829 14.8722 17.5943 14.8722C17.8056 14.8722 17.9776 14.7002 17.9776 14.4888C17.9779 14.2771 17.8059 14.1055 17.5943 14.1055ZM19.4006 14.1055C19.1886 14.1055 19.0176 14.2771 19.0176 14.4888C19.0176 14.7005 19.189 14.8722 19.4006 14.8722C19.6123 14.8722 19.784 14.7002 19.784 14.4888C19.7843 14.2771 19.6127 14.1055 19.4006 14.1055ZM21.2057 14.1055C20.9937 14.1055 20.8224 14.2771 20.8224 14.4888C20.8224 14.7005 20.994 14.8722 21.2057 14.8722C21.4174 14.8722 21.5891 14.7002 21.5891 14.4888C21.5894 14.2771 21.4174 14.1055 21.2057 14.1055ZM27.5229 13.2024C27.3112 13.2024 27.1396 13.3741 27.1396 13.5858C27.1396 13.7975 27.3116 13.9691 27.5229 13.9691C27.7349 13.9691 27.9063 13.7971 27.9063 13.5858C27.9066 13.3741 27.7349 13.2024 27.5229 13.2024ZM23.0108 14.1055C22.7988 14.1055 22.6271 14.2771 22.6271 14.4888C22.6271 14.7005 22.7991 14.8722 23.0108 14.8722C23.2224 14.8722 23.3938 14.7002 23.3938 14.4888C23.3941 14.2771 23.2228 14.1055 23.0108 14.1055ZM24.8168 14.1055C24.6048 14.1055 24.4338 14.2771 24.4338 14.4888C24.4338 14.7005 24.6052 14.8722 24.8168 14.8722C25.0285 14.8722 25.2002 14.7002 25.2002 14.4888C25.2005 14.2771 25.0288 14.1055 24.8168 14.1055ZM26.6219 14.1055C26.4102 14.1055 26.2385 14.2771 26.2385 14.4888C26.2385 14.7005 26.4105 14.8722 26.6219 14.8722C26.8339 14.8722 27.0052 14.7002 27.0052 14.4888C27.0056 14.2771 26.8339 14.1055 26.6219 14.1055ZM29.3313 13.2024C29.1193 13.2024 28.9483 13.3741 28.9483 13.5858C28.9483 13.7975 29.1196 13.9691 29.3313 13.9691C29.543 13.9691 29.7143 13.7971 29.7143 13.5858C29.7147 13.3741 29.543 13.2024 29.3313 13.2024ZM28.4279 14.1055C28.2163 14.1055 28.0449 14.2771 28.0449 14.4888C28.0449 14.7005 28.2166 14.8722 28.4279 14.8722C28.6393 14.8722 28.8113 14.7002 28.8113 14.4888C28.8116 14.2771 28.6396 14.1055 28.4279 14.1055ZM16.6912 15.0088C16.4795 15.0088 16.3079 15.1805 16.3079 15.3922C16.3079 15.6039 16.4795 15.7752 16.6912 15.7752C16.9029 15.7752 17.0746 15.6039 17.0746 15.3922C17.0746 15.1805 16.9029 15.0088 16.6912 15.0088ZM20.3003 15.0088C20.0883 15.0088 19.9173 15.1805 19.9173 15.3922C19.9173 15.6039 20.0887 15.7752 20.3003 15.7752C20.512 15.7752 20.684 15.6039 20.684 15.3922C20.684 15.1805 20.5124 15.0088 20.3003 15.0088ZM22.1067 15.0088C21.8951 15.0088 21.7234 15.1805 21.7234 15.3922C21.7234 15.6039 21.8954 15.7752 22.1067 15.7752C22.3181 15.7752 22.4901 15.6039 22.4901 15.3922C22.4901 15.1805 22.3184 15.0088 22.1067 15.0088ZM25.7169 15.0088C25.5049 15.0088 25.3335 15.1805 25.3335 15.3922C25.3335 15.6039 25.5052 15.7752 25.7169 15.7752C25.9285 15.7752 26.1002 15.6039 26.1002 15.3922C26.1002 15.1805 25.9285 15.0088 25.7169 15.0088ZM27.5229 15.0088C27.3112 15.0088 27.1396 15.1805 27.1396 15.3922C27.1396 15.6039 27.3116 15.7752 27.5229 15.7752C27.7349 15.7752 27.9063 15.6039 27.9063 15.3922C27.9063 15.1805 27.7349 15.0088 27.5229 15.0088ZM29.3313 15.0088C29.1193 15.0088 28.9483 15.1805 28.9483 15.3922C28.9483 15.6039 29.1196 15.7752 29.3313 15.7752C29.543 15.7752 29.7143 15.6039 29.7143 15.3922C29.7143 15.1805 29.543 15.0088 29.3313 15.0088ZM16.6912 16.8152C16.4795 16.8152 16.3079 16.9872 16.3079 17.1986C16.3079 17.4099 16.4795 17.5819 16.6912 17.5819C16.9029 17.5819 17.0746 17.4099 17.0746 17.1986C17.0746 16.9872 16.9029 16.8152 16.6912 16.8152ZM20.3003 16.8152C20.0883 16.8152 19.9173 16.9872 19.9173 17.1986C19.9173 17.4099 20.0887 17.5819 20.3003 17.5819C20.512 17.5819 20.684 17.4099 20.684 17.1986C20.684 16.9872 20.5124 16.8152 20.3003 16.8152ZM22.1067 16.8152C21.8951 16.8152 21.7234 16.9872 21.7234 17.1986C21.7234 17.4099 21.8954 17.5819 22.1067 17.5819C22.3181 17.5819 22.4901 17.4099 22.4901 17.1986C22.4901 16.9872 22.3184 16.8152 22.1067 16.8152ZM17.5943 15.9122C17.3826 15.9122 17.2109 16.0835 17.2109 16.2955C17.2109 16.5072 17.3829 16.6789 17.5943 16.6789C17.8056 16.6789 17.9776 16.5069 17.9776 16.2955C17.9779 16.0835 17.8059 15.9122 17.5943 15.9122ZM19.4006 15.9122C19.1886 15.9122 19.0176 16.0835 19.0176 16.2955C19.0176 16.5072 19.189 16.6789 19.4006 16.6789C19.6123 16.6789 19.784 16.5069 19.784 16.2955C19.7843 16.0835 19.6123 15.9122 19.4006 15.9122ZM21.2057 15.9122C20.9937 15.9122 20.8224 16.0835 20.8224 16.2955C20.8224 16.5072 20.994 16.6789 21.2057 16.6789C21.4174 16.6789 21.5891 16.5069 21.5891 16.2955C21.5894 16.0835 21.4174 15.9122 21.2057 15.9122ZM25.7169 16.8152C25.5049 16.8152 25.3335 16.9872 25.3335 17.1986C25.3335 17.4099 25.5052 17.5819 25.7169 17.5819C25.9285 17.5819 26.1002 17.4099 26.1002 17.1986C26.1002 16.9872 25.9285 16.8152 25.7169 16.8152ZM27.5229 16.8152C27.3112 16.8152 27.1396 16.9872 27.1396 17.1986C27.1396 17.4099 27.3116 17.5819 27.5229 17.5819C27.7349 17.5819 27.9063 17.4099 27.9063 17.1986C27.9063 16.9872 27.7349 16.8152 27.5229 16.8152ZM23.0108 15.9122C22.7988 15.9122 22.6271 16.0835 22.6271 16.2955C22.6271 16.5072 22.7991 16.6789 23.0108 16.6789C23.2224 16.6789 23.3938 16.5069 23.3938 16.2955C23.3941 16.0835 23.2228 15.9122 23.0108 15.9122ZM24.8168 15.9122C24.6048 15.9122 24.4338 16.0835 24.4338 16.2955C24.4338 16.5072 24.6052 16.6789 24.8168 16.6789C25.0285 16.6789 25.2002 16.5069 25.2002 16.2955C25.2005 16.0835 25.0288 15.9122 24.8168 15.9122ZM26.6219 15.9122C26.4102 15.9122 26.2385 16.0835 26.2385 16.2955C26.2385 16.5072 26.4105 16.6789 26.6219 16.6789C26.8339 16.6789 27.0052 16.5069 27.0052 16.2955C27.0056 16.0835 26.8339 15.9122 26.6219 15.9122ZM29.3313 16.8152C29.1193 16.8152 28.9483 16.9869 28.9483 17.1986C28.9483 17.4102 29.1196 17.5819 29.3313 17.5819C29.543 17.5819 29.7143 17.4099 29.7143 17.1986C29.7147 16.9869 29.543 16.8152 29.3313 16.8152ZM28.4279 15.9122C28.2163 15.9122 28.0449 16.0835 28.0449 16.2955C28.0449 16.5072 28.2166 16.6789 28.4279 16.6789C28.6393 16.6789 28.8113 16.5069 28.8113 16.2955C28.8116 16.0835 28.6396 15.9122 28.4279 15.9122ZM18.4966 15.0088C18.2849 15.0088 18.1136 15.1805 18.1136 15.3922C18.1136 15.6039 18.2853 15.7752 18.4966 15.7752C18.7086 15.7752 18.88 15.6039 18.88 15.3922C18.88 15.1805 18.7086 15.0088 18.4966 15.0088ZM18.4966 16.8152C18.2849 16.8152 18.1136 16.9872 18.1136 17.1986C18.1136 17.4099 18.2853 17.5819 18.4966 17.5819C18.7086 17.5819 18.88 17.4099 18.88 17.1986C18.88 16.9872 18.7086 16.8152 18.4966 16.8152ZM23.9135 15.0088C23.7015 15.0088 23.5301 15.1805 23.5301 15.3922C23.5301 15.6039 23.7018 15.7752 23.9135 15.7752C24.1251 15.7752 24.2968 15.6039 24.2968 15.3922C24.2968 15.1805 24.1251 15.0088 23.9135 15.0088ZM23.9135 16.8152C23.7015 16.8152 23.5301 16.9872 23.5301 17.1986C23.5301 17.4099 23.7018 17.5819 23.9135 17.5819C24.1251 17.5819 24.2968 17.4099 24.2968 17.1986C24.2968 16.9872 24.1251 16.8152 23.9135 16.8152Z" fill="#C1B904"/>
</svg>
