<svg width="186" height="186" viewBox="0 0 186 186" fill="none" xmlns="http://www.w3.org/2000/svg">
<rect x="150.572" y="168.285" width="8.85714" height="8.85714" transform="rotate(-180 150.572 168.285)" fill="#0000FF"/>
<rect x="168.286" y="150.571" width="8.85714" height="8.85714" transform="rotate(-180 168.286 150.571)" fill="#0000FF"/>
<rect x="150.572" y="150.571" width="8.85714" height="8.85714" transform="rotate(-180 150.572 150.571)" fill="#0000FF"/>
<rect x="132.858" y="186" width="8.85714" height="8.85714" transform="rotate(-180 132.858 186)" fill="#0000FF"/>
<rect x="115.144" y="186" width="8.85714" height="8.85714" transform="rotate(-180 115.144 186)" fill="#0000FF"/>
<rect x="97.4293" y="186" width="8.85714" height="8.85714" transform="rotate(-180 97.4293 186)" fill="#0000FF"/>
<rect x="132.858" y="168.286" width="8.85714" height="8.85714" transform="rotate(-180 132.858 168.286)" fill="#0000FF"/>
<rect x="115.144" y="168.286" width="8.85714" height="8.85714" transform="rotate(-180 115.144 168.286)" fill="#0000FF"/>
<rect x="97.4293" y="168.286" width="8.85714" height="8.85714" transform="rotate(-180 97.4293 168.286)" fill="#0000FF"/>
<rect x="132.858" y="150.571" width="8.85714" height="8.85714" transform="rotate(-180 132.858 150.571)" fill="#0000FF"/>
<rect x="115.144" y="150.571" width="8.85714" height="8.85714" transform="rotate(-180 115.144 150.571)" fill="#0000FF"/>
<rect x="97.4293" y="150.571" width="8.85714" height="8.85714" transform="rotate(-180 97.4293 150.571)" fill="#0000FF"/>
<rect x="79.7151" y="186" width="8.85714" height="8.85714" transform="rotate(-180 79.7151 186)" fill="#0000FF"/>
<rect x="62.0007" y="186" width="8.85714" height="8.85714" transform="rotate(-180 62.0007 186)" fill="#0000FF"/>
<rect x="44.2865" y="186" width="8.85714" height="8.85714" transform="rotate(-180 44.2865 186)" fill="#0000FF"/>
<rect x="79.7151" y="168.286" width="8.85714" height="8.85714" transform="rotate(-180 79.7151 168.286)" fill="#0000FF"/>
<rect x="62.0007" y="168.286" width="8.85714" height="8.85714" transform="rotate(-180 62.0007 168.286)" fill="#0000FF"/>
<rect x="44.2865" y="168.286" width="8.85714" height="8.85714" transform="rotate(-180 44.2865 168.286)" fill="#0000FF"/>
<rect x="79.7151" y="150.571" width="8.85714" height="8.85714" transform="rotate(-180 79.7151 150.571)" fill="#0000FF"/>
<rect x="62.0007" y="150.571" width="8.85714" height="8.85714" transform="rotate(-180 62.0007 150.571)" fill="#0000FF"/>
<rect x="44.2865" y="150.571" width="8.85714" height="8.85714" transform="rotate(-180 44.2865 150.571)" fill="#0000FF"/>
<rect x="26.5721" y="186" width="8.85714" height="8.85714" transform="rotate(-180 26.5721 186)" fill="#0000FF"/>
<rect x="8.85791" y="186" width="8.85714" height="8.85714" transform="rotate(-180 8.85791 186)" fill="#0000FF"/>
<rect x="26.5721" y="168.286" width="8.85714" height="8.85714" transform="rotate(-180 26.5721 168.286)" fill="#0000FF"/>
<rect x="8.85791" y="168.286" width="8.85714" height="8.85714" transform="rotate(-180 8.85791 168.286)" fill="#0000FF"/>
<rect x="26.5721" y="150.571" width="8.85714" height="8.85714" transform="rotate(-180 26.5721 150.571)" fill="#0000FF"/>
<rect x="8.85791" y="150.571" width="8.85714" height="8.85714" transform="rotate(-180 8.85791 150.571)" fill="#0000FF"/>
<rect x="186.001" y="132.855" width="8.85714" height="8.85714" transform="rotate(-180 186.001 132.855)" fill="#0000FF"/>
<rect x="168.286" y="132.856" width="8.85714" height="8.85714" transform="rotate(-180 168.286 132.856)" fill="#0000FF"/>
<rect x="150.572" y="132.856" width="8.85714" height="8.85714" transform="rotate(-180 150.572 132.856)" fill="#0000FF"/>
<rect x="132.858" y="132.856" width="8.85714" height="8.85714" transform="rotate(-180 132.858 132.856)" fill="#0000FF"/>
<rect x="115.144" y="132.857" width="8.85714" height="8.85714" transform="rotate(-180 115.144 132.857)" fill="#0000FF"/>
<rect x="97.4293" y="132.857" width="8.85714" height="8.85714" transform="rotate(-180 97.4293 132.857)" fill="#0000FF"/>
<rect x="79.7151" y="132.856" width="8.85714" height="8.85714" transform="rotate(-180 79.7151 132.856)" fill="#0000FF"/>
<rect x="62.0007" y="132.857" width="8.85714" height="8.85714" transform="rotate(-180 62.0007 132.857)" fill="#0000FF"/>
<rect x="44.2865" y="132.857" width="8.85714" height="8.85714" transform="rotate(-180 44.2865 132.857)" fill="#0000FF"/>
<rect x="62.0007" y="115.144" width="8.85714" height="8.85714" transform="rotate(-180 62.0007 115.144)" fill="#0000FF"/>
<rect x="44.2865" y="115.144" width="8.85714" height="8.85714" transform="rotate(-180 44.2865 115.144)" fill="#0000FF"/>
<rect x="62.0007" y="97.4287" width="8.85714" height="8.85714" transform="rotate(-180 62.0007 97.4287)" fill="#0000FF"/>
<rect x="44.2865" y="97.4287" width="8.85714" height="8.85714" transform="rotate(-180 44.2865 97.4287)" fill="#0000FF"/>
<rect x="26.5721" y="132.856" width="8.85714" height="8.85714" transform="rotate(-180 26.5721 132.856)" fill="#0000FF"/>
<rect x="8.85803" y="132.857" width="8.85714" height="8.85714" transform="rotate(-180 8.85803 132.857)" fill="#0000FF"/>
<rect x="26.5723" y="115.144" width="8.85714" height="8.85714" transform="rotate(-180 26.5723 115.144)" fill="#0000FF"/>
<rect x="8.85803" y="115.144" width="8.85714" height="8.85714" transform="rotate(-180 8.85803 115.144)" fill="#0000FF"/>
<rect x="26.5723" y="97.4287" width="8.85714" height="8.85714" transform="rotate(-180 26.5723 97.4287)" fill="#0000FF"/>
<rect x="8.85803" y="97.4287" width="8.85714" height="8.85714" transform="rotate(-180 8.85803 97.4287)" fill="#0000FF"/>
<rect x="62.0009" y="79.7148" width="8.85714" height="8.85714" transform="rotate(-180 62.0009 79.7148)" fill="#0000FF"/>
<rect x="44.2865" y="79.7148" width="8.85714" height="8.85714" transform="rotate(-180 44.2865 79.7148)" fill="#0000FF"/>
<rect x="62.0009" y="62.001" width="8.85714" height="8.85714" transform="rotate(-180 62.0009 62.001)" fill="#0000FF"/>
<rect x="44.2865" y="62.001" width="8.85714" height="8.85714" transform="rotate(-180 44.2865 62.001)" fill="#0000FF"/>
<rect x="62.0009" y="44.2861" width="8.85714" height="8.85714" transform="rotate(-180 62.0009 44.2861)" fill="#0000FF"/>
<rect x="44.2865" y="44.2861" width="8.85714" height="8.85714" transform="rotate(-180 44.2865 44.2861)" fill="#0000FF"/>
<rect x="26.5721" y="79.7148" width="8.85714" height="8.85714" transform="rotate(-180 26.5721 79.7148)" fill="#0000FF"/>
<rect x="8.85803" y="79.7148" width="8.85714" height="8.85714" transform="rotate(-180 8.85803 79.7148)" fill="#0000FF"/>
<rect x="26.5723" y="62.001" width="8.85714" height="8.85714" transform="rotate(-180 26.5723 62.001)" fill="#0000FF"/>
<rect x="8.85803" y="62.001" width="8.85714" height="8.85714" transform="rotate(-180 8.85803 62.001)" fill="#0000FF"/>
<rect x="26.5723" y="44.2861" width="8.85714" height="8.85714" transform="rotate(-180 26.5723 44.2861)" fill="#0000FF"/>
<rect x="62.0009" y="26.5713" width="8.85714" height="8.85714" transform="rotate(-180 62.0009 26.5713)" fill="#0000FF"/>
<rect x="44.2865" y="26.5713" width="8.85714" height="8.85714" transform="rotate(-180 44.2865 26.5713)" fill="#0000FF"/>
<rect x="62.0009" y="8.85742" width="8.85714" height="8.85714" transform="rotate(-180 62.0009 8.85742)" fill="#0000FF"/>
</svg>
