<svg width="61" height="41" viewBox="0 0 61 41" fill="none" xmlns="http://www.w3.org/2000/svg">
<path d="M15.7892 22.2006C15.6018 22.7647 15.555 23.2347 15.555 23.5167V30.9902H21.5521V7.34766L0 30.9902H8.05859L15.1333 23.1407C15.5081 22.7177 15.8829 21.9656 15.7892 22.2006Z" fill="white"/>
<path d="M29.0474 17.1249C29.2348 16.5609 29.2816 16.0909 29.2816 15.8089V7.58331H23.5188V31.6959L52.005 0.48584H43.8059L29.7502 16.1849C29.3285 16.6079 28.9537 17.36 29.0474 17.1249Z" fill="white"/>
<path d="M49.3365 18.7234L60.909 6.07959V30.9912H54.6776V21.5906L43.5736 33.8584V21.4026L26.332 40.4859H18.1328L49.2896 6.3616V18.7234" fill="white"/>
</svg>
