<svg width="1280" height="320" viewBox="0 0 1280 320" fill="none" xmlns="http://www.w3.org/2000/svg">
<g clip-path="url(#clip0)">
<path d="M1338.58 1.22723L1371.1 15.0336H1407V16.5676H1374.48L1407 30.0671V31.6012L1371.41 16.5676H1297.47L1329.69 31.908H1407V33.442H1333.06L1369.26 50.3164H1407V52.1572H1372.95L1407 68.1112V69.9521L1369.57 52.1572H1287.04L1322.63 71.1793H1407V73.3269H1326.62L1366.81 94.8035H1407V96.9511H1371.1L1407 115.973V118.121L1367.12 96.6443H1273.85L1313.73 121.189H1407V123.643H1318.03L1363.74 151.87H1407V154.938H1368.65L1407 178.869V181.937L1363.74 155.244H1256.67L1301.77 187.766H1407V191.141H1306.68L1359.45 229.799H1407V234.094H1365.28L1407 264.468V268.763L1359.75 234.094H1233.96L1285.2 279.808H1407V284.717H1291.03L1330.91 320.307H1324.47L1284.89 284.717H1146.83L1177.82 320.307H1171.38L1140.7 284.717H1002.64L1025.03 320.307H1018.59L996.808 284.717H858.748L872.248 320.307H865.805L852.612 284.717H714.552L719.154 320.307H712.712L708.416 284.717H570.356L566.061 320.307H559.618L564.22 284.717H426.16L412.968 320.307H406.525L420.024 284.717H281.964L260.182 320.307H253.739L276.135 284.717H138.075L107.395 320.307H100.952L131.939 284.717H-6.12085L-45.698 320.307H-52.1409L-12.2568 284.717H-127V279.808H-5.20044L46.3419 234.094H-79.446L-127 268.763V264.468L-85.2753 234.094H-127V229.799H-79.446L-26.6764 191.448H-127V188.073H-21.7677L23.3319 155.244H-83.7412L-127 181.937V178.869L-88.65 155.244H-127V152.176H-83.7412L-38.0281 123.95H-127V121.496H-33.7329L6.15112 96.9511H-87.1161L-127 118.428V116.28L-91.1044 97.2579H-127V95.1103H-86.8092L-46.6184 73.6338H-127V71.4861H-42.63L-7.04126 52.1572H-89.5704L-127 69.9521V68.1112L-92.9452 52.1572H-127V50.3164H-89.2637L-53.0613 33.442H-127V31.908H-49.6864L-17.4724 16.5676H-91.4113L-127 31.6012V30.0671L-94.4792 16.2608H-127V15.0336H-91.1044L-58.5836 1.22723H-127V0H1407V1.22723H1338.58ZM1294.1 16.5676H1220.16L1248.69 31.908H1326.31L1294.1 16.5676ZM379.527 121.496L394.867 96.9511H301.6L280.43 121.496H379.527ZM278.283 123.95L253.739 152.176H360.198L377.993 123.95H278.283ZM999.57 121.496L978.4 96.9511H885.133L900.473 121.496H999.57ZM902.007 123.95L919.802 152.176H1026.26L1001.72 123.95H902.007ZM400.389 94.8035H493.043L501.326 73.3269H413.888L400.389 94.8035ZM409.9 73.0201H322.462L303.747 94.4967H396.401L409.9 73.0201ZM497.031 94.8035H589.685L592.446 73.3269H505.008L497.031 94.8035ZM590.605 121.496H689.702L686.634 96.9511H593.366L590.605 121.496ZM690.315 94.8035H782.969L774.992 73.3269H687.554L690.315 94.8035ZM786.957 94.8035H879.611L866.418 73.3269H778.98L786.957 94.8035ZM883.599 94.8035H976.253L957.538 73.3269H870.1L883.599 94.8035ZM980.241 94.8035H1072.89L1048.96 73.3269H961.526L980.241 94.8035ZM880.838 96.9511H787.571L796.775 121.496H895.871L880.838 96.9511ZM783.889 96.9511H690.622L693.69 121.496H792.786L783.889 96.9511ZM689.702 123.95H589.992L586.617 152.176H693.076L689.702 123.95ZM589.378 96.9511H496.111L487.214 121.496H586.31L589.378 96.9511ZM492.122 96.9511H398.855L383.822 121.496H482.918L492.122 96.9511ZM318.474 73.0201H231.036L207.105 94.4967H299.759L318.474 73.0201ZM320.314 71.1793L336.882 52.1572H254.352L233.183 71.1793H320.314ZM324.303 71.1793H411.127L423.092 52.1572H340.563L324.303 71.1793ZM415.116 71.1793H501.94L509.303 52.1572H426.774L415.116 71.1793ZM505.622 71.1793H592.446L594.9 52.1572H512.371L505.622 71.1793ZM593.673 94.8035H686.327L683.872 73.3269H596.434L593.673 94.8035ZM687.247 71.1793H774.072L767.015 52.1572H684.486L687.247 71.1793ZM778.06 71.1793H864.884L853.226 52.1572H770.697L778.06 71.1793ZM868.873 71.1793H955.697L939.13 52.1572H856.601L868.873 71.1793ZM959.686 71.1793H1046.51L1025.34 52.1572H942.812L959.686 71.1793ZM1050.5 71.1793H1137.32L1111.24 52.1572H1028.72L1050.5 71.1793ZM1052.65 73.0201L1076.88 94.4967H1169.54L1140.08 73.0201H1052.65ZM1075.35 96.9511H982.082L1003.56 121.496H1102.65L1075.35 96.9511ZM1006.01 123.95L1030.86 152.176H1137.02L1105.72 123.95H1006.01ZM1028.72 155.244H921.642L942.198 188.073H1056.94L1028.72 155.244ZM917.04 155.244H809.967L822.239 188.073H936.982L917.04 155.244ZM915.2 152.176L897.712 123.95H798.002L808.74 152.176H915.2ZM793.707 123.95H693.997L697.678 152.176H804.138L793.707 123.95ZM693.383 155.244H586.31L582.322 188.073H697.065L693.383 155.244ZM585.696 123.95H485.986L475.555 152.176H582.015L585.696 123.95ZM481.998 123.95H382.288L364.8 152.176H471.26L481.998 123.95ZM362.96 155.244L342.711 188.073H457.454L469.726 155.244H362.96ZM358.358 155.244H251.284L223.059 188.073H337.802L358.358 155.244ZM273.988 123.95H174.278L142.984 152.176H249.444L273.988 123.95ZM276.135 121.496L297.611 96.9511H204.344L177.039 121.496H276.135ZM227.354 73.0201H139.916L110.463 94.4967H203.117L227.354 73.0201ZM229.502 71.1793L250.978 52.1572H168.448L142.37 71.1793H229.502ZM190.845 33.442H112.918L85.6123 50.3164H167.528L190.845 33.442ZM171.21 50.3164H253.125L272.147 33.442H194.22L171.21 50.3164ZM256.807 50.3164H338.722L353.756 33.442H275.828L256.807 50.3164ZM342.404 50.3164H424.32L435.058 33.442H357.13L342.404 50.3164ZM427.694 50.3164H509.61L516.053 33.442H438.126L427.694 50.3164ZM513.292 50.3164H595.207L597.355 33.442H519.428L513.292 50.3164ZM596.434 71.1793H683.259L681.111 52.1572H598.582L596.434 71.1793ZM684.486 50.3164H766.402L760.266 33.442H682.338L684.486 50.3164ZM770.083 50.3164H851.999L841.568 33.442H763.64L770.083 50.3164ZM855.68 50.3164H937.596L922.87 33.442H844.942L855.68 50.3164ZM941.278 50.3164H1023.19L1004.17 33.442H926.244L941.278 50.3164ZM1026.87 50.3164H1108.79L1085.47 33.442H1007.55L1026.87 50.3164ZM1112.47 50.3164H1194.39L1167.08 33.442H1089.16L1112.47 50.3164ZM1198.07 50.3164H1279.98L1248.38 33.442H1170.46L1198.07 50.3164ZM1197.46 52.1572H1114.93L1141 71.1793H1228.14L1197.46 52.1572ZM1144.07 73.0201L1173.83 94.4967H1266.18L1231.51 73.0201H1144.07ZM1172.6 96.9511H1079.34L1106.95 121.496H1206.05L1172.6 96.9511ZM1110.02 123.95L1141.62 152.176H1248.08L1209.73 123.95H1110.02ZM1140.39 155.244H1033.32L1061.85 188.073H1176.9L1140.39 155.244ZM1065.22 191.448L1098.97 229.799H1223.53L1180.58 191.448H1065.22ZM1060.01 191.448H944.346L968.583 229.799H1093.45L1060.01 191.448ZM939.437 191.448H823.773L838.193 229.799H963.06L939.437 191.448ZM818.558 191.448H702.894L707.803 229.799H832.67L818.558 191.448ZM817.33 187.766L805.365 154.938H698.292L702.587 187.766H817.33ZM697.985 191.448H582.322L577.72 229.799H702.587L697.985 191.448ZM581.708 155.244H474.635L462.67 188.073H577.413L581.708 155.244ZM461.442 191.448L447.33 229.799H572.197L577.106 191.448H461.442ZM456.227 191.448H340.563L316.94 229.799H441.807L456.227 191.448ZM335.654 191.448H219.991L186.856 229.799H311.724L335.654 191.448ZM214.775 191.448H99.1116L56.1595 229.799H181.027L214.775 191.448ZM217.843 187.766L246.376 154.938H139.302L103.1 187.766H217.843ZM169.982 123.95H70.2723L31.9224 152.176H138.382L169.982 123.95ZM173.05 121.496L200.662 96.9511H107.395L73.954 121.496H173.05ZM135.928 73.0201H48.4896L13.8212 94.4967H106.475L135.928 73.0201ZM138.689 71.1793L164.767 52.1572H82.2375L51.5576 71.1793H138.689ZM109.543 33.442H31.6156L0.0151367 50.3164H81.9308L109.543 33.442ZM111.997 31.6012L136.848 16.2608H62.9092L34.3768 31.6012H111.997ZM115.372 31.6012H192.992L213.855 16.2608H139.916L115.372 31.6012ZM196.367 31.6012H273.988L291.168 16.2608H217.23L196.367 31.6012ZM277.362 31.6012H354.983L368.482 16.2608H294.543L277.362 31.6012ZM358.358 31.6012H435.978L445.489 16.2608H371.55L358.358 31.6012ZM439.353 31.6012H516.973L522.802 16.2608H448.864L439.353 31.6012ZM520.348 31.6012H597.968L599.809 16.2608H525.87L520.348 31.6012ZM598.889 50.3164H680.804L678.657 33.442H600.73L598.889 50.3164ZM682.032 31.6012H759.652L754.13 16.2608H680.191L682.032 31.6012ZM763.027 31.6012H840.647L831.136 16.2608H757.198L763.027 31.6012ZM844.022 31.6012H921.642L908.45 16.2608H834.511L844.022 31.6012ZM925.017 31.6012H1002.64L985.764 16.2608H911.825L925.017 31.6012ZM1006.01 31.6012H1083.63L1062.77 16.2608H988.832L1006.01 31.6012ZM1087.01 31.6012H1164.63L1140.08 16.2608H1066.15L1087.01 31.6012ZM1168 31.6012H1245.32L1216.78 16.2608H1143.15L1168 31.6012ZM1365.58 50.3164L1329.69 33.442H1251.76L1283.67 50.3164H1365.58ZM1283.36 52.1572H1200.83L1231.82 71.1793H1318.95L1283.36 52.1572ZM1362.82 94.8035L1322.63 73.3269H1235.19L1270.17 94.8035H1362.82ZM1269.86 96.9511H1176.59L1210.34 121.496H1309.44L1269.86 96.9511ZM1359.14 152.176L1313.73 123.95H1214.02L1252.68 152.176H1359.14ZM1252.07 155.244H1144.99L1181.81 188.073H1296.86L1252.07 155.244ZM1353.92 229.799L1301.46 191.448H1185.8L1229.06 229.799H1353.92ZM1142.54 279.808H1279.37L1228.44 234.094H1102.65L1142.54 279.808ZM999.876 279.808H1136.71L1097.13 234.094H971.344L999.876 279.808ZM857.214 279.808H994.047L965.822 234.094H840.034L857.214 279.808ZM714.246 279.808H851.078L834.204 234.094H708.416L714.246 279.808ZM708.416 279.808L702.894 234.094H577.106L571.584 279.808H708.416ZM565.754 279.808L571.584 234.094H445.796L428.922 279.808H565.754ZM422.786 279.808L440.273 234.094H314.485L286.26 279.808H422.786ZM280.124 279.808L308.963 234.094H183.175L143.598 279.808H280.124ZM0.628784 279.808H137.462L177.652 234.094H51.8644L0.628784 279.808ZM-73.9237 229.799H50.944L94.2028 191.448H-21.4608L-73.9237 229.799ZM-16.8589 187.766H97.8843L134.7 154.938H27.6272L-16.8589 187.766ZM-79.1392 152.176H27.3203L65.9772 123.95H-33.7329L-79.1392 152.176ZM-29.4376 121.496H69.6588L103.407 96.9511H10.1396L-29.4376 121.496ZM-82.8208 94.8035H9.83276L44.808 73.3269H-42.63L-82.8208 94.8035ZM-38.9484 71.1793H47.876L78.8628 52.1572H-3.66638L-38.9484 71.1793ZM-85.582 50.3164H-3.66638L28.2407 33.442H-49.6864L-85.582 50.3164ZM-46.3116 31.6012H31.3088L59.8412 16.2608H-14.0977L-46.3116 31.6012ZM-55.5156 1.22723L-88.0364 15.0336H-14.4044L14.7416 1.22723H-55.5156ZM17.8096 1.22723L-11.3364 15.0336H62.2957L88.0668 1.22723H17.8096ZM91.1348 1.22723L65.3636 15.0336H138.996L161.392 1.22723H91.1348ZM164.767 1.22723L142.677 15.0336H216.309L235.024 1.22723H164.767ZM238.092 1.22723L219.377 15.0336H293.009L308.349 1.22723H238.092ZM311.417 1.22723L296.077 15.0336H369.709L381.674 1.22723H311.417ZM384.742 1.22723L372.777 15.0336H446.409L455 1.22723H384.742ZM458.068 1.22723L449.477 15.0336H523.109L528.325 1.22723H458.068ZM531.393 1.22723L526.177 15.0336H599.809L601.65 1.22723H531.393ZM675.282 1.22723H605.025L603.491 15.0336H677.123L675.282 1.22723ZM603.184 16.5676L601.343 31.908H678.964L677.123 16.5676H603.184ZM678.35 1.22723L679.884 15.0336H753.516L748.3 1.22723H678.35ZM751.675 1.22723L756.891 15.0336H830.523L821.932 1.22723H751.675ZM825 1.22723L833.591 15.0336H907.223L895.258 1.22723H825ZM898.326 1.22723L910.291 15.0336H983.923L968.583 1.22723H898.326ZM971.651 1.22723L986.991 15.0336H1060.62L1041.91 1.22723H971.651ZM1044.98 1.22723L1064 15.0336H1137.63L1115.54 1.22723H1044.98ZM1118.61 1.22723L1141 15.0336H1214.64L1188.87 1.22723H1118.61ZM1191.93 1.22723L1217.7 15.0336H1291.34L1262.19 1.22723H1191.93ZM1265.26 1.22723L1294.4 15.0336H1368.04L1335.52 1.22723H1265.26Z" fill="url(#paint0_linear)"/>
</g>
<defs>
<linearGradient id="paint0_linear" x1="-6.65672e-05" y1="152.836" x2="1281" y2="152.836" gradientUnits="userSpaceOnUse">
<stop offset="0.0220994" stop-color="#07070A"/>
<stop offset="0.502762" stop-color="#000F76"/>
<stop offset="1" stop-color="#070709"/>
</linearGradient>
<clipPath id="clip0">
<rect width="1534" height="320" fill="white" transform="matrix(-1 0 0 1 1407 0)"/>
</clipPath>
</defs>
</svg>
