<svg width="315" height="314" viewBox="0 0 315 314" fill="none" xmlns="http://www.w3.org/2000/svg">
<rect x="269.63" y="171.952" width="10.5729" height="10.5729" transform="rotate(135 269.63 171.952)" fill="#0020F5"/>
<rect x="269.63" y="142.048" width="10.5729" height="10.5729" transform="rotate(135 269.63 142.048)" fill="#0020F5"/>
<rect x="254.678" y="157" width="10.5729" height="10.5729" transform="rotate(135 254.678 157)" fill="#0020F5"/>
<rect x="269.63" y="201.857" width="10.5729" height="10.5729" transform="rotate(135 269.63 201.857)" fill="#0020F5"/>
<rect x="254.678" y="216.81" width="10.5729" height="10.5729" transform="rotate(135 254.678 216.81)" fill="#0020F5"/>
<rect x="239.725" y="231.762" width="10.5729" height="10.5729" transform="rotate(135 239.725 231.762)" fill="#0020F5"/>
<rect x="254.678" y="186.905" width="10.5729" height="10.5729" transform="rotate(135 254.678 186.905)" fill="#0020F5"/>
<rect x="239.725" y="201.857" width="10.5729" height="10.5729" transform="rotate(135 239.725 201.857)" fill="#0020F5"/>
<rect x="224.773" y="216.81" width="10.5729" height="10.5729" transform="rotate(135 224.773 216.81)" fill="#0020F5"/>
<rect x="239.725" y="171.952" width="10.5729" height="10.5729" transform="rotate(135 239.725 171.952)" fill="#0020F5"/>
<rect x="224.773" y="186.905" width="10.5729" height="10.5729" transform="rotate(135 224.773 186.905)" fill="#0020F5"/>
<rect x="209.821" y="201.857" width="10.5729" height="10.5729" transform="rotate(135 209.821 201.857)" fill="#0020F5"/>
<rect x="224.773" y="246.714" width="10.5729" height="10.5729" transform="rotate(135 224.773 246.714)" fill="#0020F5"/>
<rect x="209.821" y="261.667" width="10.5729" height="10.5729" transform="rotate(135 209.821 261.667)" fill="#0020F5"/>
<rect x="194.868" y="276.619" width="10.5729" height="10.5729" transform="rotate(135 194.868 276.619)" fill="#0020F5"/>
<rect x="209.821" y="231.762" width="10.5729" height="10.5729" transform="rotate(135 209.821 231.762)" fill="#0020F5"/>
<rect x="194.868" y="246.714" width="10.5729" height="10.5729" transform="rotate(135 194.868 246.714)" fill="#0020F5"/>
<rect x="179.916" y="261.667" width="10.5729" height="10.5729" transform="rotate(135 179.916 261.667)" fill="#0020F5"/>
<rect x="194.868" y="216.809" width="10.5729" height="10.5729" transform="rotate(135 194.868 216.809)" fill="#0020F5"/>
<rect x="179.916" y="231.762" width="10.5729" height="10.5729" transform="rotate(135 179.916 231.762)" fill="#0020F5"/>
<rect x="164.964" y="246.714" width="10.5729" height="10.5729" transform="rotate(135 164.964 246.714)" fill="#0020F5"/>
<rect x="179.916" y="291.571" width="10.5729" height="10.5729" transform="rotate(135 179.916 291.571)" fill="#0020F5"/>
<rect x="164.964" y="306.524" width="10.5729" height="10.5729" transform="rotate(135 164.964 306.524)" fill="#0020F5"/>
<rect x="164.964" y="276.619" width="10.5729" height="10.5729" transform="rotate(135 164.964 276.619)" fill="#0020F5"/>
<rect x="150.011" y="291.571" width="10.5729" height="10.5729" transform="rotate(135 150.011 291.571)" fill="#0020F5"/>
<rect x="150.011" y="261.667" width="10.5729" height="10.5729" transform="rotate(135 150.011 261.667)" fill="#0020F5"/>
<rect x="135.059" y="276.619" width="10.5729" height="10.5729" transform="rotate(135 135.059 276.619)" fill="#0020F5"/>
<rect x="269.63" y="112.142" width="10.5729" height="10.5729" transform="rotate(135 269.63 112.142)" fill="#0020F5"/>
<rect x="254.678" y="127.095" width="10.5729" height="10.5729" transform="rotate(135 254.678 127.095)" fill="#0020F5"/>
<rect x="239.725" y="142.048" width="10.5729" height="10.5729" transform="rotate(135 239.725 142.048)" fill="#0020F5"/>
<rect x="224.773" y="157" width="10.5729" height="10.5729" transform="rotate(135 224.773 157)" fill="#0020F5"/>
<rect x="209.821" y="171.953" width="10.5729" height="10.5729" transform="rotate(135 209.821 171.953)" fill="#0020F5"/>
<rect x="194.868" y="186.905" width="10.5729" height="10.5729" transform="rotate(135 194.868 186.905)" fill="#0020F5"/>
<rect x="179.916" y="201.857" width="10.5729" height="10.5729" transform="rotate(135 179.916 201.857)" fill="#0020F5"/>
<rect x="164.964" y="216.81" width="10.5729" height="10.5729" transform="rotate(135 164.964 216.81)" fill="#0020F5"/>
<rect x="150.011" y="231.762" width="10.5729" height="10.5729" transform="rotate(135 150.011 231.762)" fill="#0020F5"/>
<rect x="150.011" y="201.857" width="10.5729" height="10.5729" transform="rotate(135 150.011 201.857)" fill="#0020F5"/>
<rect x="135.059" y="216.81" width="10.5729" height="10.5729" transform="rotate(135 135.059 216.81)" fill="#0020F5"/>
<rect x="135.059" y="186.905" width="10.5729" height="10.5729" transform="rotate(135 135.059 186.905)" fill="#0020F5"/>
<rect x="120.106" y="201.857" width="10.5729" height="10.5729" transform="rotate(135 120.106 201.857)" fill="#0020F5"/>
<rect x="135.058" y="246.715" width="10.5729" height="10.5729" transform="rotate(135 135.058 246.715)" fill="#0020F5"/>
<rect x="120.106" y="261.667" width="10.5729" height="10.5729" transform="rotate(135 120.106 261.667)" fill="#0020F5"/>
<rect x="120.106" y="231.762" width="10.5729" height="10.5729" transform="rotate(135 120.106 231.762)" fill="#0020F5"/>
<rect x="105.154" y="246.715" width="10.5729" height="10.5729" transform="rotate(135 105.154 246.715)" fill="#0020F5"/>
<rect x="105.154" y="216.81" width="10.5729" height="10.5729" transform="rotate(135 105.154 216.81)" fill="#0020F5"/>
<rect x="90.2017" y="231.762" width="10.5729" height="10.5729" transform="rotate(135 90.2017 231.762)" fill="#0020F5"/>
<rect x="120.106" y="171.952" width="10.5729" height="10.5729" transform="rotate(135 120.106 171.952)" fill="#0020F5"/>
<rect x="105.154" y="186.905" width="10.5729" height="10.5729" transform="rotate(135 105.154 186.905)" fill="#0020F5"/>
<rect x="105.154" y="157" width="10.5729" height="10.5729" transform="rotate(135 105.154 157)" fill="#0020F5"/>
<rect x="90.2017" y="171.952" width="10.5729" height="10.5729" transform="rotate(135 90.2017 171.952)" fill="#0020F5"/>
<rect x="90.2017" y="142.048" width="10.5729" height="10.5729" transform="rotate(135 90.2017 142.048)" fill="#0020F5"/>
<rect x="75.2494" y="157" width="10.5729" height="10.5729" transform="rotate(135 75.2494 157)" fill="#0020F5"/>
<rect x="90.2017" y="201.857" width="10.5729" height="10.5729" transform="rotate(135 90.2017 201.857)" fill="#0020F5"/>
<rect x="75.2493" y="216.81" width="10.5729" height="10.5729" transform="rotate(135 75.2493 216.81)" fill="#0020F5"/>
<rect x="75.2493" y="186.905" width="10.5729" height="10.5729" transform="rotate(135 75.2493 186.905)" fill="#0020F5"/>
<rect x="60.2969" y="201.857" width="10.5729" height="10.5729" transform="rotate(135 60.2969 201.857)" fill="#0020F5"/>
<rect x="60.2969" y="171.952" width="10.5729" height="10.5729" transform="rotate(135 60.2969 171.952)" fill="#0020F5"/>
<rect x="75.2493" y="127.095" width="10.5729" height="10.5729" transform="rotate(135 75.2493 127.095)" fill="#0020F5"/>
<rect x="60.2969" y="142.048" width="10.5729" height="10.5729" transform="rotate(135 60.2969 142.048)" fill="#0020F5"/>
<rect x="60.2969" y="112.143" width="10.5729" height="10.5729" transform="rotate(135 60.2969 112.143)" fill="#0020F5"/>
</svg>
