<svg width="899" height="617" fill="none" xmlns="http://www.w3.org/2000/svg"><circle cx="33" cy="212" r="32" fill="#fff"/><circle cx="33" cy="298" r="32" fill="#75FA4C"/><circle cx="207" cy="298" r="32" fill="#75FA4C"/><circle cx="33" cy="582" r="32" fill="#fff"/><circle cx="33" cy="483" r="32" fill="#0020F5"/><circle cx="768" cy="210" r="32" fill="#E63623"/><circle cx="687" cy="32" r="32" fill="#0020F5"/><circle cx="490" cy="122" r="32" fill="#fff"/><path d="M129.102 142.25h-20.23l-2.89 12.75h-11.73l14.195-59.5h21.08l14.195 59.5h-11.73l-2.89-12.75zm-17.85-10.71h15.385l-6.885-30.43h-1.53l-6.97 30.43zM99.947 180.5h11.22v48.79h27.03V240h-38.25v-59.5zm3 88h11.22v48.79h27.03V328h-38.25v-59.5zm575.13 29.41h25.5V328h-10.2v-6.63h-1.53c-.68 2.21-1.983 4.08-3.91 5.61-1.927 1.473-4.817 2.21-8.67 2.21-2.72 0-5.27-.51-7.65-1.53-2.38-1.02-4.448-2.522-6.205-4.505-1.757-2.04-3.145-4.533-4.165-7.48-1.02-3.003-1.53-6.488-1.53-10.455v-13.94c0-3.853.538-7.253 1.615-10.2 1.133-3.003 2.663-5.525 4.59-7.565 1.983-2.04 4.335-3.57 7.055-4.59 2.72-1.077 5.723-1.615 9.01-1.615 3.4 0 6.432.567 9.095 1.7 2.663 1.077 4.93 2.607 6.8 4.59 1.87 1.927 3.287 4.222 4.25 6.885.963 2.607 1.445 5.412 1.445 8.415v1.02h-11.22v-1.02c0-3.57-.935-6.262-2.805-8.075-1.813-1.87-4.392-2.805-7.735-2.805-3.173 0-5.78 1.077-7.82 3.23-2.04 2.097-3.06 5.723-3.06 10.88v12.58c0 9.18 3.74 13.77 11.22 13.77 3.343 0 5.865-.878 7.565-2.635 1.757-1.813 2.635-4.222 2.635-7.225h-14.28v-10.71zm82.77.34c0-1.927.708-3.598 2.125-5.015 1.417-1.417 3.088-2.125 5.015-2.125 1.927 0 3.598.708 5.015 2.125 1.417 1.417 2.125 3.088 2.125 5.015 0 1.927-.708 3.598-2.125 5.015-1.417 1.417-3.088 2.125-5.015 2.125-1.927 0-3.598-.708-5.015-2.125-1.417-1.417-2.125-3.088-2.125-5.015zm-14.79-6.63c0-7.707 1.927-13.685 5.78-17.935 3.91-4.25 9.293-6.375 16.15-6.375 6.857 0 12.212 2.125 16.065 6.375 3.91 4.25 5.865 10.228 5.865 17.935v13.26c0 7.933-1.955 13.968-5.865 18.105-3.853 4.137-9.208 6.205-16.065 6.205-6.857 0-12.24-2.068-16.15-6.205-3.853-4.137-5.78-10.172-5.78-18.105v-13.26zm21.93 27.37c2.04 0 3.74-.312 5.1-.935 1.36-.68 2.465-1.615 3.315-2.805.85-1.19 1.445-2.607 1.785-4.25.34-1.643.51-3.457.51-5.44v-14.62c0-1.87-.198-3.627-.595-5.27-.397-1.643-1.02-3.06-1.87-4.25-.85-1.19-1.955-2.125-3.315-2.805-1.36-.737-3.003-1.105-4.93-1.105-1.927 0-3.57.368-4.93 1.105-1.36.68-2.465 1.615-3.315 2.805-.85 1.19-1.473 2.607-1.87 4.25-.397 1.643-.595 3.4-.595 5.27v14.62c0 1.983.17 3.797.51 5.44.34 1.643.935 3.06 1.785 4.25.85 1.19 1.955 2.125 3.315 2.805 1.36.623 3.06.935 5.1.935zm99.61-51.49v41.48h-11.22V267.5h11.22zm2.465 52.615c0 1.133-.227 2.21-.68 3.23a7.745 7.745 0 0 1-1.7 2.55c-.737.68-1.615 1.218-2.635 1.615a7.102 7.102 0 0 1-3.06.68c-1.133 0-2.182-.227-3.145-.68a8.502 8.502 0 0 1-2.55-1.615 8.983 8.983 0 0 1-1.785-2.55 8.827 8.827 0 0 1-.595-3.23c0-1.133.198-2.182.595-3.145.453-1.02 1.048-1.87 1.785-2.55a7.745 7.745 0 0 1 2.55-1.7c.963-.453 2.012-.68 3.145-.68 1.077 0 2.097.227 3.06.68a7.545 7.545 0 0 1 2.635 1.7c.737.68 1.303 1.53 1.7 2.55.453.963.68 2.012.68 3.145zM129.187 378.69c0-2.38-.935-4.448-2.805-6.205-1.813-1.757-4.392-2.635-7.735-2.635-2.833 0-5.072.595-6.715 1.785-1.643 1.133-2.465 2.692-2.465 4.675 0 1.02.198 1.955.595 2.805.397.793 1.077 1.53 2.04 2.21 1.02.623 2.323 1.19 3.91 1.7 1.643.51 3.712.992 6.205 1.445 6.233 1.133 10.993 3.032 14.28 5.695 3.287 2.663 4.93 6.602 4.93 11.815V403c0 2.777-.51 5.298-1.53 7.565a15.514 15.514 0 0 1-4.25 5.695c-1.87 1.587-4.137 2.805-6.8 3.655-2.663.85-5.667 1.275-9.01 1.275-3.91 0-7.367-.538-10.37-1.615-2.947-1.133-5.412-2.663-7.395-4.59a19.88 19.88 0 0 1-4.505-6.885c-1.02-2.663-1.53-5.553-1.53-8.67v-2.55h11.22v2.04c0 3.57 1.02 6.432 3.06 8.585 2.097 2.097 5.327 3.145 9.69 3.145 3.4 0 5.922-.737 7.565-2.21 1.643-1.473 2.465-3.23 2.465-5.27 0-.963-.17-1.87-.51-2.72-.34-.907-.935-1.7-1.785-2.38-.85-.737-2.012-1.388-3.485-1.955-1.473-.567-3.343-1.048-5.61-1.445-3.003-.51-5.752-1.162-8.245-1.955-2.493-.85-4.675-1.955-6.545-3.315a14.26 14.26 0 0 1-4.25-5.1c-1.02-2.04-1.53-4.533-1.53-7.48v-.51c0-2.437.482-4.675 1.445-6.715a17 17 0 0 1 4.165-5.44c1.813-1.53 3.967-2.72 6.46-3.57 2.55-.85 5.383-1.275 8.5-1.275 3.513 0 6.63.51 9.35 1.53 2.72.963 4.987 2.295 6.8 3.995 1.87 1.7 3.258 3.655 4.165 5.865a17.262 17.262 0 0 1 1.445 6.97v3.06h-11.22v-2.04zm72.19 20.4h-2.55l-17.085-38.59h12.24l12.24 28.39h1.53l12.24-28.39h12.24l-17.085 38.59h-2.55V420h-11.22v-20.91zm106.81-20.4c0-2.38-.935-4.448-2.805-6.205-1.813-1.757-4.392-2.635-7.735-2.635-2.833 0-5.072.595-6.715 1.785-1.643 1.133-2.465 2.692-2.465 4.675 0 1.02.198 1.955.595 2.805.397.793 1.077 1.53 2.04 2.21 1.02.623 2.323 1.19 3.91 1.7 1.643.51 3.712.992 6.205 1.445 6.233 1.133 10.993 3.032 14.28 5.695 3.287 2.663 4.93 6.602 4.93 11.815V403c0 2.777-.51 5.298-1.53 7.565a15.514 15.514 0 0 1-4.25 5.695c-1.87 1.587-4.137 2.805-6.8 3.655-2.663.85-5.667 1.275-9.01 1.275-3.91 0-7.367-.538-10.37-1.615-2.947-1.133-5.412-2.663-7.395-4.59a19.88 19.88 0 0 1-4.505-6.885c-1.02-2.663-1.53-5.553-1.53-8.67v-2.55h11.22v2.04c0 3.57 1.02 6.432 3.06 8.585 2.097 2.097 5.327 3.145 9.69 3.145 3.4 0 5.922-.737 7.565-2.21 1.643-1.473 2.465-3.23 2.465-5.27 0-.963-.17-1.87-.51-2.72-.34-.907-.935-1.7-1.785-2.38-.85-.737-2.012-1.388-3.485-1.955-1.473-.567-3.343-1.048-5.61-1.445-3.003-.51-5.752-1.162-8.245-1.955-2.493-.85-4.675-1.955-6.545-3.315a14.26 14.26 0 0 1-4.25-5.1c-1.02-2.04-1.53-4.533-1.53-7.48v-.51c0-2.437.482-4.675 1.445-6.715a17.001 17.001 0 0 1 4.165-5.44c1.813-1.53 3.967-2.72 6.46-3.57 2.55-.85 5.383-1.275 8.5-1.275 3.513 0 6.63.51 9.35 1.53 2.72.963 4.987 2.295 6.8 3.995 1.87 1.7 3.258 3.655 4.165 5.865a17.262 17.262 0 0 1 1.445 6.97v3.06h-11.22v-2.04zm65.38-18.19h42.84v10.71h-15.81V420h-11.22v-48.79h-15.81V360.5zm100.38 0h37.57v10.71h-26.35v13.6h25.33v10.71h-25.33v13.77h27.37V420h-38.59v-59.5zm85.9 0h19.72l3.4 44.71v8.67h2.04v-8.67l3.4-44.71h19.72V420h-10.2v-39.78l1.02-13.6h-2.04l-4.42 53.38h-16.83l-4.59-53.38h-2.04l1.02 13.6V420h-10.2v-59.5zm132.34 18.19c0-2.38-.935-4.448-2.805-6.205-1.813-1.757-4.392-2.635-7.735-2.635-2.833 0-5.072.595-6.715 1.785-1.643 1.133-2.465 2.692-2.465 4.675 0 1.02.198 1.955.595 2.805.397.793 1.077 1.53 2.04 2.21 1.02.623 2.323 1.19 3.91 1.7 1.643.51 3.712.992 6.205 1.445 6.233 1.133 10.993 3.032 14.28 5.695 3.287 2.663 4.93 6.602 4.93 11.815V403c0 2.777-.51 5.298-1.53 7.565a15.514 15.514 0 0 1-4.25 5.695c-1.87 1.587-4.137 2.805-6.8 3.655-2.663.85-5.667 1.275-9.01 1.275-3.91 0-7.367-.538-10.37-1.615-2.947-1.133-5.412-2.663-7.395-4.59a19.88 19.88 0 0 1-4.505-6.885c-1.02-2.663-1.53-5.553-1.53-8.67v-2.55h11.22v2.04c0 3.57 1.02 6.432 3.06 8.585 2.097 2.097 5.327 3.145 9.69 3.145 3.4 0 5.922-.737 7.565-2.21 1.643-1.473 2.465-3.23 2.465-5.27 0-.963-.17-1.87-.51-2.72-.34-.907-.935-1.7-1.785-2.38-.85-.737-2.012-1.388-3.485-1.955-1.473-.567-3.343-1.048-5.61-1.445-3.003-.51-5.752-1.162-8.245-1.955-2.493-.85-4.675-1.955-6.545-3.315a14.26 14.26 0 0 1-4.25-5.1c-1.02-2.04-1.53-4.533-1.53-7.48v-.51c0-2.437.482-4.675 1.445-6.715a17.001 17.001 0 0 1 4.165-5.44c1.813-1.53 3.967-2.72 6.46-3.57 2.55-.85 5.383-1.275 8.5-1.275 3.513 0 6.63.51 9.35 1.53 2.72.963 4.987 2.295 6.8 3.995 1.87 1.7 3.258 3.655 4.165 5.865a17.262 17.262 0 0 1 1.445 6.97v3.06h-11.22v-2.04z" fill="#fff"/><path d="M243 481c0 .788-.675 1.35-1.35 1.35h-11.817c-.788 0-1.351-.675-1.351-1.35 0-.788.676-1.35 1.351-1.35h11.817c.787 0 1.35.562 1.35 1.35zm-55.37 0c0 .788-.675 1.35-1.35 1.35h-11.93c-.787 0-1.35-.675-1.35-1.35 0-.788.675-1.35 1.35-1.35h11.817c.788 0 1.463.562 1.463 1.35zm21.72 21.833v11.817c0 .787-.675 1.35-1.35 1.35-.788 0-1.35-.675-1.35-1.35v-11.817c0-.788.675-1.351 1.35-1.351.788-.112 1.35.563 1.35 1.351zm0-55.483v11.817c0 .788-.675 1.351-1.35 1.351-.788 0-1.35-.676-1.35-1.351V447.35c0-.787.675-1.35 1.35-1.35.788 0 1.35.675 1.35 1.35zm12.38 64.936c0 .563-.338 1.126-.9 1.351-.676.337-1.576-.113-1.801-.788l-4.389-11.029c-.338-.675.112-1.576.788-1.801.675-.337 1.575.113 1.8.788l4.389 11.029c.113.113.113.225.113.45zm-20.37-51.543c0 .562-.337 1.125-.9 1.35-.675.338-1.576-.112-1.801-.788l-4.276-11.028c-.338-.676.112-1.576.787-1.801.676-.225 1.576.112 1.801.788l4.389 11.029v.45zm38.714 33.987c0 .225 0 .338-.113.563-.337.675-1.125 1.012-1.8.675l-10.804-4.839c-.675-.338-1.013-1.126-.675-1.801.337-.675 1.125-1.013 1.8-.675l10.804 4.839c.45.225.788.788.788 1.238zm-50.531-22.621c0 .225 0 .338-.112.563-.338.675-1.126 1.013-1.801.675l-10.916-4.839c-.675-.338-1.013-1.125-.675-1.801.337-.675 1.125-1.012 1.8-.675l10.804 4.839c.563.225.9.676.9 1.238zm42.878 33.312c0 .338-.112.788-.45 1.013-.563.563-1.463.45-2.026-.112l-7.99-8.554c-.563-.562-.563-1.463 0-1.913.563-.562 1.463-.45 2.026 0l8.103 8.666c.225.225.337.563.337.9zm-37.926-40.289c0 .337-.112.788-.45 1.013-.563.562-1.463.45-2.026-.113l-8.103-8.665c-.562-.451-.45-1.351.113-1.801.563-.563 1.35-.563 1.913 0l8.103 8.666c.338.225.45.562.45.9zm7.09 36.238c0 .112 0 .337-.112.45l-4.277 11.029c-.225.675-1.125 1.125-1.8.788-.676-.225-1.126-1.126-.788-1.801l4.276-11.029c.225-.675 1.126-1.125 1.801-.788.563.225.9.788.9 1.351zm19.807-51.769c0 .113 0 .338-.112.45l-4.277 11.029c-.225.676-1.125 1.126-1.8.788-.676-.225-1.126-1.125-.788-1.8l4.276-11.029c.225-.676 1.126-1.126 1.801-.788.563.225.9.788.9 1.35zm-27.46 46.817c0 .338-.112.675-.45 1.013l-8.44 8.328a1.426 1.426 0 0 1-2.026 0 1.426 1.426 0 0 1 0-2.026l8.328-8.328a1.426 1.426 0 0 1 2.026 0c.45.225.562.675.562 1.013zm39.277-39.164c0 .338-.113.675-.45 1.013l-8.441 8.328a1.425 1.425 0 0 1-2.025 0 1.426 1.426 0 0 1 0-2.026l8.44-8.328a1.426 1.426 0 0 1 2.026 0c.337.338.45.675.45 1.013zm-43.891 32.074c0 .563-.337 1.013-.9 1.238l-10.916 4.502c-.676.337-1.576 0-1.801-.788-.338-.675 0-1.576.788-1.801l10.916-4.501c.675-.338 1.576 0 1.801.787 0 .225.112.338.112.563zm51.206-21.158c0 .563-.338 1.013-.9 1.238l-10.917 4.502c-.675.338-1.575 0-1.8-.788-.338-.675 0-1.575.788-1.8l10.916-4.502c.675-.338 1.575 0 1.801.788 0 .225.112.45.112.562z" fill="#EE2524"/><path d="M898 211c0 .788-.675 1.35-1.35 1.35h-11.817c-.788 0-1.351-.675-1.351-1.35 0-.788.676-1.35 1.351-1.35h11.817c.787 0 1.35.562 1.35 1.35zm-55.37 0c0 .788-.675 1.35-1.35 1.35h-11.93c-.787 0-1.35-.675-1.35-1.35 0-.788.675-1.35 1.35-1.35h11.817c.788 0 1.463.562 1.463 1.35zm21.72 21.833v11.817c0 .787-.675 1.35-1.35 1.35-.788 0-1.35-.675-1.35-1.35v-11.817c0-.788.675-1.351 1.35-1.351.788-.112 1.35.563 1.35 1.351zm0-55.483v11.817c0 .788-.675 1.351-1.35 1.351-.788 0-1.35-.676-1.35-1.351V177.35c0-.787.675-1.35 1.35-1.35.788 0 1.35.675 1.35 1.35zm12.38 64.936c0 .563-.338 1.126-.9 1.351-.676.337-1.576-.113-1.801-.788l-4.389-11.029c-.338-.675.112-1.576.788-1.801.675-.337 1.575.113 1.8.788l4.389 11.029c.113.113.113.225.113.45zm-20.37-51.543c0 .562-.337 1.125-.9 1.35-.675.338-1.576-.112-1.801-.788l-4.276-11.028c-.338-.676.112-1.576.787-1.801.676-.225 1.576.112 1.801.788l4.389 11.029v.45zm38.714 33.987c0 .225 0 .338-.113.563-.337.675-1.125 1.012-1.8.675l-10.804-4.839c-.675-.338-1.013-1.126-.675-1.801.337-.675 1.125-1.013 1.8-.675l10.804 4.839c.45.225.788.788.788 1.238zm-50.531-22.621c0 .225 0 .338-.112.563-.338.675-1.126 1.013-1.801.675l-10.916-4.839c-.675-.338-1.013-1.125-.675-1.801.337-.675 1.125-1.012 1.8-.675l10.804 4.839c.563.225.9.676.9 1.238zm42.878 33.312c0 .338-.112.788-.45 1.013-.563.563-1.463.45-2.026-.112l-7.99-8.554c-.563-.562-.563-1.463 0-1.913.563-.562 1.463-.45 2.026 0l8.103 8.666c.225.225.337.563.337.9zm-37.926-40.289c0 .337-.112.788-.45 1.013-.563.562-1.463.45-2.026-.113l-8.103-8.665c-.562-.451-.45-1.351.113-1.801.563-.563 1.35-.563 1.913 0l8.103 8.666c.338.225.45.562.45.9zm7.09 36.238c0 .112 0 .337-.112.45l-4.277 11.029c-.225.675-1.125 1.125-1.8.788-.676-.225-1.126-1.126-.788-1.801l4.276-11.029c.225-.675 1.126-1.125 1.801-.788.563.225.9.788.9 1.351zm19.807-51.769c0 .113 0 .338-.112.45l-4.277 11.029c-.225.676-1.125 1.126-1.8.788-.676-.225-1.126-1.125-.788-1.8l4.276-11.029c.225-.676 1.126-1.126 1.801-.788.563.225.9.788.9 1.35zm-27.46 46.817c0 .338-.112.675-.45 1.013l-8.44 8.328a1.426 1.426 0 0 1-2.026 0 1.426 1.426 0 0 1 0-2.026l8.328-8.328a1.426 1.426 0 0 1 2.026 0c.45.225.562.675.562 1.013zm39.277-39.164c0 .338-.112.675-.45 1.013l-8.441 8.328a1.425 1.425 0 0 1-2.025 0 1.426 1.426 0 0 1 0-2.026l8.44-8.328a1.426 1.426 0 0 1 2.026 0c.338.338.45.675.45 1.013zm-43.891 32.074c0 .563-.337 1.013-.9 1.238l-10.916 4.502c-.676.337-1.576 0-1.801-.788-.338-.676 0-1.576.788-1.801l10.916-4.502c.675-.337 1.576 0 1.801.788 0 .225.112.338.112.563zm51.206-21.158c0 .563-.337 1.013-.9 1.238l-10.917 4.502c-.675.338-1.575 0-1.8-.788-.338-.675 0-1.575.788-1.8l10.916-4.502c.675-.338 1.576 0 1.801.788 0 .225.112.45.112.562z" fill="#75FA4C"/><circle cx="11" cy="371" r="11" fill="#E63623"/><circle cx="55" cy="371" r="11" fill="#E63623"/><circle cx="11" cy="410" r="11" fill="#E63623"/><circle cx="55" cy="410" r="11" fill="#E63623"/><circle cx="660" cy="458" r="11" fill="#E63623"/><circle cx="704" cy="458" r="11" fill="#E63623"/><circle cx="660" cy="497" r="11" fill="#E63623"/><circle cx="704" cy="497" r="11" fill="#E63623"/><circle cx="186" cy="11" r="11" fill="#E63623"/><circle cx="230" cy="11" r="11" fill="#E63623"/><circle cx="186" cy="50" r="11" fill="#E63623"/><circle cx="230" cy="50" r="11" fill="#E63623"/><path d="M1 32C1 14.327 15.327 0 33 0c17.673 0 32 14.327 32 32v94c0 17.673-14.327 32-32 32-17.673 0-32-14.327-32-32V32z" fill="#E63623"/><circle cx="33" cy="32" r="32" fill="#0020F5"/><circle cx="33" cy="126" r="32" fill="#fff"/><circle cx="33" cy="126" r="10" fill="#000"/><path d="M553 211c0-17.673 14.327-32 32-32 17.673 0 32 14.327 32 32v94c0 17.673-14.327 32-32 32-17.673 0-32-14.327-32-32v-94z" fill="#E63623"/><circle cx="585" cy="211" r="32" fill="#0020F5"/><circle cx="585" cy="305" r="32" fill="#fff"/><circle cx="585" cy="305" r="10" fill="#000"/><path d="M301 180c17.673 0 32 14.327 32 32 0 17.673-14.327 32-32 32h-94c-17.673 0-32-14.327-32-32 0-17.673 14.327-32 32-32h94z" fill="#fff"/><circle cx="301" cy="212" r="32" transform="rotate(90 301 212)" fill="#75FA4C"/><circle cx="207" cy="212" r="32" transform="rotate(90 207 212)" fill="#E63623"/><path d="M396 64c-17.673 0-32-14.327-32-32 0-17.673 14.327-32 32-32h94c17.673 0 32 14.327 32 32 0 17.673-14.327 32-32 32h-94z" fill="#E63623"/><circle cx="396" cy="32" r="32" transform="rotate(-90 396 32)" fill="#0020F5"/><circle cx="490" cy="32" r="32" transform="rotate(-90 490 32)" fill="#75FA4C"/><circle cx="490" cy="32" r="10" transform="rotate(-90 490 32)" fill="#000"/><path d="M301 330c-17.673 0-32-14.327-32-32 0-17.673 14.327-32 32-32h94c17.673 0 32 14.327 32 32 0 17.673-14.327 32-32 32h-94z" fill="#E63623"/><circle cx="301" cy="298" r="32" transform="rotate(-90 301 298)" fill="#0020F5"/><circle cx="395" cy="298" r="32" transform="rotate(-90 395 298)" fill="#75FA4C"/><path d="M301 154c-17.673 0-32-14.327-32-32 0-17.673 14.327-32 32-32h94c17.673 0 32 14.327 32 32 0 17.673-14.327 32-32 32h-94z" fill="#fff"/><circle cx="301" cy="122" r="32" transform="rotate(-90 301 122)" fill="#0020F5"/><circle cx="395" cy="122" r="32" transform="rotate(-90 395 122)" fill="#E63623"/><circle cx="395" cy="122" r="10" transform="rotate(-90 395 122)" fill="#000"/><path d="M777 550c17.673 0 32 14.327 32 32 0 17.673-14.327 32-32 32h-94c-17.673 0-32-14.327-32-32 0-17.673 14.327-32 32-32h94z" fill="#fff"/><circle cx="683" cy="582" r="32" transform="rotate(90 683 582)" fill="#E63623"/><circle cx="683" cy="582" r="10" transform="rotate(90 683 582)" fill="#000"/><path d="M862 446c17.673 0 32 14.327 32 32 0 17.673-14.327 32-32 32h-94c-17.673 0-32-14.327-32-32 0-17.673 14.327-32 32-32h94z" fill="#0020F5"/><circle cx="768" cy="478" r="32" transform="rotate(90 768 478)" fill="#fff"/><circle cx="768" cy="478" r="10" transform="rotate(90 768 478)" fill="#000"/><path d="M588 446c17.673 0 32 14.327 32 32 0 17.673-14.327 32-32 32h-94c-17.673 0-32-14.327-32-32 0-17.673 14.327-32 32-32h94z" fill="#fff"/><circle cx="494" cy="478" r="32" transform="rotate(90 494 478)" fill="#E63623"/><circle cx="494" cy="478" r="10" transform="rotate(90 494 478)" fill="#000"/><circle cx="119" cy="32" r="32" fill="#fff"/><circle cx="119" cy="32" r="10" fill="#000"/><circle cx="208" cy="122" r="32" fill="#75FA4C"/><circle cx="208" cy="122" r="10" fill="#000"/><circle cx="768" cy="388" r="32" fill="#75FA4C"/><circle cx="768" cy="388" r="10" fill="#000"/><circle cx="584" cy="32" r="32" fill="#E63623"/><circle cx="584" cy="32" r="10" fill="#000"/><circle cx="299" cy="479" r="32" fill="#E63623"/><circle cx="299" cy="479" r="10" fill="#000"/><path fill="#fff" d="M366 451h12v12h-12zm24 0h12v12h-12zm24 0h12v12h-12zm-48 24h12v12h-12zm24 0h12v12h-12zm24 0h12v12h-12zm-48 24h12v12h-12zm24 0h12v12h-12zm24 0h12v12h-12z"/><path fill="#0020F5" d="M652 181h12v12h-12zm24 0h12v12h-12zm24 0h12v12h-12zm-48 24h12v12h-12zm24 0h12v12h-12zm24 0h12v12h-12zm-48 24h12v12h-12zm24 0h12v12h-12zm24 0h12v12h-12z"/><path fill="#fff" d="M272 0h8v64h-8zm23 0h8v64h-8zm25 0h8v64h-8z"/><path fill="#E63623" d="M267 22h18v6h-18z"/><path fill="#0020F5" d="M290 43h18v6h-18z"/><path fill="#75FA4C" d="M315 8h18v6h-18z"/><path fill="#fff" d="M834 356h8v64h-8zm23 0h8v64h-8zm25 0h8v64h-8z"/><path fill="#E63623" d="M829 378h18v6h-18z"/><path fill="#0020F5" d="M852 399h18v6h-18z"/><path fill="#75FA4C" d="M877 364h18v6h-18z"/><g clip-path="url(#clip0)"><path d="M749.503 41.185c2.971 0 5.502-2.526 5.502-5.74l.33 1.377 52.605-13.778c.44 2.756 2.641 4.823 5.392 4.823.991 0 1.981-.345 2.862-.804l17.828 28.13c-.22.689-.44 1.377-.44 2.181 0 3.1 2.421 5.74 5.502 5.74 2.972 0 5.503-2.525 5.503-5.74 0-1.837-.88-3.444-2.201-4.478l15.957-39.037 7.374 25.374c-1.541 1.034-2.641 2.756-2.641 4.823 0 3.214 2.421 5.74 5.502 5.74 2.972 0 5.503-2.526 5.503-5.74 0-1.149-.33-2.182-.881-2.986l12.656-13.892c.771.459 1.651.803 2.641.803 2.972 0 5.503-2.525 5.503-5.74 0-3.1-2.421-5.741-5.503-5.741-2.971 0-5.502 2.526-5.502 5.74 0 1.149.33 2.182.88 2.986l-12.656 13.892c-.77-.459-1.65-.688-2.641-.688h-.22l-7.814-26.752c1.541-1.034 2.642-2.756 2.642-4.822 0-3.1-2.422-5.741-5.503-5.741s-5.503 2.526-5.503 5.74c0 2.526 1.651 4.708 3.852 5.397l-16.287 39.381c-.22 0-.551-.114-.771-.114-1.21 0-2.421.459-3.301 1.148l-17.608-27.9c.44-.804.66-1.723.66-2.756 0-3.1-2.421-5.74-5.503-5.74-2.311 0-4.292 1.492-5.062 3.674l-53.375 14.122c-.66-2.526-2.751-4.363-5.282-4.363-3.082 0-5.503 2.526-5.503 5.74 0 3.215 2.421 5.741 5.503 5.741z" fill="#75FA4C"/></g><g clip-path="url(#clip1)"><path d="M504.185 323.497c0-2.971-2.526-5.502-5.741-5.502l1.378-.33-13.778-52.605c2.756-.44 4.823-2.641 4.823-5.392 0-.991-.345-1.981-.804-2.862l28.13-17.828c.688.22 1.377.44 2.181.44 3.1 0 5.741-2.421 5.741-5.502 0-2.972-2.526-5.503-5.741-5.503-1.837 0-3.444.88-4.478 2.201l-39.037-15.957 25.374-7.374c1.034 1.541 2.756 2.641 4.823 2.641 3.214 0 5.74-2.421 5.74-5.502 0-2.972-2.526-5.503-5.74-5.503-1.149 0-2.182.33-2.986.881l-13.892-12.656c.459-.771.803-1.651.803-2.641 0-2.972-2.525-5.503-5.74-5.503-3.1 0-5.741 2.421-5.741 5.503 0 2.971 2.526 5.502 5.741 5.502 1.148 0 2.181-.33 2.985-.88l13.893 12.656c-.46.77-.689 1.65-.689 2.641v.22l-26.752 7.814c-1.034-1.541-2.756-2.642-4.822-2.642-3.1 0-5.741 2.422-5.741 5.503s2.526 5.503 5.741 5.503c2.525 0 4.707-1.651 5.396-3.852l39.381 16.287c0 .22-.114.551-.114.771 0 1.21.459 2.421 1.148 3.301l-27.9 17.608c-.804-.44-1.723-.66-2.756-.66-3.1 0-5.741 2.421-5.741 5.503 0 2.311 1.493 4.292 3.674 5.062l14.123 53.375c-2.526.66-4.363 2.751-4.363 5.282 0 3.082 2.526 5.503 5.74 5.503 3.215 0 5.741-2.421 5.741-5.503z" fill="#75FA4C"/></g><circle cx="122" cy="458" r="5" fill="#0020F5"/><circle cx="147" cy="458" r="5" fill="#0020F5"/><circle cx="97" cy="483" r="5" fill="#0020F5"/><circle cx="122" cy="483" r="5" fill="#0020F5"/><circle cx="147" cy="483" r="5" fill="#0020F5"/><circle cx="97" cy="508" r="5" fill="#0020F5"/><circle cx="122" cy="508" r="5" fill="#0020F5"/><circle cx="147" cy="508" r="5" fill="#0020F5"/><circle cx="97" cy="458" r="5" fill="#0020F5"/><circle cx="122" cy="459" r="6" fill="#0020F5"/><circle cx="147" cy="459" r="6" fill="#0020F5"/><circle cx="97" cy="483" r="6" fill="#0020F5"/><circle cx="122" cy="483" r="6" fill="#0020F5"/><circle cx="147" cy="483" r="6" fill="#0020F5"/><circle cx="97" cy="507" r="6" fill="#0020F5"/><circle cx="122" cy="507" r="6" fill="#0020F5"/><circle cx="147" cy="507" r="6" fill="#0020F5"/><circle cx="97" cy="459" r="6" fill="#0020F5"/><circle cx="863" cy="561" r="6" fill="#E63623"/><circle cx="888" cy="561" r="6" fill="#E63623"/><circle cx="838" cy="585" r="6" fill="#E63623"/><circle cx="863" cy="585" r="6" fill="#E63623"/><circle cx="888" cy="585" r="6" fill="#E63623"/><circle cx="838" cy="609" r="6" fill="#E63623"/><circle cx="863" cy="609" r="6" fill="#E63623"/><circle cx="888" cy="609" r="6" fill="#E63623"/><circle cx="838" cy="561" r="6" fill="#E63623"/><path d="M623 582c0 .788-.675 1.35-1.35 1.35h-11.817c-.788 0-1.351-.675-1.351-1.35 0-.788.676-1.35 1.351-1.35h11.817c.787 0 1.35.562 1.35 1.35zm-55.37 0c0 .788-.675 1.35-1.35 1.35h-11.93c-.787 0-1.35-.675-1.35-1.35 0-.788.675-1.35 1.35-1.35h11.817c.788 0 1.463.562 1.463 1.35zm21.72 21.833v11.817c0 .787-.675 1.35-1.35 1.35-.788 0-1.35-.675-1.35-1.35v-11.817c0-.788.675-1.351 1.35-1.351.788-.112 1.35.563 1.35 1.351zm0-55.483v11.817c0 .788-.675 1.351-1.35 1.351-.788 0-1.35-.676-1.35-1.351V548.35c0-.787.675-1.35 1.35-1.35.788 0 1.35.675 1.35 1.35zm12.38 64.936c0 .563-.338 1.126-.9 1.351-.676.337-1.576-.113-1.801-.788l-4.389-11.029c-.338-.675.112-1.576.788-1.801.675-.337 1.575.113 1.8.788l4.389 11.029c.113.113.113.225.113.45zm-20.37-51.543c0 .562-.337 1.125-.9 1.35-.675.338-1.576-.112-1.801-.788l-4.276-11.028c-.338-.676.112-1.576.787-1.801.676-.225 1.576.112 1.801.788l4.389 11.029v.45zm38.714 33.987c0 .225 0 .338-.113.563-.337.675-1.125 1.012-1.8.675l-10.804-4.839c-.675-.338-1.013-1.126-.675-1.801.337-.675 1.125-1.013 1.8-.675l10.804 4.839c.45.225.788.788.788 1.238zm-50.531-22.621c0 .225 0 .338-.112.563-.338.675-1.126 1.013-1.801.675l-10.916-4.839c-.675-.338-1.013-1.125-.675-1.801.337-.675 1.125-1.012 1.8-.675l10.804 4.839c.563.225.9.676.9 1.238zm42.878 33.312c0 .338-.112.788-.45 1.013-.563.563-1.463.45-2.026-.112l-7.99-8.554c-.563-.562-.563-1.463 0-1.913.563-.562 1.463-.45 2.026 0l8.103 8.666c.225.225.337.563.337.9zm-37.926-40.289c0 .337-.112.788-.45 1.013-.563.562-1.463.45-2.026-.113l-8.103-8.665c-.562-.451-.45-1.351.113-1.801.563-.563 1.35-.563 1.913 0l8.103 8.666c.338.225.45.562.45.9zm7.09 36.238c0 .112 0 .337-.112.45l-4.277 11.029c-.225.675-1.125 1.125-1.8.788-.676-.225-1.126-1.126-.788-1.801l4.276-11.029c.225-.675 1.126-1.125 1.801-.788.563.225.9.788.9 1.351zm19.807-51.769c0 .113 0 .338-.112.45l-4.277 11.029c-.225.676-1.125 1.126-1.8.788-.676-.225-1.126-1.125-.788-1.8l4.276-11.029c.225-.676 1.126-1.126 1.801-.788.563.225.9.788.9 1.35zm-27.46 46.817c0 .338-.112.675-.45 1.013l-8.44 8.328a1.426 1.426 0 0 1-2.026 0 1.426 1.426 0 0 1 0-2.026l8.328-8.328a1.426 1.426 0 0 1 2.026 0c.45.225.562.675.562 1.013zm39.277-39.164c0 .338-.112.675-.45 1.013l-8.441 8.328a1.425 1.425 0 0 1-2.025 0 1.426 1.426 0 0 1 0-2.026l8.44-8.328a1.426 1.426 0 0 1 2.026 0c.338.338.45.675.45 1.013zm-43.891 32.074c0 .563-.337 1.013-.9 1.238l-10.916 4.502c-.676.337-1.576 0-1.801-.788-.338-.675 0-1.576.788-1.801l10.916-4.501c.675-.338 1.576 0 1.801.787 0 .225.112.338.112.563zm51.206-21.158c0 .563-.337 1.013-.9 1.238l-10.917 4.502c-.675.338-1.575 0-1.8-.788-.338-.675 0-1.575.788-1.8l10.916-4.502c.675-.338 1.576 0 1.801.788 0 .225.112.45.112.562zM363 179h63v63h-63zM93.404 553.8h13.104v3.276h-4.836V572H98.24v-14.924h-4.836V553.8zm19.872 18.2H110v-18.2h3.276v7.384h.468c.329-.78.815-1.378 1.456-1.794.641-.433 1.43-.65 2.366-.65.641 0 1.231.104 1.768.312a3.85 3.85 0 0 1 1.404.936c.399.416.711.953.936 1.612.225.641.338 1.404.338 2.288V572h-3.276v-7.332c0-.919-.225-1.638-.676-2.158-.433-.537-1.066-.806-1.898-.806-.971 0-1.699.329-2.184.988-.468.641-.702 1.508-.702 2.6V572zm15.478-5.382c.017.381.104.737.26 1.066.173.312.399.589.676.832.295.225.624.407.988.546.381.121.78.182 1.196.182.815 0 1.439-.139 1.872-.416.433-.295.745-.641.936-1.04l2.808 1.56a5.96 5.96 0 0 1-.65 1.04 4.6 4.6 0 0 1-1.092.962c-.433.295-.971.537-1.612.728-.624.191-1.361.286-2.21.286-.971 0-1.855-.156-2.652-.468a6 6 0 0 1-2.08-1.352c-.572-.589-1.023-1.309-1.352-2.158-.312-.849-.468-1.811-.468-2.886v-.156c0-.988.165-1.889.494-2.704a6.298 6.298 0 0 1 1.404-2.08 6.247 6.247 0 0 1 2.054-1.326 6.614 6.614 0 0 1 2.548-.494c1.109 0 2.063.199 2.86.598.797.381 1.456.875 1.976 1.482.52.589.901 1.248 1.144 1.976a6.41 6.41 0 0 1 .364 2.08v1.742h-9.464zm3.094-4.914c-.832 0-1.508.217-2.028.65-.52.416-.858.901-1.014 1.456h6.084c-.104-.607-.433-1.109-.988-1.508-.537-.399-1.222-.598-2.054-.598zm25.756-2.6h3.666v-2.652c0-.745.251-1.369.754-1.872.502-.52 1.126-.78 1.872-.78h5.252v3.12h-3.9c-.468 0-.702.26-.702.78v1.404h5.07v3.12h-5.07V572h-3.276v-9.776h-3.666v-3.12zm28.66 6.604c0 1.075-.182 2.028-.546 2.86a6.229 6.229 0 0 1-1.482 2.08 6.591 6.591 0 0 1-2.158 1.274 7.212 7.212 0 0 1-2.522.442 7.423 7.423 0 0 1-2.548-.442 6.64 6.64 0 0 1-2.132-1.274 6.229 6.229 0 0 1-1.482-2.08c-.364-.832-.546-1.785-.546-2.86v-.312c0-1.057.182-1.993.546-2.808a6.168 6.168 0 0 1 1.482-2.106 6.416 6.416 0 0 1 2.132-1.3 7.423 7.423 0 0 1 2.548-.442c.884 0 1.724.147 2.522.442a6.372 6.372 0 0 1 2.158 1.3 6.168 6.168 0 0 1 1.482 2.106c.364.815.546 1.751.546 2.808v.312zm-6.708 3.536c.468 0 .91-.078 1.326-.234.416-.156.78-.381 1.092-.676.312-.295.554-.65.728-1.066a3.59 3.59 0 0 0 .286-1.456v-.52c0-.537-.096-1.014-.286-1.43a3.035 3.035 0 0 0-.728-1.092 3.212 3.212 0 0 0-1.092-.676 3.745 3.745 0 0 0-1.326-.234c-.468 0-.91.078-1.326.234-.416.156-.78.381-1.092.676a3.314 3.314 0 0 0-.754 1.092c-.174.416-.26.893-.26 1.43v.52c0 .537.086 1.023.26 1.456.19.416.442.771.754 1.066.312.295.676.52 1.092.676.416.156.858.234 1.326.234zm18.728-10.14h3.276V572h-3.276v-1.872h-.468c-.572 1.491-1.803 2.236-3.692 2.236-.642 0-1.24-.104-1.794-.312a3.89 3.89 0 0 1-1.456-.962c-.416-.433-.746-.971-.988-1.612-.226-.659-.338-1.43-.338-2.314v-8.06h3.276v7.384c0 .919.216 1.638.65 2.158.433.503 1.083.754 1.95.754.988 0 1.707-.312 2.158-.936.468-.641.702-1.508.702-2.6v-6.76zM208.743 572h-3.276v-12.896h3.276v1.924h.468a3.428 3.428 0 0 1 1.43-1.69c.659-.399 1.43-.598 2.314-.598.624 0 1.205.104 1.742.312.555.191 1.04.494 1.456.91.416.416.737.945.962 1.586.243.641.364 1.404.364 2.288V572h-3.276v-7.332c0-.919-.225-1.638-.676-2.158-.433-.537-1.066-.806-1.898-.806-.97 0-1.698.329-2.184.988-.468.641-.702 1.508-.702 2.6V572zm21.9-1.872h-.468a4.86 4.86 0 0 1-.52.858c-.19.26-.45.494-.78.702a3.848 3.848 0 0 1-1.144.494c-.433.121-.962.182-1.586.182a5.975 5.975 0 0 1-2.236-.416 5.395 5.395 0 0 1-1.794-1.274c-.502-.572-.901-1.265-1.196-2.08-.277-.815-.416-1.751-.416-2.808v-.468c0-1.04.148-1.967.442-2.782.312-.815.728-1.499 1.248-2.054a5.44 5.44 0 0 1 1.846-1.3 5.776 5.776 0 0 1 2.236-.442c1.04 0 1.864.199 2.47.598.607.381 1.084.927 1.43 1.638h.468V553.8h3.276V572h-3.276v-1.872zm-3.432-.884c1.023 0 1.846-.321 2.47-.962.642-.659.962-1.517.962-2.574v-.312c0-1.057-.32-1.907-.962-2.548-.624-.659-1.447-.988-2.47-.988-1.022 0-1.854.321-2.496.962-.624.624-.936 1.482-.936 2.574v.312c0 1.092.312 1.959.936 2.6.642.624 1.474.936 2.496.936zm18.442.884c-.346.815-.832 1.395-1.456 1.742-.624.329-1.352.494-2.184.494-.78 0-1.516-.147-2.21-.442a5.239 5.239 0 0 1-1.794-1.3c-.52-.572-.936-1.265-1.248-2.08-.294-.815-.442-1.742-.442-2.782v-.416c0-1.023.148-1.941.442-2.756.295-.815.694-1.508 1.196-2.08a5.062 5.062 0 0 1 1.742-1.3 5.09 5.09 0 0 1 2.158-.468c.919 0 1.656.156 2.21.468.572.312 1.023.797 1.352 1.456h.468v-1.56h3.276v8.996c0 .52.234.78.702.78h.494V572h-2.236c-.589 0-1.074-.173-1.456-.52-.364-.347-.546-.797-.546-1.352h-.468zm-2.912-.884c.954 0 1.716-.312 2.288-.936.572-.641.858-1.508.858-2.6v-.312c0-1.092-.286-1.95-.858-2.574-.572-.641-1.334-.962-2.288-.962-.953 0-1.716.321-2.288.962-.572.624-.858 1.482-.858 2.574v.312c0 1.092.286 1.959.858 2.6.572.624 1.335.936 2.288.936zm10.122-10.14h3.822V553.8h3.276v5.304h4.654v3.12h-4.654v5.876c0 .52.234.78.702.78h3.484V572h-5.46c-.589 0-1.074-.191-1.456-.572-.364-.381-.546-.867-.546-1.456v-7.748h-3.822v-3.12zm16.518 9.776h4.368v-6.656h-4.056v-3.12h7.332v9.776h3.744V572h-11.388v-3.12zm8.45-13.598a2.4 2.4 0 0 1-.208.988 2.36 2.36 0 0 1-.52.78 2.934 2.934 0 0 1-.806.52 2.443 2.443 0 0 1-.936.182c-.347 0-.667-.061-.962-.182a3.061 3.061 0 0 1-.78-.52 2.753 2.753 0 0 1-.546-.78 2.707 2.707 0 0 1-.182-.988c0-.347.061-.667.182-.962.139-.312.321-.572.546-.78a2.36 2.36 0 0 1 .78-.52c.295-.139.615-.208.962-.208.329 0 .641.069.936.208.312.121.581.295.806.52.225.208.399.468.52.78.139.295.208.615.208.962zm19.872 10.426c0 1.075-.182 2.028-.546 2.86a6.229 6.229 0 0 1-1.482 2.08 6.581 6.581 0 0 1-2.158 1.274 7.208 7.208 0 0 1-2.522.442 7.427 7.427 0 0 1-2.548-.442 6.65 6.65 0 0 1-2.132-1.274 6.229 6.229 0 0 1-1.482-2.08c-.364-.832-.546-1.785-.546-2.86v-.312c0-1.057.182-1.993.546-2.808a6.168 6.168 0 0 1 1.482-2.106 6.426 6.426 0 0 1 2.132-1.3 7.427 7.427 0 0 1 2.548-.442c.884 0 1.725.147 2.522.442a6.362 6.362 0 0 1 2.158 1.3 6.168 6.168 0 0 1 1.482 2.106c.364.815.546 1.751.546 2.808v.312zm-6.708 3.536c.468 0 .91-.078 1.326-.234.416-.156.78-.381 1.092-.676.312-.295.555-.65.728-1.066.191-.433.286-.919.286-1.456v-.52c0-.537-.095-1.014-.286-1.43a3.022 3.022 0 0 0-.728-1.092 3.212 3.212 0 0 0-1.092-.676 3.745 3.745 0 0 0-1.326-.234c-.468 0-.91.078-1.326.234-.416.156-.78.381-1.092.676a3.33 3.33 0 0 0-.754 1.092c-.173.416-.26.893-.26 1.43v.52c0 .537.087 1.023.26 1.456a3.4 3.4 0 0 0 .754 1.066c.312.295.676.52 1.092.676.416.156.858.234 1.326.234zM304.263 572h-3.276v-12.896h3.276v1.924h.468a3.423 3.423 0 0 1 1.43-1.69c.659-.399 1.43-.598 2.314-.598.624 0 1.205.104 1.742.312.555.191 1.04.494 1.456.91.416.416.737.945.962 1.586.243.641.364 1.404.364 2.288V572h-3.276v-7.332c0-.919-.225-1.638-.676-2.158-.433-.537-1.066-.806-1.898-.806-.971 0-1.699.329-2.184.988-.468.641-.702 1.508-.702 2.6V572zm20.99-1.872c-.347.815-.832 1.395-1.456 1.742-.624.329-1.352.494-2.184.494-.78 0-1.517-.147-2.21-.442a5.239 5.239 0 0 1-1.794-1.3c-.52-.572-.936-1.265-1.248-2.08-.295-.815-.442-1.742-.442-2.782v-.416c0-1.023.147-1.941.442-2.756.295-.815.693-1.508 1.196-2.08a5.053 5.053 0 0 1 1.742-1.3 5.087 5.087 0 0 1 2.158-.468c.919 0 1.655.156 2.21.468.572.312 1.023.797 1.352 1.456h.468v-1.56h3.276v8.996c0 .52.234.78.702.78h.494V572h-2.236c-.589 0-1.075-.173-1.456-.52-.364-.347-.546-.797-.546-1.352h-.468zm-2.912-.884c.953 0 1.716-.312 2.288-.936.572-.641.858-1.508.858-2.6v-.312c0-1.092-.286-1.95-.858-2.574-.572-.641-1.335-.962-2.288-.962-.953 0-1.716.321-2.288.962-.572.624-.858 1.482-.858 2.574v.312c0 1.092.286 1.959.858 2.6.572.624 1.335.936 2.288.936zm10.408-.364h4.524v-11.96h-4.368v-3.12h7.644v15.08h4.212V572h-12.012v-3.12zm40.654-9.776h3.276V572h-3.276v-1.872h-.468c-.572 1.491-1.803 2.236-3.692 2.236-.642 0-1.24-.104-1.794-.312a3.89 3.89 0 0 1-1.456-.962c-.416-.433-.746-.971-.988-1.612-.226-.659-.338-1.43-.338-2.314v-8.06h3.276v7.384c0 .919.216 1.638.65 2.158.433.503 1.083.754 1.95.754.988 0 1.707-.312 2.158-.936.468-.641.702-1.508.702-2.6v-6.76zm11.292 3.64c0 .416.216.719.65.91.433.173 1.222.321 2.366.442 1.317.139 2.392.537 3.224 1.196.832.641 1.248 1.543 1.248 2.704v.156c0 1.283-.468 2.305-1.404 3.068-.936.763-2.254 1.144-3.952 1.144-1.006 0-1.864-.13-2.574-.39-.711-.26-1.3-.581-1.768-.962a4.75 4.75 0 0 1-1.092-1.3 5.413 5.413 0 0 1-.494-1.404l3.016-.988c.138.555.424 1.04.858 1.456.45.416 1.135.624 2.054.624.814 0 1.369-.121 1.664-.364.312-.26.468-.537.468-.832a.872.872 0 0 0-.13-.468c-.07-.156-.208-.295-.416-.416-.208-.139-.494-.251-.858-.338a9.295 9.295 0 0 0-1.326-.208c-1.456-.121-2.618-.494-3.484-1.118-.85-.641-1.274-1.577-1.274-2.808v-.156c0-.641.138-1.205.416-1.69a3.875 3.875 0 0 1 1.092-1.222c.45-.347.97-.607 1.56-.78a6.427 6.427 0 0 1 1.82-.26c.814 0 1.516.104 2.106.312.606.191 1.118.451 1.534.78.416.312.754.667 1.014 1.066.26.381.459.754.598 1.118l-2.964 1.196a2.073 2.073 0 0 0-.806-1.092c-.382-.277-.876-.416-1.482-.416-.555 0-.971.104-1.248.312-.278.191-.416.433-.416.728zm14.698 3.874c.017.381.104.737.26 1.066.173.312.398.589.676.832.294.225.624.407.988.546.381.121.78.182 1.196.182.814 0 1.438-.139 1.872-.416.433-.295.745-.641.936-1.04l2.808 1.56a5.96 5.96 0 0 1-.65 1.04 4.64 4.64 0 0 1-1.092.962c-.434.295-.971.537-1.612.728-.624.191-1.361.286-2.21.286-.971 0-1.855-.156-2.652-.468a5.991 5.991 0 0 1-2.08-1.352c-.572-.589-1.023-1.309-1.352-2.158-.312-.849-.468-1.811-.468-2.886v-.156c0-.988.164-1.889.494-2.704a6.268 6.268 0 0 1 1.404-2.08 6.247 6.247 0 0 1 2.054-1.326 6.61 6.61 0 0 1 2.548-.494c1.109 0 2.062.199 2.86.598.797.381 1.456.875 1.976 1.482.52.589.901 1.248 1.144 1.976.242.711.364 1.404.364 2.08v1.742h-9.464zm3.094-4.914c-.832 0-1.508.217-2.028.65-.52.416-.858.901-1.014 1.456h6.084c-.104-.607-.434-1.109-.988-1.508-.538-.399-1.222-.598-2.054-.598zm9.315-2.6h5.46v1.872h.468c.243-.711.65-1.257 1.222-1.638.59-.399 1.292-.598 2.106-.598 1.283 0 2.314.407 3.094 1.222.78.797 1.17 2.019 1.17 3.666v.572l-3.38.312v-.364c0-.711-.182-1.274-.546-1.69-.364-.433-.91-.65-1.638-.65-.728 0-1.3.251-1.716.754-.416.503-.624 1.222-.624 2.158v4.16h2.964V572h-8.892v-3.12h2.652v-6.656h-2.34v-3.12zm18.416 4.264h8.112v2.964h-8.112v-2.964zm18.156-.624c0 .416.217.719.65.91.434.173 1.222.321 2.366.442 1.318.139 2.392.537 3.224 1.196.832.641 1.248 1.543 1.248 2.704v.156c0 1.283-.468 2.305-1.404 3.068-.936.763-2.253 1.144-3.952 1.144-1.005 0-1.863-.13-2.574-.39-.71-.26-1.3-.581-1.768-.962a4.75 4.75 0 0 1-1.092-1.3 5.488 5.488 0 0 1-.494-1.404l3.016-.988a3 3 0 0 0 .858 1.456c.451.416 1.136.624 2.054.624.815 0 1.37-.121 1.664-.364.312-.26.468-.537.468-.832a.864.864 0 0 0-.13-.468c-.069-.156-.208-.295-.416-.416-.208-.139-.494-.251-.858-.338a9.248 9.248 0 0 0-1.326-.208c-1.456-.121-2.617-.494-3.484-1.118-.849-.641-1.274-1.577-1.274-2.808v-.156c0-.641.139-1.205.416-1.69a3.899 3.899 0 0 1 1.092-1.222 4.704 4.704 0 0 1 1.56-.78 6.432 6.432 0 0 1 1.82-.26c.815 0 1.517.104 2.106.312.607.191 1.118.451 1.534.78.416.312.754.667 1.014 1.066.26.381.46.754.598 1.118l-2.964 1.196a2.068 2.068 0 0 0-.806-1.092c-.381-.277-.875-.416-1.482-.416-.554 0-.97.104-1.248.312-.277.191-.416.433-.416.728zm14.412 14.456h-3.276v-18.096h3.276v1.872h.468a3.738 3.738 0 0 1 1.508-1.638c.659-.399 1.5-.598 2.522-.598.763 0 1.482.147 2.158.442a4.919 4.919 0 0 1 1.794 1.3c.52.555.928 1.239 1.222 2.054.312.815.468 1.742.468 2.782v.468c0 1.057-.147 1.993-.442 2.808-.294.815-.693 1.508-1.196 2.08-.502.555-1.1.979-1.794 1.274a5.77 5.77 0 0 1-2.21.416c-.589 0-1.1-.061-1.534-.182a4.305 4.305 0 0 1-1.144-.494 3.996 3.996 0 0 1-.806-.702 6.45 6.45 0 0 1-.546-.858h-.468v7.072zm3.432-7.956c1.023 0 1.846-.312 2.47-.936.642-.641.962-1.508.962-2.6v-.312c0-1.092-.32-1.95-.962-2.574-.624-.641-1.447-.962-2.47-.962-1.022 0-1.854.329-2.496.988-.624.641-.936 1.491-.936 2.548v.312c0 1.057.312 1.915.936 2.574.642.641 1.474.962 2.496.962zm18.234.884c-.347.815-.832 1.395-1.456 1.742-.624.329-1.352.494-2.184.494-.78 0-1.517-.147-2.21-.442a5.239 5.239 0 0 1-1.794-1.3c-.52-.572-.936-1.265-1.248-2.08-.295-.815-.442-1.742-.442-2.782v-.416c0-1.023.147-1.941.442-2.756.295-.815.693-1.508 1.196-2.08a5.053 5.053 0 0 1 1.742-1.3 5.087 5.087 0 0 1 2.158-.468c.919 0 1.655.156 2.21.468.572.312 1.023.797 1.352 1.456h.468v-1.56h3.276v8.996c0 .52.234.78.702.78h.494V572h-2.236c-.589 0-1.075-.173-1.456-.52-.364-.347-.546-.797-.546-1.352h-.468zm-2.912-.884c.953 0 1.716-.312 2.288-.936.572-.641.858-1.508.858-2.6v-.312c0-1.092-.286-1.95-.858-2.574-.572-.641-1.335-.962-2.288-.962-.953 0-1.716.321-2.288.962-.572.624-.858 1.482-.858 2.574v.312c0 1.092.286 1.959.858 2.6.572.624 1.335.936 2.288.936zm23.07-1.976c-.295 1.525-.997 2.756-2.106 3.692-1.092.936-2.557 1.404-4.394 1.404a7.957 7.957 0 0 1-2.678-.442 6.294 6.294 0 0 1-2.132-1.274 5.835 5.835 0 0 1-1.43-2.054c-.347-.815-.52-1.742-.52-2.782v-.312c0-1.04.173-1.976.52-2.808a6.318 6.318 0 0 1 1.43-2.132 6.494 6.494 0 0 1 2.158-1.352 7.49 7.49 0 0 1 2.652-.468c1.803 0 3.259.468 4.368 1.404 1.127.936 1.837 2.167 2.132 3.692l-3.224.832a3.37 3.37 0 0 0-.988-1.976c-.555-.555-1.335-.832-2.34-.832-.468 0-.91.087-1.326.26-.416.173-.78.425-1.092.754a3.499 3.499 0 0 0-.754 1.17c-.173.451-.26.962-.26 1.534v.156c0 .572.087 1.083.26 1.534.191.433.442.797.754 1.092.312.295.676.52 1.092.676.416.139.858.208 1.326.208 1.005 0 1.768-.251 2.288-.754.537-.503.884-1.179 1.04-2.028l3.224.806zm6.222-.65c.017.381.104.737.26 1.066.173.312.399.589.676.832.295.225.624.407.988.546.381.121.78.182 1.196.182.815 0 1.439-.139 1.872-.416.433-.295.745-.641.936-1.04l2.808 1.56a5.96 5.96 0 0 1-.65 1.04 4.6 4.6 0 0 1-1.092.962c-.433.295-.971.537-1.612.728-.624.191-1.361.286-2.21.286-.971 0-1.855-.156-2.652-.468a6 6 0 0 1-2.08-1.352c-.572-.589-1.023-1.309-1.352-2.158-.312-.849-.468-1.811-.468-2.886v-.156c0-.988.165-1.889.494-2.704a6.298 6.298 0 0 1 1.404-2.08 6.247 6.247 0 0 1 2.054-1.326 6.614 6.614 0 0 1 2.548-.494c1.109 0 2.063.199 2.86.598.797.381 1.456.875 1.976 1.482.52.589.901 1.248 1.144 1.976a6.41 6.41 0 0 1 .364 2.08v1.742h-9.464zm3.094-4.914c-.832 0-1.508.217-2.028.65-.52.416-.858.901-1.014 1.456h6.084c-.104-.607-.433-1.109-.988-1.508-.537-.399-1.222-.598-2.054-.598zM94.132 589.8h3.432v14.924h8.268V608h-11.7v-18.2zm16.05 15.08h4.368v-6.656h-4.056v-3.12h7.332v9.776h3.744V608h-11.388v-3.12zm8.45-13.598a2.4 2.4 0 0 1-.208.988 2.36 2.36 0 0 1-.52.78 2.934 2.934 0 0 1-.806.52 2.443 2.443 0 0 1-.936.182c-.347 0-.667-.061-.962-.182a3.061 3.061 0 0 1-.78-.52 2.753 2.753 0 0 1-.546-.78 2.707 2.707 0 0 1-.182-.988c0-.347.061-.667.182-.962.139-.312.321-.572.546-.78a2.36 2.36 0 0 1 .78-.52c.295-.139.615-.208.962-.208.329 0 .641.069.936.208.312.121.581.295.806.52.225.208.399.468.52.78.139.295.208.615.208.962zM129.144 608h-3.276v-12.896h3.276v1.924h.468a3.423 3.423 0 0 1 1.43-1.69c.659-.399 1.43-.598 2.314-.598.624 0 1.205.104 1.742.312.555.191 1.04.494 1.456.91.416.416.737.945.962 1.586.243.641.364 1.404.364 2.288V608h-3.276v-7.332c0-.919-.225-1.638-.676-2.158-.433-.537-1.066-.806-1.898-.806-.971 0-1.699.329-2.184.988-.468.641-.702 1.508-.702 2.6V608zm21.38-12.896h3.276V608h-3.276v-1.872h-.468c-.572 1.491-1.803 2.236-3.692 2.236-.642 0-1.24-.104-1.794-.312a3.89 3.89 0 0 1-1.456-.962c-.416-.433-.746-.971-.988-1.612-.226-.659-.338-1.43-.338-2.314v-8.06h3.276v7.384c0 .919.216 1.638.65 2.158.433.503 1.083.754 1.95.754.988 0 1.707-.312 2.158-.936.468-.641.702-1.508.702-2.6v-6.76zm15.738 0h3.614l-3.12 6.058v.468l3.302 6.37h-3.77l-2.418-5.044h-.468L160.984 608h-3.77l3.302-6.37v-.468l-3.146-6.058h3.64l2.392 4.732h.468l2.392-4.732zm35.87 8.164c-.295 1.525-.997 2.756-2.106 3.692-1.092.936-2.557 1.404-4.394 1.404a7.953 7.953 0 0 1-2.678-.442 6.284 6.284 0 0 1-2.132-1.274 5.822 5.822 0 0 1-1.43-2.054c-.347-.815-.52-1.742-.52-2.782v-.312c0-1.04.173-1.976.52-2.808a6.303 6.303 0 0 1 1.43-2.132 6.494 6.494 0 0 1 2.158-1.352 7.49 7.49 0 0 1 2.652-.468c1.802 0 3.258.468 4.368 1.404 1.126.936 1.837 2.167 2.132 3.692l-3.224.832a3.376 3.376 0 0 0-.988-1.976c-.555-.555-1.335-.832-2.34-.832-.468 0-.91.087-1.326.26-.416.173-.78.425-1.092.754a3.483 3.483 0 0 0-.754 1.17c-.174.451-.26.962-.26 1.534v.156c0 .572.086 1.083.26 1.534.19.433.442.797.754 1.092.312.295.676.52 1.092.676.416.139.858.208 1.326.208 1.005 0 1.768-.251 2.288-.754.537-.503.884-1.179 1.04-2.028l3.224.806zm15.971-1.56c0 1.075-.182 2.028-.546 2.86a6.229 6.229 0 0 1-1.482 2.08 6.581 6.581 0 0 1-2.158 1.274 7.208 7.208 0 0 1-2.522.442 7.427 7.427 0 0 1-2.548-.442 6.65 6.65 0 0 1-2.132-1.274 6.229 6.229 0 0 1-1.482-2.08c-.364-.832-.546-1.785-.546-2.86v-.312c0-1.057.182-1.993.546-2.808a6.168 6.168 0 0 1 1.482-2.106 6.426 6.426 0 0 1 2.132-1.3 7.427 7.427 0 0 1 2.548-.442c.884 0 1.725.147 2.522.442a6.362 6.362 0 0 1 2.158 1.3 6.168 6.168 0 0 1 1.482 2.106c.364.815.546 1.751.546 2.808v.312zm-6.708 3.536c.468 0 .91-.078 1.326-.234.416-.156.78-.381 1.092-.676.312-.295.555-.65.728-1.066.191-.433.286-.919.286-1.456v-.52c0-.537-.095-1.014-.286-1.43a3.022 3.022 0 0 0-.728-1.092 3.212 3.212 0 0 0-1.092-.676 3.745 3.745 0 0 0-1.326-.234c-.468 0-.91.078-1.326.234-.416.156-.78.381-1.092.676a3.33 3.33 0 0 0-.754 1.092c-.173.416-.26.893-.26 1.43v.52c0 .537.087 1.023.26 1.456a3.4 3.4 0 0 0 .754 1.066c.312.295.676.52 1.092.676.416.156.858.234 1.326.234zM224.663 608h-3.276v-12.896h3.276v1.924h.468a3.428 3.428 0 0 1 1.43-1.69c.659-.399 1.43-.598 2.314-.598.624 0 1.205.104 1.742.312.555.191 1.04.494 1.456.91.416.416.737.945.962 1.586.243.641.364 1.404.364 2.288V608h-3.276v-7.332c0-.919-.225-1.638-.676-2.158-.433-.537-1.066-.806-1.898-.806-.97 0-1.698.329-2.184.988-.468.641-.702 1.508-.702 2.6V608zm12.54-12.896h3.666v-2.652c0-.745.252-1.369.754-1.872.503-.52 1.127-.78 1.872-.78h5.252v3.12h-3.9c-.468 0-.702.26-.702.78v1.404h5.07v3.12h-5.07V608h-3.276v-9.776h-3.666v-3.12zm18.91 7.514c.018.381.104.737.26 1.066.174.312.399.589.676.832.295.225.624.407.988.546.382.121.78.182 1.196.182.815 0 1.439-.139 1.872-.416.434-.295.746-.641.936-1.04l2.808 1.56a5.901 5.901 0 0 1-.65 1.04 4.6 4.6 0 0 1-1.092.962c-.433.295-.97.537-1.612.728-.624.191-1.36.286-2.21.286-.97 0-1.854-.156-2.652-.468a6.01 6.01 0 0 1-2.08-1.352c-.572-.589-1.022-1.309-1.352-2.158-.312-.849-.468-1.811-.468-2.886v-.156c0-.988.165-1.889.494-2.704a6.298 6.298 0 0 1 1.404-2.08 6.258 6.258 0 0 1 2.054-1.326 6.618 6.618 0 0 1 2.548-.494c1.11 0 2.063.199 2.86.598.798.381 1.456.875 1.976 1.482a5.66 5.66 0 0 1 1.144 1.976 6.41 6.41 0 0 1 .364 2.08v1.742h-9.464zm3.094-4.914c-.832 0-1.508.217-2.028.65-.52.416-.858.901-1.014 1.456h6.084c-.104-.607-.433-1.109-.988-1.508-.537-.399-1.222-.598-2.054-.598zm9.316-2.6h5.46v1.872h.468c.243-.711.65-1.257 1.222-1.638.589-.399 1.291-.598 2.106-.598 1.283 0 2.314.407 3.094 1.222.78.797 1.17 2.019 1.17 3.666v.572l-3.38.312v-.364c0-.711-.182-1.274-.546-1.69-.364-.433-.91-.65-1.638-.65-.728 0-1.3.251-1.716.754-.416.503-.624 1.222-.624 2.158v4.16h2.964V608h-8.892v-3.12h2.652v-6.656h-2.34v-3.12zm19.43 7.514c.017.381.104.737.26 1.066.173.312.399.589.676.832.295.225.624.407.988.546.381.121.78.182 1.196.182.815 0 1.439-.139 1.872-.416.433-.295.745-.641.936-1.04l2.808 1.56a5.96 5.96 0 0 1-.65 1.04 4.6 4.6 0 0 1-1.092.962c-.433.295-.971.537-1.612.728-.624.191-1.361.286-2.21.286-.971 0-1.855-.156-2.652-.468a6 6 0 0 1-2.08-1.352c-.572-.589-1.023-1.309-1.352-2.158-.312-.849-.468-1.811-.468-2.886v-.156c0-.988.165-1.889.494-2.704a6.298 6.298 0 0 1 1.404-2.08 6.247 6.247 0 0 1 2.054-1.326 6.614 6.614 0 0 1 2.548-.494c1.109 0 2.063.199 2.86.598.797.381 1.456.875 1.976 1.482.52.589.901 1.248 1.144 1.976a6.41 6.41 0 0 1 .364 2.08v1.742h-9.464zm3.094-4.914c-.832 0-1.508.217-2.028.65-.52.416-.858.901-1.014 1.456h6.084c-.104-.607-.433-1.109-.988-1.508-.537-.399-1.222-.598-2.054-.598zM304.263 608h-3.276v-12.896h3.276v1.924h.468a3.423 3.423 0 0 1 1.43-1.69c.659-.399 1.43-.598 2.314-.598.624 0 1.205.104 1.742.312.555.191 1.04.494 1.456.91.416.416.737.945.962 1.586.243.641.364 1.404.364 2.288V608h-3.276v-7.332c0-.919-.225-1.638-.676-2.158-.433-.537-1.066-.806-1.898-.806-.971 0-1.699.329-2.184.988-.468.641-.702 1.508-.702 2.6V608zm25.228-4.732c-.295 1.525-.997 2.756-2.106 3.692-1.092.936-2.557 1.404-4.394 1.404a7.957 7.957 0 0 1-2.678-.442 6.294 6.294 0 0 1-2.132-1.274 5.835 5.835 0 0 1-1.43-2.054c-.347-.815-.52-1.742-.52-2.782v-.312c0-1.04.173-1.976.52-2.808a6.318 6.318 0 0 1 1.43-2.132 6.494 6.494 0 0 1 2.158-1.352 7.49 7.49 0 0 1 2.652-.468c1.803 0 3.259.468 4.368 1.404 1.127.936 1.837 2.167 2.132 3.692l-3.224.832a3.37 3.37 0 0 0-.988-1.976c-.555-.555-1.335-.832-2.34-.832-.468 0-.91.087-1.326.26-.416.173-.78.425-1.092.754a3.499 3.499 0 0 0-.754 1.17c-.173.451-.26.962-.26 1.534v.156c0 .572.087 1.083.26 1.534.191.433.442.797.754 1.092.312.295.676.52 1.092.676.416.139.858.208 1.326.208 1.005 0 1.768-.251 2.288-.754.537-.503.884-1.179 1.04-2.028l3.224.806zm6.222-.65c.017.381.104.737.26 1.066.173.312.398.589.676.832.294.225.624.407.988.546.381.121.78.182 1.196.182.814 0 1.438-.139 1.872-.416.433-.295.745-.641.936-1.04l2.808 1.56a5.96 5.96 0 0 1-.65 1.04 4.64 4.64 0 0 1-1.092.962c-.434.295-.971.537-1.612.728-.624.191-1.361.286-2.21.286-.971 0-1.855-.156-2.652-.468a5.991 5.991 0 0 1-2.08-1.352c-.572-.589-1.023-1.309-1.352-2.158-.312-.849-.468-1.811-.468-2.886v-.156c0-.988.164-1.889.494-2.704a6.268 6.268 0 0 1 1.404-2.08 6.247 6.247 0 0 1 2.054-1.326 6.61 6.61 0 0 1 2.548-.494c1.109 0 2.062.199 2.86.598.797.381 1.456.875 1.976 1.482.52.589.901 1.248 1.144 1.976.242.711.364 1.404.364 2.08v1.742h-9.464zm3.094-4.914c-.832 0-1.508.217-2.028.65-.52.416-.858.901-1.014 1.456h6.084c-.104-.607-.434-1.109-.988-1.508-.538-.399-1.222-.598-2.054-.598zm226.269-495.34c0-.728-.286-1.361-.858-1.898-.555-.537-1.343-.806-2.366-.806-.867 0-1.551.182-2.054.546-.503.347-.754.823-.754 1.43 0 .312.061.598.182.858.121.243.329.468.624.676.312.191.711.364 1.196.52.503.156 1.135.303 1.898.442 1.907.347 3.363.927 4.368 1.742 1.005.815 1.508 2.019 1.508 3.614v.312c0 .849-.156 1.621-.468 2.314a4.747 4.747 0 0 1-1.3 1.742c-.572.485-1.265.858-2.08 1.118-.815.26-1.733.39-2.756.39-1.196 0-2.253-.165-3.172-.494-.901-.347-1.655-.815-2.262-1.404a6.083 6.083 0 0 1-1.378-2.106 7.356 7.356 0 0 1-.468-2.652v-.78h3.432v.624c0 1.092.312 1.967.936 2.626.641.641 1.629.962 2.964.962 1.04 0 1.811-.225 2.314-.676.503-.451.754-.988.754-1.612 0-.295-.052-.572-.156-.832a1.69 1.69 0 0 0-.546-.728c-.26-.225-.615-.425-1.066-.598-.451-.173-1.023-.321-1.716-.442a18.557 18.557 0 0 1-2.522-.598 7.48 7.48 0 0 1-2.002-1.014 4.358 4.358 0 0 1-1.3-1.56c-.312-.624-.468-1.387-.468-2.288v-.156c0-.745.147-1.43.442-2.054a5.208 5.208 0 0 1 1.274-1.664 6.06 6.06 0 0 1 1.976-1.092c.78-.26 1.647-.39 2.6-.39 1.075 0 2.028.156 2.86.468.832.295 1.525.702 2.08 1.222.572.52.997 1.118 1.274 1.794.295.676.442 1.387.442 2.132v.936h-3.432v-.624zm9.758 7.254c.017.381.104.737.26 1.066.173.312.399.589.676.832.295.225.624.407.988.546.381.121.78.182 1.196.182.815 0 1.439-.139 1.872-.416.433-.295.745-.641.936-1.04l2.808 1.56a5.96 5.96 0 0 1-.65 1.04 4.6 4.6 0 0 1-1.092.962c-.433.295-.971.537-1.612.728-.624.191-1.361.286-2.21.286-.971 0-1.855-.156-2.652-.468a6 6 0 0 1-2.08-1.352c-.572-.589-1.023-1.309-1.352-2.158-.312-.849-.468-1.811-.468-2.886v-.156c0-.988.165-1.889.494-2.704a6.298 6.298 0 0 1 1.404-2.08 6.247 6.247 0 0 1 2.054-1.326 6.614 6.614 0 0 1 2.548-.494c1.109 0 2.063.199 2.86.598.797.381 1.456.875 1.976 1.482.52.589.901 1.248 1.144 1.976a6.41 6.41 0 0 1 .364 2.08v1.742h-9.464zm3.094-4.914c-.832 0-1.508.217-2.028.65-.52.416-.858.901-1.014 1.456h6.084c-.104-.607-.433-1.109-.988-1.508-.537-.399-1.222-.598-2.054-.598zm12.54 15.496h-3.276v-18.096h3.276v1.872h.468a3.732 3.732 0 0 1 1.508-1.638c.659-.399 1.499-.598 2.522-.598.763 0 1.482.147 2.158.442a4.935 4.935 0 0 1 1.794 1.3c.52.555.927 1.239 1.222 2.054.312.815.468 1.742.468 2.782v.468c0 1.057-.147 1.993-.442 2.808-.295.815-.693 1.508-1.196 2.08a5.072 5.072 0 0 1-1.794 1.274 5.774 5.774 0 0 1-2.21.416c-.589 0-1.101-.061-1.534-.182a4.291 4.291 0 0 1-1.144-.494 3.968 3.968 0 0 1-.806-.702 6.45 6.45 0 0 1-.546-.858h-.468v7.072zm3.432-7.956c1.023 0 1.846-.312 2.47-.936.641-.641.962-1.508.962-2.6v-.312c0-1.092-.321-1.95-.962-2.574-.624-.641-1.447-.962-2.47-.962-1.023 0-1.855.329-2.496.988-.624.641-.936 1.491-.936 2.548v.312c0 1.057.312 1.915.936 2.574.641.641 1.473.962 2.496.962zm9.524-10.14h3.822V96.8h3.276v5.304h4.654v3.12h-4.654v5.876c0 .52.234.78.702.78h3.484V115h-5.46c-.59 0-1.075-.191-1.456-.572-.364-.381-.546-.867-.546-1.456v-7.748h-3.822v-3.12zm19.17 7.514c.017.381.104.737.26 1.066.173.312.398.589.676.832.294.225.624.407.988.546.381.121.78.182 1.196.182.814 0 1.438-.139 1.872-.416.433-.295.745-.641.936-1.04l2.808 1.56a5.96 5.96 0 0 1-.65 1.04 4.64 4.64 0 0 1-1.092.962c-.434.295-.971.537-1.612.728-.624.191-1.361.286-2.21.286-.971 0-1.855-.156-2.652-.468a5.991 5.991 0 0 1-2.08-1.352c-.572-.589-1.023-1.309-1.352-2.158-.312-.849-.468-1.811-.468-2.886v-.156c0-.988.164-1.889.494-2.704a6.268 6.268 0 0 1 1.404-2.08 6.247 6.247 0 0 1 2.054-1.326 6.61 6.61 0 0 1 2.548-.494c1.109 0 2.062.199 2.86.598.797.381 1.456.875 1.976 1.482.52.589.901 1.248 1.144 1.976.242.711.364 1.404.364 2.08v1.742h-9.464zm3.094-4.914c-.832 0-1.508.217-2.028.65-.52.416-.858.901-1.014 1.456h6.084c-.104-.607-.434-1.109-.988-1.508-.538-.399-1.222-.598-2.054-.598zM648.576 115H645.3v-9.048c0-.364-.096-.633-.286-.806-.174-.191-.408-.286-.702-.286-.347 0-.624.104-.832.312-.191.208-.286.52-.286.936V115h-3.276v-9.048c0-.364-.104-.633-.312-.806a.954.954 0 0 0-.702-.286c-.312 0-.572.104-.78.312-.208.208-.312.52-.312.936V115h-3.276v-12.896h3.276v1.248h.468c.104-.468.338-.849.702-1.144.381-.312.875-.468 1.482-.468.572 0 1.057.156 1.456.468.398.295.667.676.806 1.144h.468c.138-.468.424-.849.858-1.144.45-.312 1.005-.468 1.664-.468.866 0 1.56.295 2.08.884.52.572.78 1.369.78 2.392V115zm5.702 0h-3.276V96.8h3.276v7.176h.468a3.726 3.726 0 0 1 1.508-1.638c.658-.399 1.499-.598 2.522-.598.762 0 1.482.147 2.158.442a4.935 4.935 0 0 1 1.794 1.3c.52.555.927 1.239 1.222 2.054.312.815.468 1.742.468 2.782v.468c0 1.057-.148 1.993-.442 2.808-.295.815-.694 1.508-1.196 2.08a5.072 5.072 0 0 1-1.794 1.274 5.774 5.774 0 0 1-2.21.416c-.59 0-1.101-.061-1.534-.182a4.277 4.277 0 0 1-1.144-.494 3.968 3.968 0 0 1-.806-.702 6.45 6.45 0 0 1-.546-.858h-.468V115zm3.432-2.756c1.022 0 1.846-.312 2.47-.936.641-.641.962-1.508.962-2.6v-.312c0-1.092-.321-1.95-.962-2.574-.624-.641-1.448-.962-2.47-.962-1.023 0-1.855.329-2.496.988-.624.641-.936 1.491-.936 2.548v.312c0 1.057.312 1.915.936 2.574.641.641 1.473.962 2.496.962zm12.643-2.626c.018.381.104.737.26 1.066.174.312.399.589.676.832.295.225.624.407.988.546.382.121.78.182 1.196.182.815 0 1.439-.139 1.872-.416.434-.295.746-.641.936-1.04l2.808 1.56a5.901 5.901 0 0 1-.65 1.04 4.6 4.6 0 0 1-1.092.962c-.433.295-.97.537-1.612.728-.624.191-1.36.286-2.21.286-.97 0-1.854-.156-2.652-.468a6.01 6.01 0 0 1-2.08-1.352c-.572-.589-1.022-1.309-1.352-2.158-.312-.849-.468-1.811-.468-2.886v-.156c0-.988.165-1.889.494-2.704a6.298 6.298 0 0 1 1.404-2.08 6.258 6.258 0 0 1 2.054-1.326 6.618 6.618 0 0 1 2.548-.494c1.11 0 2.063.199 2.86.598.798.381 1.456.875 1.976 1.482a5.66 5.66 0 0 1 1.144 1.976 6.41 6.41 0 0 1 .364 2.08v1.742h-9.464zm3.094-4.914c-.832 0-1.508.217-2.028.65-.52.416-.858.901-1.014 1.456h6.084c-.104-.607-.433-1.109-.988-1.508-.537-.399-1.222-.598-2.054-.598zm9.316-2.6h5.46v1.872h.468c.243-.711.65-1.257 1.222-1.638.59-.399 1.292-.598 2.106-.598 1.283 0 2.314.407 3.094 1.222.78.797 1.17 2.019 1.17 3.666v.572l-3.38.312v-.364c0-.711-.182-1.274-.546-1.69-.364-.433-.91-.65-1.638-.65-.728 0-1.3.251-1.716.754-.416.503-.624 1.222-.624 2.158v4.16h2.964V115h-8.892v-3.12h2.652v-6.656h-2.34v-3.12zm44.918 9.62V115h-12.792v-3.588c0-.953.139-1.768.416-2.444a4.923 4.923 0 0 1 1.222-1.716 6.605 6.605 0 0 1 1.924-1.144 14.94 14.94 0 0 1 2.522-.78c.694-.156 1.257-.329 1.69-.52.451-.208.806-.433 1.066-.676.26-.26.434-.537.52-.832.104-.312.156-.659.156-1.04 0-.728-.268-1.335-.806-1.82-.52-.485-1.248-.728-2.184-.728-.988 0-1.776.303-2.366.91-.589.589-.884 1.413-.884 2.47v1.144h-3.432v-1.456c0-.849.148-1.655.442-2.418a6.18 6.18 0 0 1 1.3-2.028 5.986 5.986 0 0 1 2.08-1.378c.815-.347 1.734-.52 2.756-.52 1.092 0 2.046.165 2.86.494.815.312 1.491.728 2.028 1.248.555.52.962 1.127 1.222 1.82.278.676.416 1.378.416 2.106v.312c0 1.525-.433 2.791-1.3 3.796-.849 1.005-2.244 1.733-4.186 2.184-.814.191-1.49.39-2.028.598-.52.191-.927.407-1.222.65a2.09 2.09 0 0 0-.624.806 2.73 2.73 0 0 0-.156.962v.312h9.36zm9.394 3.64c-1.023 0-1.941-.121-2.756-.364-.815-.26-1.508-.615-2.08-1.066a4.81 4.81 0 0 1-1.326-1.586c-.312-.624-.468-1.317-.468-2.08v-.156c0-.641.087-1.205.26-1.69a4.39 4.39 0 0 1 .728-1.248 4.415 4.415 0 0 1 1.04-.858c.381-.225.78-.399 1.196-.52v-.468a5.687 5.687 0 0 1-1.066-.546 4.327 4.327 0 0 1-.884-.806 4.453 4.453 0 0 1-.598-1.144 5.105 5.105 0 0 1-.208-1.508v-.156c0-.745.173-1.413.52-2.002a4.69 4.69 0 0 1 1.378-1.482 6.161 6.161 0 0 1 1.95-.936 8.568 8.568 0 0 1 2.314-.312c.797 0 1.56.104 2.288.312.745.208 1.404.52 1.976.936a4.69 4.69 0 0 1 1.378 1.482c.347.59.52 1.257.52 2.002v.156c0 .555-.078 1.057-.234 1.508a3.575 3.575 0 0 1-1.482 1.95 4.994 4.994 0 0 1-1.04.546v.468c.416.121.815.295 1.196.52.381.225.719.511 1.014.858.312.347.555.763.728 1.248.191.485.286 1.049.286 1.69v.156c0 .763-.156 1.456-.468 2.08a4.732 4.732 0 0 1-1.326 1.612c-.572.433-1.274.78-2.106 1.04-.815.243-1.725.364-2.73.364zm0-3.276c1.023 0 1.811-.225 2.366-.676.555-.468.832-1.057.832-1.768 0-.711-.277-1.291-.832-1.742-.555-.468-1.343-.702-2.366-.702-1.023 0-1.811.234-2.366.702-.555.451-.832 1.031-.832 1.742 0 .711.277 1.3.832 1.768.555.451 1.343.676 2.366.676zm0-12.376c-.78 0-1.43.2-1.95.598-.52.399-.78.901-.78 1.508s.26 1.109.78 1.508 1.17.598 1.95.598 1.43-.199 1.95-.598c.52-.399.78-.901.78-1.508s-.26-1.109-.78-1.508-1.17-.598-1.95-.598zm11.864 6.656h8.112v2.964h-8.112v-2.964zm18.208.832v-5.408l4.524-1.248v-.468h-9.048V96.8h11.856v5.72l-4.836 1.404v.468h.624c.641 0 1.274.104 1.898.312.624.191 1.17.494 1.638.91a4.63 4.63 0 0 1 1.17 1.56c.295.607.442 1.326.442 2.158v.312a6.04 6.04 0 0 1-.416 2.262c-.26.693-.659 1.3-1.196 1.82-.52.503-1.17.901-1.95 1.196-.78.295-1.673.442-2.678.442-1.023 0-1.95-.165-2.782-.494a6.395 6.395 0 0 1-2.132-1.352 6.103 6.103 0 0 1-1.794-4.342v-1.092h3.432v.936c0 .832.269 1.551.806 2.158s1.343.91 2.418.91c.919 0 1.621-.234 2.106-.702.503-.468.754-1.083.754-1.846 0-.815-.269-1.404-.806-1.768-.52-.381-1.187-.572-2.002-.572h-2.028zm15.504-1.3c0-.589.217-1.101.65-1.534.433-.433.945-.65 1.534-.65.589 0 1.101.217 1.534.65.433.433.65.945.65 1.534 0 .589-.217 1.101-.65 1.534-.433.433-.945.65-1.534.65-.589 0-1.101-.217-1.534-.65-.433-.433-.65-.945-.65-1.534zm-4.524-2.028c0-2.357.589-4.186 1.768-5.486 1.196-1.3 2.843-1.95 4.94-1.95 2.097 0 3.735.65 4.914 1.95 1.196 1.3 1.794 3.129 1.794 5.486v4.056c0 2.427-.598 4.273-1.794 5.538-1.179 1.265-2.817 1.898-4.914 1.898-2.097 0-3.744-.633-4.94-1.898-1.179-1.265-1.768-3.111-1.768-5.538v-4.056zm6.708 8.372c.624 0 1.144-.095 1.56-.286a2.716 2.716 0 0 0 1.014-.858c.26-.364.442-.797.546-1.3a8.228 8.228 0 0 0 .156-1.664v-4.472c0-.572-.061-1.109-.182-1.612a3.7 3.7 0 0 0-.572-1.3 2.716 2.716 0 0 0-1.014-.858c-.416-.225-.919-.338-1.508-.338s-1.092.113-1.508.338a2.716 2.716 0 0 0-1.014.858 3.7 3.7 0 0 0-.572 1.3 6.874 6.874 0 0 0-.182 1.612v4.472c0 .607.052 1.161.156 1.664.104.503.286.936.546 1.3.26.364.598.65 1.014.858.416.191.936.286 1.56.286zm18.39.65c0 .347-.07.676-.208.988a2.376 2.376 0 0 1-.52.78 2.522 2.522 0 0 1-.806.494 2.169 2.169 0 0 1-.936.208c-.347 0-.668-.069-.962-.208a2.581 2.581 0 0 1-.78-.494 2.713 2.713 0 0 1-.546-.78 2.687 2.687 0 0 1-.182-.988c0-.347.06-.667.182-.962.138-.312.32-.572.546-.78a2.36 2.36 0 0 1 .78-.52c.294-.139.615-.208.962-.208.329 0 .641.069.936.208.312.121.58.295.806.52.225.208.398.468.52.78.138.295.208.615.208.962zm19.976-1.17V115h-12.792v-3.588c0-.953.138-1.768.416-2.444a4.91 4.91 0 0 1 1.222-1.716 6.578 6.578 0 0 1 1.924-1.144 14.912 14.912 0 0 1 2.522-.78c.693-.156 1.256-.329 1.69-.52.45-.208.806-.433 1.066-.676.26-.26.433-.537.52-.832.104-.312.156-.659.156-1.04 0-.728-.269-1.335-.806-1.82-.52-.485-1.248-.728-2.184-.728-.988 0-1.777.303-2.366.91-.59.589-.884 1.413-.884 2.47v1.144h-3.432v-1.456c0-.849.147-1.655.442-2.418a6.163 6.163 0 0 1 1.3-2.028 5.977 5.977 0 0 1 2.08-1.378c.814-.347 1.733-.52 2.756-.52 1.092 0 2.045.165 2.86.494.814.312 1.49.728 2.028 1.248.554.52.962 1.127 1.222 1.82.277.676.416 1.378.416 2.106v.312c0 1.525-.434 2.791-1.3 3.796-.85 1.005-2.245 1.733-4.186 2.184-.815.191-1.491.39-2.028.598-.52.191-.928.407-1.222.65-.295.243-.503.511-.624.806a2.73 2.73 0 0 0-.156.962v.312h9.36zm7.21-5.824c0-.589.216-1.101.65-1.534.433-.433.944-.65 1.534-.65.589 0 1.1.217 1.534.65.433.433.65.945.65 1.534 0 .589-.217 1.101-.65 1.534-.434.433-.945.65-1.534.65-.59 0-1.101-.217-1.534-.65-.434-.433-.65-.945-.65-1.534zm-4.524-2.028c0-2.357.589-4.186 1.768-5.486 1.196-1.3 2.842-1.95 4.94-1.95 2.097 0 3.735.65 4.914 1.95 1.196 1.3 1.794 3.129 1.794 5.486v4.056c0 2.427-.598 4.273-1.794 5.538-1.179 1.265-2.817 1.898-4.914 1.898-2.098 0-3.744-.633-4.94-1.898-1.179-1.265-1.768-3.111-1.768-5.538v-4.056zm6.708 8.372c.624 0 1.144-.095 1.56-.286a2.716 2.716 0 0 0 1.014-.858c.26-.364.442-.797.546-1.3a8.228 8.228 0 0 0 .156-1.664v-4.472c0-.572-.061-1.109-.182-1.612a3.718 3.718 0 0 0-.572-1.3 2.716 2.716 0 0 0-1.014-.858c-.416-.225-.919-.338-1.508-.338-.59 0-1.092.113-1.508.338a2.716 2.716 0 0 0-1.014.858 3.7 3.7 0 0 0-.572 1.3 6.822 6.822 0 0 0-.182 1.612v4.472c0 .607.052 1.161.156 1.664.104.503.286.936.546 1.3.26.364.598.65 1.014.858.416.191.936.286 1.56.286zm14.828-.52V98.516h-.468l-1.716 6.24h-3.276v-.312l2.184-7.644h6.708v14.924h4.524V115h-13.104v-3.276h5.148zm14.282-1.872c0 .607.216 1.135.65 1.586.45.433 1.144.65 2.08.65.936 0 1.672-.269 2.21-.806.554-.555.832-1.274.832-2.158v-2.34h-.468a3.22 3.22 0 0 1-1.196 1.482c-.555.364-1.344.546-2.366.546-.78 0-1.508-.139-2.184-.416a5.553 5.553 0 0 1-1.742-1.222 5.645 5.645 0 0 1-1.144-1.872c-.278-.728-.416-1.534-.416-2.418v-.312c0-.867.156-1.673.468-2.418a5.655 5.655 0 0 1 1.3-1.95 6.102 6.102 0 0 1 2.054-1.3c.814-.312 1.716-.468 2.704-.468.901 0 1.742.147 2.522.442.797.295 1.482.71 2.054 1.248a5.582 5.582 0 0 1 1.352 1.898c.329.728.494 1.534.494 2.418v6.63c0 .988-.165 1.872-.494 2.652-.33.78-.78 1.439-1.352 1.976a6.056 6.056 0 0 1-2.028 1.248 7.263 7.263 0 0 1-2.496.416 8.09 8.09 0 0 1-2.47-.364 6.373 6.373 0 0 1-2.002-1.092 5.461 5.461 0 0 1-1.326-1.742c-.312-.676-.468-1.447-.468-2.314h3.432zm2.73-10.14c-.884 0-1.612.269-2.184.806-.572.52-.858 1.222-.858 2.106 0 .884.286 1.595.858 2.132.572.52 1.3.78 2.184.78.884 0 1.612-.26 2.184-.78.572-.537.858-1.248.858-2.132 0-.884-.286-1.586-.858-2.106-.572-.537-1.3-.806-2.184-.806zM554.486 135.4h1.62l3.294 11.952h.216l3.294-11.952h1.62l-3.564 12.6h-2.916l-3.564-12.6zm13.127 8.568c.036.888.312 1.602.828 2.142.516.54 1.236.81 2.16.81.42 0 .786-.048 1.098-.144a2.45 2.45 0 0 0 .792-.396c.228-.168.408-.36.54-.576.144-.228.258-.468.342-.72l1.332.36a3.97 3.97 0 0 1-1.404 2.034c-.672.516-1.584.774-2.736.774a4.707 4.707 0 0 1-1.764-.324 4.074 4.074 0 0 1-1.368-.954 4.392 4.392 0 0 1-.9-1.458 5.195 5.195 0 0 1-.324-1.872v-.432c0-.624.108-1.206.324-1.746.228-.54.54-1.002.936-1.386a4.174 4.174 0 0 1 1.386-.918 4.442 4.442 0 0 1 1.746-.342c.732 0 1.362.138 1.89.414.54.264.978.594 1.314.99.348.396.6.828.756 1.296.168.468.252.9.252 1.296v1.152h-7.2zm2.988-3.816a3.12 3.12 0 0 0-1.116.198 2.81 2.81 0 0 0-.9.522 3 3 0 0 0-.63.81c-.156.3-.258.63-.306.99h5.76a2.504 2.504 0 0 0-.288-1.044 2.393 2.393 0 0 0-.63-.792 2.774 2.774 0 0 0-.882-.504 2.88 2.88 0 0 0-1.008-.18zm8.412 7.848h-1.404v-8.928h1.404v1.512h.216c.552-1.176 1.512-1.764 2.88-1.764 1.032 0 1.854.324 2.466.972.612.636.918 1.596.918 2.88V148h-1.404v-5.04c0-.936-.21-1.638-.63-2.106-.42-.468-.99-.702-1.71-.702-.852 0-1.524.294-2.016.882-.48.576-.72 1.35-.72 2.322V148zm15.989-8.928h1.404V148h-1.404v-1.62h-.216c-.288.576-.666 1.032-1.134 1.368-.468.336-1.062.504-1.782.504a3.65 3.65 0 0 1-1.368-.252 2.786 2.786 0 0 1-1.062-.72 3.562 3.562 0 0 1-.684-1.206c-.156-.48-.234-1.038-.234-1.674v-5.328h1.404v5.148c0 .936.192 1.62.576 2.052.384.432.972.648 1.764.648.852 0 1.518-.288 1.998-.864.492-.588.738-1.368.738-2.34v-4.644zm5.676 4.896c.036.888.312 1.602.828 2.142.516.54 1.236.81 2.16.81.42 0 .786-.048 1.098-.144a2.45 2.45 0 0 0 .792-.396c.228-.168.408-.36.54-.576.144-.228.258-.468.342-.72l1.332.36a3.97 3.97 0 0 1-1.404 2.034c-.672.516-1.584.774-2.736.774a4.707 4.707 0 0 1-1.764-.324 4.074 4.074 0 0 1-1.368-.954 4.392 4.392 0 0 1-.9-1.458 5.195 5.195 0 0 1-.324-1.872v-.432c0-.624.108-1.206.324-1.746.228-.54.54-1.002.936-1.386a4.174 4.174 0 0 1 1.386-.918 4.442 4.442 0 0 1 1.746-.342c.732 0 1.362.138 1.89.414.54.264.978.594 1.314.99.348.396.6.828.756 1.296.168.468.252.9.252 1.296v1.152h-7.2zm2.988-3.816a3.12 3.12 0 0 0-1.116.198 2.81 2.81 0 0 0-.9.522 3 3 0 0 0-.63.81c-.156.3-.258.63-.306.99h5.76a2.504 2.504 0 0 0-.288-1.044 2.393 2.393 0 0 0-.63-.792 2.774 2.774 0 0 0-.882-.504 2.88 2.88 0 0 0-1.008-.18zm17.543-4.752h8.856v1.404h-3.672V148h-1.512v-11.196h-3.672V135.4zm10.967 11.196h1.08v-9.792h-1.08V135.4h5.094c.6 0 1.128.084 1.584.252.468.168.858.396 1.17.684.324.288.564.636.72 1.044.168.396.252.828.252 1.296v.216c0 .348-.054.666-.162.954a2.619 2.619 0 0 1-.45.774 2.974 2.974 0 0 1-1.512.954v.216c.6.168 1.104.492 1.512.972.408.468.612 1.044.612 1.728v.216c0 .468-.084.906-.252 1.314a2.817 2.817 0 0 1-.72 1.044 3.387 3.387 0 0 1-1.17.684c-.456.168-.984.252-1.584.252h-5.094v-1.404zm2.592 0h2.394c.708 0 1.284-.174 1.728-.522.444-.36.666-.852.666-1.476v-.108c0-.648-.21-1.158-.63-1.53-.42-.384-.99-.576-1.71-.576h-2.448v4.212zm0-5.616h2.448c.72 0 1.29-.186 1.71-.558.42-.372.63-.882.63-1.53v-.108c0-.612-.222-1.092-.666-1.44-.444-.36-1.02-.54-1.728-.54h-2.394v4.176zm8.718-5.58h4.14c1.56 0 2.7.372 3.42 1.116.72.744 1.08 1.932 1.08 3.564v3.24c0 1.632-.36 2.82-1.08 3.564-.72.744-1.86 1.116-3.42 1.116h-4.14v-1.422h1.08v-9.774h-1.08V135.4zm3.924 11.196c.552 0 1.026-.054 1.422-.162a2.27 2.27 0 0 0 1.008-.54c.264-.264.456-.612.576-1.044.132-.432.198-.978.198-1.638v-3.024c0-.66-.066-1.206-.198-1.638-.12-.432-.312-.774-.576-1.026-.264-.264-.6-.45-1.008-.558-.396-.108-.87-.162-1.422-.162h-1.332v9.792h1.332zm10.031.396c0-.348.12-.642.36-.882.252-.252.552-.378.9-.378s.642.126.882.378c.252.24.378.534.378.882v1.764c0 .408-.132.744-.396 1.008-.252.264-.582.396-.99.396h-.918v-.972h.846c.324 0 .486-.18.486-.54v-.45a.864.864 0 0 1-.306.054c-.336 0-.63-.12-.882-.36a1.26 1.26 0 0 1-.36-.9zm18.821-.396h1.08v-9.792h-1.08V135.4h5.094c.6 0 1.128.084 1.584.252.468.168.858.396 1.17.684.324.288.564.636.72 1.044.168.396.252.828.252 1.296v.216c0 .348-.054.666-.162.954a2.619 2.619 0 0 1-.45.774 2.974 2.974 0 0 1-1.512.954v.216c.6.168 1.104.492 1.512.972.408.468.612 1.044.612 1.728v.216c0 .468-.084.906-.252 1.314a2.817 2.817 0 0 1-.72 1.044 3.387 3.387 0 0 1-1.17.684c-.456.168-.984.252-1.584.252h-5.094v-1.404zm2.592 0h2.394c.708 0 1.284-.174 1.728-.522.444-.36.666-.852.666-1.476v-.108c0-.648-.21-1.158-.63-1.53-.42-.384-.99-.576-1.71-.576h-2.448v4.212zm0-5.616h2.448c.72 0 1.29-.186 1.71-.558.42-.372.63-.882.63-1.53v-.108c0-.612-.222-1.092-.666-1.44-.444-.36-1.02-.54-1.728-.54h-2.394v4.176zm9.996 2.988c.036.888.312 1.602.828 2.142.516.54 1.236.81 2.16.81.42 0 .786-.048 1.098-.144a2.45 2.45 0 0 0 .792-.396c.228-.168.408-.36.54-.576.144-.228.258-.468.342-.72l1.332.36a3.97 3.97 0 0 1-1.404 2.034c-.672.516-1.584.774-2.736.774a4.707 4.707 0 0 1-1.764-.324 4.074 4.074 0 0 1-1.368-.954 4.392 4.392 0 0 1-.9-1.458 5.195 5.195 0 0 1-.324-1.872v-.432c0-.624.108-1.206.324-1.746.228-.54.54-1.002.936-1.386a4.174 4.174 0 0 1 1.386-.918 4.442 4.442 0 0 1 1.746-.342c.732 0 1.362.138 1.89.414.54.264.978.594 1.314.99.348.396.6.828.756 1.296.168.468.252.9.252 1.296v1.152h-7.2zm2.988-3.816a3.12 3.12 0 0 0-1.116.198 2.81 2.81 0 0 0-.9.522 3 3 0 0 0-.63.81c-.156.3-.258.63-.306.99h5.76a2.504 2.504 0 0 0-.288-1.044 2.393 2.393 0 0 0-.63-.792 2.774 2.774 0 0 0-.882-.504 2.88 2.88 0 0 0-1.008-.18zm6.503-1.08h3.24v1.188h.216c.228-.492.552-.852.972-1.08.42-.24.9-.36 1.44-.36.9 0 1.626.294 2.178.882.552.588.846 1.446.882 2.574l-1.476.216c0-.828-.198-1.422-.594-1.782-.396-.372-.882-.558-1.458-.558-.372 0-.696.072-.972.216a1.97 1.97 0 0 0-.666.594c-.18.252-.312.546-.396.882a4.442 4.442 0 0 0-.126 1.08v3.78h2.268V148h-5.724v-1.296h2.052v-6.336h-1.836v-1.296zm11.526 7.632h3.24v-10.008h-3.132V135.4h4.536v11.304h3.24V148h-7.884v-1.296zm13.793-10.296c0-.348.12-.642.36-.882.252-.252.552-.378.9-.378s.642.126.882.378c.252.24.378.534.378.882s-.126.648-.378.9a1.2 1.2 0 0 1-.882.36 1.26 1.26 0 0 1-.9-.36 1.26 1.26 0 0 1-.36-.9zm-2.556 10.296h3.132v-6.336h-2.808v-1.296h4.212v7.632h2.916V148h-7.452v-1.296zm12.21 1.296h-1.404v-8.928h1.404v1.512h.216c.552-1.176 1.512-1.764 2.88-1.764 1.032 0 1.854.324 2.466.972.612.636.918 1.596.918 2.88V148h-1.404v-5.04c0-.936-.21-1.638-.63-2.106-.42-.468-.99-.702-1.71-.702-.852 0-1.524.294-2.016.882-.48.576-.72 1.35-.72 2.322V148zm23.375-6.048h5.616V148h-1.404v-1.512h-.216c-.204.528-.564.954-1.08 1.278-.516.324-1.116.486-1.8.486-1.356 0-2.424-.438-3.204-1.314-.768-.876-1.152-2.154-1.152-3.834v-2.808c0-1.632.39-2.898 1.17-3.798.78-.9 1.866-1.35 3.258-1.35.72 0 1.356.12 1.908.36a3.714 3.714 0 0 1 1.386.972c.372.408.654.894.846 1.458.192.552.288 1.146.288 1.782v.216h-1.512v-.216c0-.408-.06-.804-.18-1.188a2.691 2.691 0 0 0-.522-1.008 2.29 2.29 0 0 0-.9-.702c-.36-.18-.798-.27-1.314-.27-.972 0-1.704.354-2.196 1.062-.48.708-.72 1.638-.72 2.79v2.592c0 1.236.24 2.19.72 2.862.492.66 1.236.99 2.232.99.9 0 1.602-.288 2.106-.864.516-.576.774-1.38.774-2.412v-.216h-4.104v-1.404zm9.311 2.016c.036.888.312 1.602.828 2.142.516.54 1.236.81 2.16.81.42 0 .786-.048 1.098-.144a2.45 2.45 0 0 0 .792-.396c.228-.168.408-.36.54-.576.144-.228.258-.468.342-.72l1.332.36a3.97 3.97 0 0 1-1.404 2.034c-.672.516-1.584.774-2.736.774a4.707 4.707 0 0 1-1.764-.324 4.074 4.074 0 0 1-1.368-.954 4.392 4.392 0 0 1-.9-1.458 5.195 5.195 0 0 1-.324-1.872v-.432c0-.624.108-1.206.324-1.746.228-.54.54-1.002.936-1.386a4.174 4.174 0 0 1 1.386-.918 4.442 4.442 0 0 1 1.746-.342c.732 0 1.362.138 1.89.414.54.264.978.594 1.314.99.348.396.6.828.756 1.296.168.468.252.9.252 1.296v1.152H766zm2.988-3.816a3.12 3.12 0 0 0-1.116.198 2.81 2.81 0 0 0-.9.522 3 3 0 0 0-.63.81c-.156.3-.258.63-.306.99h5.76a2.504 2.504 0 0 0-.288-1.044 2.393 2.393 0 0 0-.63-.792 2.774 2.774 0 0 0-.882-.504 2.88 2.88 0 0 0-1.008-.18zm6.504-1.08h3.24v1.188h.216c.228-.492.552-.852.972-1.08.42-.24.9-.36 1.44-.36.9 0 1.626.294 2.178.882.552.588.846 1.446.882 2.574l-1.476.216c0-.828-.198-1.422-.594-1.782-.396-.372-.882-.558-1.458-.558-.372 0-.696.072-.972.216a1.97 1.97 0 0 0-.666.594c-.18.252-.312.546-.396.882a4.442 4.442 0 0 0-.126 1.08v3.78H781V148h-5.724v-1.296h2.052v-6.336h-1.836v-1.296zM795.603 148h-1.404v-6.408c0-.42-.096-.762-.288-1.026-.192-.276-.498-.414-.918-.414-.396 0-.72.15-.972.45-.24.288-.36.738-.36 1.35V148h-1.404v-6.48c0-.396-.108-.72-.324-.972a1.06 1.06 0 0 0-.864-.396c-.432 0-.768.156-1.008.468-.228.312-.342.72-.342 1.224V148h-1.404v-8.928h1.404v.972h.216c.156-.42.384-.726.684-.918.3-.204.654-.306 1.062-.306.432 0 .786.114 1.062.342.288.228.486.522.594.882h.216c.408-.816 1.056-1.224 1.944-1.224.672 0 1.188.216 1.548.648.372.42.558.972.558 1.656V148zm8.916-1.512h-.216c-.288.6-.69 1.044-1.206 1.332a3.18 3.18 0 0 1-1.602.432 4.563 4.563 0 0 1-1.638-.288 3.973 3.973 0 0 1-1.332-.882 4.343 4.343 0 0 1-.882-1.44c-.216-.564-.324-1.218-.324-1.962v-.288c0-.732.108-1.38.324-1.944.216-.564.51-1.038.882-1.422a3.85 3.85 0 0 1 1.332-.9 4.229 4.229 0 0 1 1.602-.306c.612 0 1.164.138 1.656.414.504.264.9.678 1.188 1.242h.216v-1.404h1.404v7.092c0 .36.162.54.486.54h.45V148h-.954c-.408 0-.744-.132-1.008-.396-.252-.264-.378-.6-.378-1.008v-.108zm-2.88.432c.42 0 .804-.078 1.152-.234a2.55 2.55 0 0 0 .918-.666 3.2 3.2 0 0 0 .594-1.026c.144-.408.216-.858.216-1.35v-.216c0-.48-.072-.918-.216-1.314a3.002 3.002 0 0 0-.612-1.044 2.55 2.55 0 0 0-.918-.666 2.574 2.574 0 0 0-1.134-.252c-.42 0-.804.078-1.152.234a2.775 2.775 0 0 0-.918.666c-.252.276-.45.618-.594 1.026a3.82 3.82 0 0 0-.216 1.314v.288c0 1.02.264 1.818.792 2.394.54.564 1.236.846 2.088.846zm8.825 1.08h-1.404v-8.928h1.404v1.512h.216c.552-1.176 1.512-1.764 2.88-1.764 1.032 0 1.854.324 2.466.972.612.636.918 1.596.918 2.88V148h-1.404v-5.04c0-.936-.21-1.638-.63-2.106-.42-.468-.99-.702-1.71-.702-.852 0-1.524.294-2.016.882-.48.576-.72 1.35-.72 2.322V148zm16.098-1.62h-.216c-.288.576-.666 1.032-1.134 1.368-.468.336-1.062.504-1.782.504a3.65 3.65 0 0 1-1.368-.252 2.786 2.786 0 0 1-1.062-.72 3.562 3.562 0 0 1-.684-1.206c-.156-.48-.234-1.038-.234-1.674v-5.328h1.404v5.148c0 .936.192 1.62.576 2.052.384.432.972.648 1.764.648.852 0 1.518-.288 1.998-.864.492-.588.738-1.368.738-2.34v-4.644h1.404v11.124c0 .408-.132.744-.396 1.008-.252.264-.582.396-.99.396h-5.094v-1.296h4.59c.324 0 .486-.18.486-.54v-3.384z" fill="#fff"/><defs><clipPath id="clip0"><path fill="#fff" transform="translate(744 1)" d="M0 0h150v62H0z"/></clipPath><clipPath id="clip1"><path fill="#fff" transform="rotate(-90 396.5 -67.5)" d="M0 0h150v62H0z"/></clipPath></defs></svg>