<svg width="245" height="245" viewBox="0 0 245 245" fill="none" xmlns="http://www.w3.org/2000/svg">
<rect x="209.804" y="133.886" width="8.23232" height="8.23232" transform="rotate(135 209.804 133.886)" fill="#E63623"/>
<rect x="209.804" y="110.602" width="8.23232" height="8.23232" transform="rotate(135 209.804 110.602)" fill="#E63623"/>
<rect x="198.162" y="122.244" width="8.23232" height="8.23232" transform="rotate(135 198.162 122.244)" fill="#E63623"/>
<rect x="209.804" y="157.17" width="8.23232" height="8.23232" transform="rotate(135 209.804 157.17)" fill="#E63623"/>
<rect x="198.162" y="168.812" width="8.23232" height="8.23232" transform="rotate(135 198.162 168.812)" fill="#E63623"/>
<rect x="186.52" y="180.455" width="8.23232" height="8.23232" transform="rotate(135 186.52 180.455)" fill="#E63623"/>
<rect x="198.162" y="145.527" width="8.23232" height="8.23232" transform="rotate(135 198.162 145.527)" fill="#E63623"/>
<rect x="186.52" y="157.17" width="8.23232" height="8.23232" transform="rotate(135 186.52 157.17)" fill="#E63623"/>
<rect x="174.878" y="168.812" width="8.23232" height="8.23232" transform="rotate(135 174.878 168.812)" fill="#E63623"/>
<rect x="186.52" y="133.885" width="8.23232" height="8.23232" transform="rotate(135 186.52 133.885)" fill="#E63623"/>
<rect x="174.878" y="145.527" width="8.23232" height="8.23232" transform="rotate(135 174.878 145.527)" fill="#E63623"/>
<rect x="163.235" y="157.17" width="8.23232" height="8.23232" transform="rotate(135 163.235 157.17)" fill="#E63623"/>
<rect x="174.877" y="192.096" width="8.23232" height="8.23232" transform="rotate(135 174.877 192.096)" fill="#E63623"/>
<rect x="163.235" y="203.739" width="8.23232" height="8.23232" transform="rotate(135 163.235 203.739)" fill="#E63623"/>
<rect x="151.593" y="215.381" width="8.23232" height="8.23232" transform="rotate(135 151.593 215.381)" fill="#E63623"/>
<rect x="163.235" y="180.455" width="8.23232" height="8.23232" transform="rotate(135 163.235 180.455)" fill="#E63623"/>
<rect x="151.593" y="192.097" width="8.23232" height="8.23232" transform="rotate(135 151.593 192.097)" fill="#E63623"/>
<rect x="139.951" y="203.739" width="8.23232" height="8.23232" transform="rotate(135 139.951 203.739)" fill="#E63623"/>
<rect x="151.593" y="168.812" width="8.23232" height="8.23232" transform="rotate(135 151.593 168.812)" fill="#E63623"/>
<rect x="139.951" y="180.455" width="8.23232" height="8.23232" transform="rotate(135 139.951 180.455)" fill="#E63623"/>
<rect x="128.308" y="192.097" width="8.23232" height="8.23232" transform="rotate(135 128.308 192.097)" fill="#E63623"/>
<rect x="139.95" y="227.024" width="8.23232" height="8.23232" transform="rotate(135 139.95 227.024)" fill="#E63623"/>
<rect x="128.309" y="238.667" width="8.23232" height="8.23232" transform="rotate(135 128.309 238.667)" fill="#E63623"/>
<rect x="128.309" y="215.382" width="8.23232" height="8.23232" transform="rotate(135 128.309 215.382)" fill="#E63623"/>
<rect x="116.666" y="227.024" width="8.23232" height="8.23232" transform="rotate(135 116.666 227.024)" fill="#E63623"/>
<rect x="116.666" y="203.739" width="8.23232" height="8.23232" transform="rotate(135 116.666 203.739)" fill="#E63623"/>
<rect x="105.024" y="215.382" width="8.23232" height="8.23232" transform="rotate(135 105.024 215.382)" fill="#E63623"/>
<rect x="209.804" y="87.3164" width="8.23232" height="8.23232" transform="rotate(135 209.804 87.3164)" fill="#E63623"/>
<rect x="198.162" y="98.959" width="8.23232" height="8.23232" transform="rotate(135 198.162 98.959)" fill="#E63623"/>
<rect x="186.52" y="110.602" width="8.23232" height="8.23232" transform="rotate(135 186.52 110.602)" fill="#E63623"/>
<rect x="174.878" y="122.244" width="8.23232" height="8.23232" transform="rotate(135 174.878 122.244)" fill="#E63623"/>
<rect x="163.235" y="133.886" width="8.23232" height="8.23232" transform="rotate(135 163.235 133.886)" fill="#E63623"/>
<rect x="151.593" y="145.528" width="8.23232" height="8.23232" transform="rotate(135 151.593 145.528)" fill="#E63623"/>
<rect x="139.95" y="157.17" width="8.23232" height="8.23232" transform="rotate(135 139.95 157.17)" fill="#E63623"/>
<rect x="128.309" y="168.813" width="8.23232" height="8.23232" transform="rotate(135 128.309 168.813)" fill="#E63623"/>
<rect x="116.666" y="180.456" width="8.23232" height="8.23232" transform="rotate(135 116.666 180.456)" fill="#E63623"/>
<rect x="116.666" y="157.171" width="8.23232" height="8.23232" transform="rotate(135 116.666 157.171)" fill="#E63623"/>
<rect x="105.024" y="168.813" width="8.23232" height="8.23232" transform="rotate(135 105.024 168.813)" fill="#E63623"/>
<rect x="105.024" y="145.529" width="8.23232" height="8.23232" transform="rotate(135 105.024 145.529)" fill="#E63623"/>
<rect x="93.3818" y="157.171" width="8.23232" height="8.23232" transform="rotate(135 93.3818 157.171)" fill="#E63623"/>
<rect x="105.023" y="192.098" width="8.23232" height="8.23232" transform="rotate(135 105.023 192.098)" fill="#E63623"/>
<rect x="93.3817" y="203.739" width="8.23232" height="8.23232" transform="rotate(135 93.3817 203.739)" fill="#E63623"/>
<rect x="93.3817" y="180.455" width="8.23232" height="8.23232" transform="rotate(135 93.3817 180.455)" fill="#E63623"/>
<rect x="81.7396" y="192.097" width="8.23232" height="8.23232" transform="rotate(135 81.7396 192.097)" fill="#E63623"/>
<rect x="81.7395" y="168.812" width="8.23232" height="8.23232" transform="rotate(135 81.7395 168.812)" fill="#E63623"/>
<rect x="70.0972" y="180.455" width="8.23232" height="8.23232" transform="rotate(135 70.0972 180.455)" fill="#E63623"/>
<rect x="93.3813" y="133.886" width="8.23232" height="8.23232" transform="rotate(135 93.3813 133.886)" fill="#E63623"/>
<rect x="81.7396" y="145.528" width="8.23232" height="8.23232" transform="rotate(135 81.7396 145.528)" fill="#E63623"/>
<rect x="81.7395" y="122.244" width="8.23232" height="8.23232" transform="rotate(135 81.7395 122.244)" fill="#E63623"/>
<rect x="70.0973" y="133.886" width="8.23232" height="8.23232" transform="rotate(135 70.0973 133.886)" fill="#E63623"/>
<rect x="70.0973" y="110.602" width="8.23232" height="8.23232" transform="rotate(135 70.0973 110.602)" fill="#E63623"/>
<rect x="58.4551" y="122.244" width="8.23232" height="8.23232" transform="rotate(135 58.4551 122.244)" fill="#E63623"/>
<rect x="70.0969" y="157.171" width="8.23232" height="8.23232" transform="rotate(135 70.0969 157.171)" fill="#E63623"/>
<rect x="58.4551" y="168.812" width="8.23232" height="8.23232" transform="rotate(135 58.4551 168.812)" fill="#E63623"/>
<rect x="58.4551" y="145.528" width="8.23232" height="8.23232" transform="rotate(135 58.4551 145.528)" fill="#E63623"/>
<rect x="46.8127" y="157.17" width="8.23232" height="8.23232" transform="rotate(135 46.8127 157.17)" fill="#E63623"/>
<rect x="46.8127" y="133.886" width="8.23232" height="8.23232" transform="rotate(135 46.8127 133.886)" fill="#E63623"/>
<rect x="58.455" y="98.959" width="8.23232" height="8.23232" transform="rotate(135 58.455 98.959)" fill="#E63623"/>
<rect x="46.8126" y="110.601" width="8.23232" height="8.23232" transform="rotate(135 46.8126 110.601)" fill="#E63623"/>
<rect x="46.8126" y="87.3169" width="8.23232" height="8.23232" transform="rotate(135 46.8126 87.3169)" fill="#E63623"/>
</svg>
